<?xml version="1.0" encoding="utf-8" standalone="no"?>
<!DOCTYPE svg PUBLIC "-//W3C//DTD SVG 1.1//EN"
  "http://www.w3.org/Graphics/SVG/1.1/DTD/svg11.dtd">
<svg xmlns:xlink="http://www.w3.org/1999/xlink" width="1152pt" height="220.594144pt" viewBox="0 0 1152 220.594144" xmlns="http://www.w3.org/2000/svg" version="1.1">
 <metadata>
  <rdf:RDF xmlns:dc="http://purl.org/dc/elements/1.1/" xmlns:cc="http://creativecommons.org/ns#" xmlns:rdf="http://www.w3.org/1999/02/22-rdf-syntax-ns#">
   <cc:Work>
    <dc:type rdf:resource="http://purl.org/dc/dcmitype/StillImage"/>
    <dc:date>2026-03-04T15:28:18.291346</dc:date>
    <dc:format>image/svg+xml</dc:format>
    <dc:creator>
     <cc:Agent>
      <dc:title>Matplotlib v3.10.8, https://matplotlib.org/</dc:title>
     </cc:Agent>
    </dc:creator>
   </cc:Work>
  </rdf:RDF>
 </metadata>
 <defs>
  <style type="text/css">*{stroke-linejoin: round; stroke-linecap: butt}</style>
 </defs>
 <g id="figure_1">
  <g id="patch_1">
   <path d="M 0 220.594144 
L 1152 220.594144 
L 1152 0 
L 0 0 
z
" style="fill: #ffffff"/>
  </g>
  <g id="axes_1">
   <g id="patch_2">
    <path d="M 109.004938 139.078294 
L 136.857734 160.432105 
L 136.857734 192.927033 
L 164.71053 197.569166 
L 1018.862939 197.569166 
L 1056 165.074237 
L 1046.715735 126.080323 
L 109.004938 139.078294 
" clip-path="url(#pfa24697e80)" style="fill: none; stroke: #0000ff; stroke-width: 0.72; stroke-linejoin: miter"/>
   </g>
   <g id="line2d_1">
    <path d="M 109.004938 192.927033 
L 1056 192.927033 
" clip-path="url(#pfa24697e80)" style="fill: none; stroke: #00ffff; stroke-width: 0.72; stroke-linecap: square"/>
   </g>
   <g id="patch_3">
    <path d="M 109.004938 139.078294 
L 294.690244 139.078294 
L 294.690244 46.235641 
L 109.004938 46.235641 
L 109.004938 139.078294 
" clip-path="url(#pfa24697e80)" style="fill: none; stroke: #00ff00; stroke-width: 0.72; stroke-linejoin: miter"/>
   </g>
   <g id="line2d_2">
    <path d="M 164.71053 184.571194 
L 1018.862939 184.571194 
" clip-path="url(#pfa24697e80)" style="fill: none; stroke: #ff0000; stroke-width: 0.72; stroke-linecap: square"/>
   </g>
   <g id="line2d_3">
    <path d="M 164.71053 197.569166 
L 164.71053 126.080323 
" clip-path="url(#pfa24697e80)" style="fill: none; stroke: #ffff00; stroke-width: 0.72; stroke-linecap: square"/>
   </g>
   <g id="line2d_4">
    <path d="M 294.690244 197.569166 
L 294.690244 126.080323 
" clip-path="url(#pfa24697e80)" style="fill: none; stroke: #ffff00; stroke-width: 0.72; stroke-linecap: square"/>
   </g>
   <g id="line2d_5">
    <path d="M 573.218204 197.569166 
L 573.218204 126.080323 
" clip-path="url(#pfa24697e80)" style="fill: none; stroke: #ffff00; stroke-width: 0.72; stroke-linecap: square"/>
   </g>
   <g id="line2d_6">
    <path d="M 947.559781 197.569166 
L 947.559781 126.080323 
" clip-path="url(#pfa24697e80)" style="fill: none; stroke: #ffff00; stroke-width: 0.72; stroke-linecap: square"/>
   </g>
   <g id="patch_4">
    <path d="M 294.690244 146.505707 
L 294.690244 139.078294 
L 573.218204 139.078294 
L 573.218204 146.505707 
L 294.690244 146.505707 
" clip-path="url(#pfa24697e80)" style="fill: none; stroke: #ff00ff; stroke-width: 0.72; stroke-linejoin: miter"/>
   </g>
   <g id="patch_5">
    <path d="M 573.218204 146.505707 
L 573.218204 139.078294 
L 947.559781 139.078294 
L 947.559781 146.505707 
L 573.218204 146.505707 
" clip-path="url(#pfa24697e80)" style="fill: none; stroke: #ff00ff; stroke-width: 0.72; stroke-linejoin: miter"/>
   </g>
   <g id="patch_6">
    <path d="M 211.131856 46.235641 
L 211.131856 18.382845 
L 266.837448 18.382845 
L 266.837448 46.235641 
L 211.131856 46.235641 
" clip-path="url(#pfa24697e80)" style="fill: none; stroke: #808080; stroke-width: 0.72; stroke-linejoin: miter"/>
   </g>
   <g id="patch_7">
    <path d="M 136.857734 192.927033 
L 136.857734 202.211299 
L 127.573468 202.211299 
L 127.573468 192.927033 
L 136.857734 192.927033 
" clip-path="url(#pfa24697e80)" style="fill: none; stroke: #ff0000; stroke-width: 0.72; stroke-linejoin: miter"/>
   </g>
   <g id="patch_8">
    <path d="M 219.705236 176.679569 
L 221.548156 176.679569 
L 221.548156 170.495336 
L 223.685564 170.495336 
Q 224.398033 170.495336 224.711519 170.561833 
Q 225.139001 170.666329 225.552233 170.932317 
Q 225.965465 171.198306 226.487942 171.863277 
Q 227.01042 172.528248 227.817885 173.782194 
L 229.660805 176.679569 
L 231.978705 176.679569 
L 229.55631 172.889233 
Q 228.834341 171.777781 228.026876 171.036813 
Q 227.646892 170.694828 226.915424 170.343343 
Q 228.919837 170.067855 229.879296 169.051399 
Q 230.838754 168.034943 230.838754 166.553007 
Q 230.838754 165.403556 230.259279 164.453597 
Q 229.679804 163.503639 228.710846 163.128405 
Q 227.741888 162.753171 225.879969 162.753171 
L 219.705236 162.753171 
L 219.705236 176.679569 
M 153.730588 176.679569 
L 164.123138 176.679569 
L 164.123138 175.03614 
L 155.573508 175.03614 
L 155.573508 170.295845 
L 163.277675 170.295845 
L 163.277675 168.661916 
L 155.573508 168.661916 
L 155.573508 164.3966 
L 163.800152 164.3966 
L 163.800152 162.753171 
L 153.730588 162.753171 
L 153.730588 176.679569 
M 255.148203 176.679569 
L 256.85813 176.679569 
L 256.85813 171.445295 
Q 256.85813 170.067855 257.133618 169.336386 
Q 257.409106 168.604918 258.021829 168.224934 
Q 258.634553 167.844951 259.356522 167.844951 
Q 260.306481 167.844951 260.724462 168.414926 
Q 261.142444 168.984902 261.142444 170.124852 
L 261.142444 176.679569 
L 262.85237 176.679569 
L 262.85237 170.818322 
Q 262.85237 169.26039 263.55534 168.55267 
Q 264.25831 167.844951 265.322264 167.844951 
Q 265.911238 167.844951 266.348219 168.120439 
Q 266.7852 168.395927 266.951443 168.847158 
Q 267.117686 169.298388 267.117686 170.324344 
L 267.117686 176.679569 
L 268.818113 176.679569 
L 268.818113 169.754368 
Q 268.818113 168.025443 268.010647 167.194229 
Q 267.203182 166.363015 265.702247 166.363015 
Q 263.78333 166.363015 262.586382 168.129939 
Q 262.291895 167.293975 261.574676 166.828495 
Q 260.857457 166.363015 259.736505 166.363015 
Q 258.729549 166.363015 257.941083 166.814245 
Q 257.152617 167.265476 256.677637 168.006444 
L 256.677637 166.591005 
L 255.148203 166.591005 
L 255.148203 176.679569 
M 176.957084 177.515533 
Q 176.919085 179.149462 178.030537 179.961677 
Q 179.141989 180.773892 180.946911 180.773892 
Q 182.466845 180.773892 183.50705 180.203917 
Q 184.547256 179.633941 185.026985 178.650734 
Q 185.506714 177.667526 185.506714 175.311628 
L 185.506714 166.591005 
L 183.929782 166.591005 
L 183.929782 167.806953 
Q 182.770832 166.363015 180.98491 166.363015 
Q 179.645467 166.363015 178.65276 167.027986 
Q 177.660053 167.692957 177.137576 168.913655 
Q 176.615098 170.134352 176.615098 171.578289 
Q 176.615098 173.677699 177.755049 175.178634 
Q 178.895 176.679569 180.97541 176.679569 
Q 182.647338 176.679569 183.768289 175.359126 
Q 183.777789 177.031054 183.644795 177.553531 
Q 183.416804 178.408494 182.770832 178.883474 
Q 182.12486 179.358453 180.937412 179.358453 
Q 179.835459 179.358453 179.198987 178.883474 
Q 178.724007 178.531989 178.619512 177.762522 
L 176.957084 177.515533 
M 232.871666 171.635287 
Q 232.871666 174.190677 234.17786 175.549118 
Q 235.484054 176.907559 237.602462 176.907559 
Q 238.922905 176.907559 240.039107 176.290086 
Q 241.155308 175.672612 241.739533 174.556411 
Q 242.323758 173.440209 242.323758 171.492793 
Q 242.323758 169.089397 241.003315 167.726206 
Q 239.682872 166.363015 237.602462 166.363015 
Q 235.731043 166.363015 234.429599 167.483966 
Q 232.871666 168.832908 232.871666 171.635287 
M 243.691699 171.635287 
Q 243.691699 174.190677 244.997892 175.549118 
Q 246.304086 176.907559 248.422494 176.907559 
Q 249.742937 176.907559 250.859139 176.290086 
Q 251.975341 175.672612 252.559565 174.556411 
Q 253.14379 173.440209 253.14379 171.492793 
Q 253.14379 169.089397 251.823347 167.726206 
Q 250.502904 166.363015 248.422494 166.363015 
Q 246.551075 166.363015 245.249631 167.483966 
Q 243.691699 168.832908 243.691699 171.635287 
M 210.139149 173.430709 
Q 209.749666 174.513663 209.084695 175.007641 
Q 208.419724 175.50162 207.479264 175.50162 
Q 206.215819 175.50162 205.370355 174.618158 
Q 204.524892 173.734696 204.429896 172.072268 
L 211.953571 172.072268 
Q 211.96307 171.768281 211.96307 171.616288 
Q 211.96307 169.117896 210.680626 167.740455 
Q 209.398181 166.363015 207.374769 166.363015 
Q 205.284859 166.363015 203.973916 167.768954 
Q 202.662972 169.174893 202.662972 171.720783 
Q 202.662972 174.181177 203.959666 175.544368 
Q 205.25636 176.907559 207.469765 176.907559 
Q 209.227189 176.907559 210.35764 176.052596 
Q 211.488091 175.197633 211.906073 173.6492 
L 210.139149 173.430709 
M 192.412915 176.679569 
L 194.122842 176.679569 
L 194.122842 171.169807 
Q 194.122842 169.231891 194.916057 168.538421 
Q 195.709273 167.844951 196.801726 167.844951 
Q 197.485696 167.844951 197.993924 168.153688 
Q 198.502152 168.462424 198.701644 168.980152 
Q 198.901135 169.497879 198.901135 170.542834 
L 198.901135 176.679569 
L 200.611061 176.679569 
L 200.611061 170.476337 
Q 200.611061 169.288888 200.516065 168.813909 
Q 200.364072 168.082441 199.984088 167.550464 
Q 199.604105 167.018487 198.839388 166.690751 
Q 198.074671 166.363015 197.16271 166.363015 
Q 195.063301 166.363015 193.951849 168.025443 
L 193.951849 166.591005 
L 192.412915 166.591005 
L 192.412915 176.679569 
M 166.450538 176.679569 
L 168.160464 176.679569 
L 168.160464 171.169807 
Q 168.160464 169.231891 168.95368 168.538421 
Q 169.746895 167.844951 170.839348 167.844951 
Q 171.523319 167.844951 172.031547 168.153688 
Q 172.539775 168.462424 172.739266 168.980152 
Q 172.938757 169.497879 172.938757 170.542834 
L 172.938757 176.679569 
L 174.648683 176.679569 
L 174.648683 170.476337 
Q 174.648683 169.288888 174.553688 168.813909 
Q 174.401694 168.082441 174.021711 167.550464 
Q 173.641727 167.018487 172.87701 166.690751 
Q 172.112293 166.363015 171.200332 166.363015 
Q 169.100923 166.363015 167.989471 168.025443 
L 167.989471 166.591005 
L 166.450538 166.591005 
L 166.450538 176.679569 
M 188.100102 176.679569 
L 189.810028 176.679569 
L 189.810028 166.591005 
L 188.100102 166.591005 
L 188.100102 176.679569 
M 188.100102 164.719586 
L 189.810028 164.719586 
L 189.810028 162.753171 
L 188.100102 162.753171 
L 188.100102 164.719586 
M 221.548156 168.899405 
L 221.548156 164.292104 
L 225.955965 164.292104 
Q 227.504399 164.292104 228.221618 164.928577 
Q 228.938836 165.565049 228.938836 166.553007 
Q 228.938836 167.227478 228.568353 167.802203 
Q 228.197869 168.376928 227.485399 168.638167 
Q 226.77293 168.899405 225.509485 168.899405 
L 221.548156 168.899405 
M 178.372522 171.454795 
Q 178.372522 169.630874 179.170488 168.704664 
Q 179.968453 167.778454 181.108404 167.778454 
Q 182.267354 167.778454 183.089069 168.718913 
Q 183.910783 169.659372 183.910783 171.511792 
Q 183.910783 173.449709 183.112818 174.356919 
Q 182.314852 175.26413 181.136903 175.26413 
Q 179.949454 175.26413 179.160988 174.35217 
Q 178.372522 173.440209 178.372522 171.454795 
M 234.629091 171.635287 
Q 234.629091 169.697371 235.474554 168.737912 
Q 236.320017 167.778454 237.602462 167.778454 
Q 238.865907 167.778454 239.716121 168.742662 
Q 240.566334 169.70687 240.566334 171.578289 
Q 240.566334 173.563704 239.72087 174.532662 
Q 238.875407 175.50162 237.602462 175.50162 
Q 236.320017 175.50162 235.474554 174.537412 
Q 234.629091 173.573203 234.629091 171.635287 
M 245.449123 171.635287 
Q 245.449123 169.697371 246.294586 168.737912 
Q 247.14005 167.778454 248.422494 167.778454 
Q 249.68594 167.778454 250.536153 168.742662 
Q 251.386366 169.70687 251.386366 171.578289 
Q 251.386366 173.563704 250.540903 174.532662 
Q 249.695439 175.50162 248.422494 175.50162 
Q 247.14005 175.50162 246.294586 174.537412 
Q 245.449123 173.573203 245.449123 171.635287 
M 204.524892 170.666329 
Q 204.610388 169.345886 205.413103 168.55742 
Q 206.215819 167.768954 207.393768 167.768954 
Q 208.695212 167.768954 209.512176 168.756911 
Q 210.044153 169.393384 210.158148 170.666329 
L 204.524892 170.666329 
" clip-path="url(#pfa24697e80)" style="fill: #ff0000"/>
   </g>
   <g id="patch_9">
    <path d="M 604.397439 191.534393 
L 606.240359 191.534393 
L 606.240359 179.251424 
L 610.84766 179.251424 
L 610.84766 177.607995 
L 599.809137 177.607995 
L 599.809137 179.251424 
L 604.397439 179.251424 
L 604.397439 191.534393 
M 555.740542 191.534393 
L 557.583463 191.534393 
L 557.583463 179.251424 
L 562.190764 179.251424 
L 562.190764 177.607995 
L 551.152241 177.607995 
L 551.152241 179.251424 
L 555.740542 179.251424 
L 555.740542 191.534393 
M 623.33962 195.400726 
L 625.049546 195.400726 
L 625.049546 190.489439 
Q 625.486527 191.040415 626.165748 191.401399 
Q 626.844969 191.762384 627.699932 191.762384 
Q 628.868381 191.762384 629.927585 191.102162 
Q 630.98679 190.441941 631.542516 189.202244 
Q 632.098242 187.962548 632.098242 186.414115 
Q 632.098242 184.970177 631.594763 183.75898 
Q 631.091285 182.547782 630.103328 181.882811 
Q 629.115371 181.217839 627.823426 181.217839 
Q 626.835469 181.217839 626.141999 181.602573 
Q 625.448529 181.987306 624.897553 182.756773 
L 624.897553 181.44583 
L 623.33962 181.44583 
L 623.33962 195.400726 
M 585.512255 191.534393 
L 587.222182 191.534393 
L 587.222182 187.535066 
L 588.428629 186.376116 
L 591.762985 191.534393 
L 593.871894 191.534393 
L 589.625578 185.188668 
L 593.482411 181.44583 
L 591.269007 181.44583 
L 587.222182 185.549652 
L 587.222182 177.607995 
L 585.512255 177.607995 
L 585.512255 191.534393 
M 611.883115 186.490112 
Q 611.883115 189.045501 613.189309 190.403942 
Q 614.495503 191.762384 616.613911 191.762384 
Q 617.934354 191.762384 619.050556 191.14491 
Q 620.166757 190.527437 620.750982 189.411235 
Q 621.335207 188.295033 621.335207 186.347618 
Q 621.335207 183.944222 620.014764 182.581031 
Q 618.694321 181.217839 616.613911 181.217839 
Q 614.742492 181.217839 613.441048 182.338791 
Q 611.883115 183.687733 611.883115 186.490112 
M 570.445907 190.289947 
Q 570.521903 191.002416 570.787892 191.534393 
L 572.573815 191.534393 
Q 572.250829 190.954919 572.141583 190.323196 
Q 572.032338 189.691473 572.032338 187.307076 
L 572.032338 185.027175 
Q 572.032338 183.887224 571.946842 183.450243 
Q 571.794848 182.747273 571.414865 182.286543 
Q 571.034881 181.825813 570.227416 181.521826 
Q 569.419951 181.217839 568.128007 181.217839 
Q 566.826563 181.217839 565.838606 181.574074 
Q 564.850649 181.930309 564.328171 182.59053 
Q 563.805694 183.250752 563.577704 184.324205 
L 565.249631 184.552195 
Q 565.525119 183.478742 566.099845 183.05601 
Q 566.67457 182.633278 567.881018 182.633278 
Q 569.172962 182.633278 569.828433 183.212753 
Q 570.312913 183.640235 570.312913 184.68519 
Q 570.312913 184.780185 570.303413 185.13167 
Q 569.324955 185.473655 567.254045 185.720645 
Q 566.237589 185.844139 565.73411 185.977134 
Q 565.05014 186.167125 564.503914 186.537609 
Q 563.957687 186.908093 563.620452 187.520817 
Q 563.283216 188.13354 563.283216 188.874508 
Q 563.283216 190.137954 564.176178 190.950169 
Q 565.069139 191.762384 566.731567 191.762384 
Q 567.738524 191.762384 568.617236 191.429898 
Q 569.495948 191.097412 570.445907 190.289947 
M 574.682724 191.534393 
L 576.39265 191.534393 
L 576.39265 186.024632 
Q 576.39265 184.086715 577.185865 183.393245 
Q 577.979081 182.699775 579.071534 182.699775 
Q 579.755504 182.699775 580.263732 183.008512 
Q 580.77196 183.317249 580.971452 183.834976 
Q 581.170943 184.352704 581.170943 185.397659 
L 581.170943 191.534393 
L 582.880869 191.534393 
L 582.880869 185.331162 
Q 582.880869 184.143713 582.785873 183.668733 
Q 582.63388 182.937265 582.253896 182.405288 
Q 581.873913 181.873311 581.109196 181.545575 
Q 580.344479 181.217839 579.432518 181.217839 
Q 577.333109 181.217839 576.221657 182.880268 
L 576.221657 181.44583 
L 574.682724 181.44583 
L 574.682724 191.534393 
M 624.888053 186.547109 
Q 624.888053 184.599693 625.728767 183.578487 
Q 626.569481 182.557282 627.661933 182.557282 
Q 628.763886 182.557282 629.557101 183.51674 
Q 630.350317 184.476199 630.350317 186.404615 
Q 630.350317 188.428028 629.538102 189.392236 
Q 628.725887 190.356444 627.585937 190.356444 
Q 626.464985 190.356444 625.676519 189.425485 
Q 624.888053 188.494525 624.888053 186.547109 
M 613.640539 186.490112 
Q 613.640539 184.552195 614.486003 183.592737 
Q 615.331466 182.633278 616.613911 182.633278 
Q 617.877356 182.633278 618.72757 183.597487 
Q 619.577783 184.561695 619.577783 186.433114 
Q 619.577783 188.418528 618.732319 189.387486 
Q 617.886856 190.356444 616.613911 190.356444 
Q 615.331466 190.356444 614.486003 189.392236 
Q 613.640539 188.428028 613.640539 186.490112 
M 570.303413 186.471112 
L 570.303413 187.098085 
Q 570.303413 188.228536 570.027925 188.808011 
Q 569.66694 189.558479 568.897474 189.99071 
Q 568.128007 190.422942 567.14005 190.422942 
Q 566.142593 190.422942 565.624865 189.966961 
Q 565.107138 189.510981 565.107138 188.82701 
Q 565.107138 188.38053 565.344627 188.014796 
Q 565.582117 187.649061 566.019098 187.45907 
Q 566.456079 187.269078 567.510534 187.117084 
Q 569.372453 186.851096 570.303413 186.471112 
" clip-path="url(#pfa24697e80)" style="fill: #ff0000"/>
   </g>
   <g id="patch_10">
    <path d="M 878.967996 181.081045 
Q 878.588013 182.838469 877.514559 183.731431 
Q 876.441106 184.624392 874.892672 184.624392 
Q 873.619727 184.624392 872.527275 183.968921 
Q 871.434822 183.313449 870.917094 181.988256 
Q 870.399367 180.663063 870.399367 178.88664 
Q 870.399367 177.5092 870.836348 176.212506 
Q 871.273329 174.915812 872.351532 174.146345 
Q 873.429736 173.376878 875.035166 173.376878 
Q 876.431606 173.376878 877.353066 174.070348 
Q 878.274526 174.763818 878.759005 176.283753 
L 880.573427 175.856271 
Q 880.012951 173.927855 878.588013 172.863901 
Q 877.163074 171.799947 875.073165 171.799947 
Q 873.230244 171.799947 871.696061 172.64066 
Q 870.161877 173.481374 869.330663 175.101054 
Q 868.499449 176.720734 868.499449 178.89614 
Q 868.499449 180.891054 869.235667 182.629478 
Q 869.971885 184.367903 871.382574 185.284614 
Q 872.793263 186.201324 875.044666 186.201324 
Q 877.220072 186.201324 878.725757 185.009126 
Q 880.231442 183.816927 880.810917 181.546525 
L 878.967996 181.081045 
M 947.887517 185.963834 
L 953.197787 185.963834 
Q 954.52773 185.963834 955.44444 185.731094 
Q 956.361151 185.498354 956.969124 185.042374 
Q 957.577098 184.586394 957.99033 183.74568 
Q 958.403562 182.904967 958.403562 181.926509 
Q 958.403562 180.710561 957.724342 179.8176 
Q 957.045121 178.924639 955.781676 178.554155 
Q 956.760133 178.069676 957.244612 177.28121 
Q 957.729092 176.492744 957.729092 175.599782 
Q 957.729092 174.640324 957.182865 173.761612 
Q 956.636639 172.8829 955.67243 172.460168 
Q 954.708222 172.037436 953.112291 172.037436 
L 947.887517 172.037436 
L 947.887517 185.963834 
M 1024.596701 185.963834 
L 1026.183132 185.963834 
L 1026.183132 172.037436 
L 1024.482706 172.037436 
L 1024.482706 177.03422 
Q 1024.036225 176.416747 1023.323756 176.032014 
Q 1022.611287 175.64728 1021.699326 175.64728 
Q 1020.45488 175.64728 1019.447923 176.302752 
Q 1018.440967 176.958224 1017.937489 178.18842 
Q 1017.434011 179.418617 1017.434011 180.929052 
Q 1017.434011 182.477485 1017.989736 183.669683 
Q 1018.545462 184.861882 1019.557169 185.526853 
Q 1020.568875 186.191824 1021.775323 186.191824 
Q 1023.637242 186.191824 1024.596701 184.690889 
L 1024.596701 185.963834 
M 975.873307 185.963834 
L 977.583233 185.963834 
L 977.583233 181.964507 
L 978.789681 180.805557 
L 982.124037 185.963834 
L 984.232946 185.963834 
L 979.986629 179.618109 
L 983.843463 175.87527 
L 981.630058 175.87527 
L 977.583233 179.979093 
L 977.583233 172.037436 
L 975.873307 172.037436 
L 975.873307 185.963834 
M 985.591387 185.963834 
L 987.301313 185.963834 
L 987.301313 180.444573 
Q 987.301313 179.257124 987.586301 178.582653 
Q 987.871288 177.908183 988.54101 177.51395 
Q 989.210731 177.119717 989.970698 177.119717 
Q 990.987154 177.119717 991.54288 177.703941 
Q 992.098606 178.288166 992.098606 179.570611 
L 992.098606 185.963834 
L 993.808532 185.963834 
L 993.808532 179.570611 
Q 993.808532 178.088675 993.452297 177.309708 
Q 993.096063 176.530742 992.269598 176.089011 
Q 991.443134 175.64728 990.322183 175.64728 
Q 988.498261 175.64728 987.301313 177.03422 
L 987.301313 172.037436 
L 985.591387 172.037436 
L 985.591387 185.963834 
M 920.06322 180.919552 
Q 920.06322 183.474942 921.369413 184.833383 
Q 922.675607 186.191824 924.794015 186.191824 
Q 926.114458 186.191824 927.23066 185.574351 
Q 928.346862 184.956878 928.931086 183.840676 
Q 929.515311 182.724474 929.515311 180.777058 
Q 929.515311 178.373662 928.194868 177.010471 
Q 926.874425 175.64728 924.794015 175.64728 
Q 922.922596 175.64728 921.621152 176.768232 
Q 920.06322 178.117173 920.06322 180.919552 
M 882.226355 180.919552 
Q 882.226355 183.474942 883.532549 184.833383 
Q 884.838742 186.191824 886.957151 186.191824 
Q 888.277594 186.191824 889.393796 185.574351 
Q 890.509997 184.956878 891.094222 183.840676 
Q 891.678447 182.724474 891.678447 180.777058 
Q 891.678447 178.373662 890.358004 177.010471 
Q 889.037561 175.64728 886.957151 175.64728 
Q 885.085732 175.64728 883.784288 176.768232 
Q 882.226355 178.117173 882.226355 180.919552 
M 1003.317621 182.714975 
Q 1002.928138 183.797928 1002.263166 184.291907 
Q 1001.598195 184.785885 1000.657736 184.785885 
Q 999.39429 184.785885 998.548827 183.902423 
Q 997.703363 183.018962 997.608368 181.356533 
L 1005.132042 181.356533 
Q 1005.141542 181.052547 1005.141542 180.900553 
Q 1005.141542 178.402161 1003.859097 177.024721 
Q 1002.576653 175.64728 1000.55324 175.64728 
Q 998.463331 175.64728 997.152387 177.053219 
Q 995.841444 178.459159 995.841444 181.005049 
Q 995.841444 183.465442 997.138138 184.828633 
Q 998.434832 186.191824 1000.648236 186.191824 
Q 1002.40566 186.191824 1003.536111 185.336861 
Q 1004.666562 184.481898 1005.084544 182.933465 
L 1003.317621 182.714975 
M 1013.814667 184.719388 
Q 1013.890664 185.431857 1014.156652 185.963834 
L 1015.942575 185.963834 
Q 1015.619589 185.384359 1015.510344 184.752637 
Q 1015.401098 184.120914 1015.401098 181.736517 
L 1015.401098 179.456616 
Q 1015.401098 178.316665 1015.315602 177.879684 
Q 1015.163609 177.176714 1014.783625 176.715984 
Q 1014.403642 176.255254 1013.596176 175.951267 
Q 1012.788711 175.64728 1011.496767 175.64728 
Q 1010.195323 175.64728 1009.207366 176.003515 
Q 1008.219409 176.359749 1007.696931 177.019971 
Q 1007.174454 177.680192 1006.946464 178.753646 
L 1008.618392 178.981636 
Q 1008.89388 177.908183 1009.468605 177.485451 
Q 1010.04333 177.062719 1011.249778 177.062719 
Q 1012.541722 177.062719 1013.197194 177.642194 
Q 1013.681673 178.069676 1013.681673 179.11463 
Q 1013.681673 179.209626 1013.672173 179.561111 
Q 1012.693715 179.903096 1010.622805 180.150086 
Q 1009.606349 180.27358 1009.102871 180.406575 
Q 1008.4189 180.596566 1007.872674 180.96705 
Q 1007.326447 181.337534 1006.989212 181.950258 
Q 1006.651977 182.562981 1006.651977 183.303949 
Q 1006.651977 184.567395 1007.544938 185.37961 
Q 1008.437899 186.191824 1010.100328 186.191824 
Q 1011.107284 186.191824 1011.985996 185.859339 
Q 1012.864708 185.526853 1013.814667 184.719388 
M 905.965829 182.952464 
Q 906.250817 184.557895 907.281522 185.37486 
Q 908.312228 186.191824 910.278643 186.191824 
Q 911.466091 186.191824 912.406551 185.778592 
Q 913.34701 185.36536 913.845739 184.610143 
Q 914.344467 183.854925 914.344467 182.999962 
Q 914.344467 182.126 913.935985 181.537026 
Q 913.527502 180.948051 912.810283 180.639314 
Q 912.093064 180.330578 910.278643 179.846099 
Q 909.024697 179.504114 908.768208 179.409118 
Q 908.321727 179.228625 908.112736 178.953137 
Q 907.903745 178.687149 907.903745 178.354663 
Q 907.903745 177.832186 908.407224 177.442703 
Q 908.910702 177.053219 910.088651 177.053219 
Q 911.086108 177.053219 911.632334 177.490201 
Q 912.178561 177.927182 912.292556 178.706148 
L 913.964483 178.478158 
Q 913.80299 177.4997 913.375509 176.915475 
Q 912.948027 176.331251 912.050316 175.989265 
Q 911.152605 175.64728 909.965156 175.64728 
Q 909.17669 175.64728 908.48797 175.851521 
Q 907.79925 176.055763 907.400267 176.35025 
Q 906.86829 176.730233 906.559554 177.304959 
Q 906.250817 177.879684 906.250817 178.554155 
Q 906.250817 179.295123 906.626051 179.907846 
Q 907.001284 180.52057 907.728003 180.867305 
Q 908.454722 181.21404 910.33564 181.689019 
Q 911.73208 182.040504 912.083565 182.268494 
Q 912.587043 182.60098 912.587043 183.180455 
Q 912.587043 183.826427 912.017068 184.306156 
Q 911.447092 184.785885 910.269143 184.785885 
Q 909.100694 184.785885 908.449972 184.244409 
Q 907.79925 183.702932 907.656756 182.686476 
L 905.965829 182.952464 
M 931.519725 185.963834 
L 933.229651 185.963834 
L 933.229651 180.454072 
Q 933.229651 178.516156 934.022866 177.822686 
Q 934.816082 177.129216 935.908535 177.129216 
Q 936.592505 177.129216 937.100733 177.437953 
Q 937.608961 177.746689 937.808453 178.264417 
Q 938.007944 178.782145 938.007944 179.8271 
L 938.007944 185.963834 
L 939.71787 185.963834 
L 939.71787 179.760602 
Q 939.71787 178.573154 939.622874 178.098174 
Q 939.470881 177.366706 939.090897 176.834729 
Q 938.710914 176.302752 937.946197 175.975016 
Q 937.18148 175.64728 936.269519 175.64728 
Q 934.17011 175.64728 933.058658 177.309708 
L 933.058658 175.87527 
L 931.519725 175.87527 
L 931.519725 185.963834 
M 967.333176 185.963834 
L 968.86261 185.963834 
L 968.86261 175.87527 
L 967.152684 175.87527 
L 967.152684 181.280537 
Q 967.152684 182.572481 966.872446 183.251702 
Q 966.592208 183.930922 965.917738 184.325155 
Q 965.243267 184.719388 964.4738 184.719388 
Q 963.704333 184.719388 963.181856 184.334655 
Q 962.659378 183.949921 962.497885 183.27545 
Q 962.39339 182.809971 962.39339 181.470529 
L 962.39339 175.87527 
L 960.683464 175.87527 
L 960.683464 182.126 
Q 960.683464 183.218453 960.787959 183.721931 
Q 960.939953 184.472399 961.315186 184.990126 
Q 961.69042 185.507854 962.464637 185.849839 
Q 963.238853 186.191824 964.131815 186.191824 
Q 966.155227 186.191824 967.333176 184.481898 
L 967.333176 185.963834 
M 971.503496 185.963834 
L 973.213422 185.963834 
L 973.213422 172.037436 
L 971.503496 172.037436 
L 971.503496 185.963834 
M 897.967175 185.963834 
L 899.677101 185.963834 
L 899.677101 172.037436 
L 897.967175 172.037436 
L 897.967175 185.963834 
M 893.644862 185.963834 
L 895.354788 185.963834 
L 895.354788 172.037436 
L 893.644862 172.037436 
L 893.644862 185.963834 
M 916.386879 185.963834 
L 918.096805 185.963834 
L 918.096805 175.87527 
L 916.386879 175.87527 
L 916.386879 185.963834 
M 902.336986 185.963834 
L 904.046912 185.963834 
L 904.046912 175.87527 
L 902.336986 175.87527 
L 902.336986 185.963834 
M 916.386879 174.003851 
L 918.096805 174.003851 
L 918.096805 172.037436 
L 916.386879 172.037436 
L 916.386879 174.003851 
M 902.336986 174.003851 
L 904.046912 174.003851 
L 904.046912 172.037436 
L 902.336986 172.037436 
L 902.336986 174.003851 
M 949.730437 184.320405 
L 949.730437 179.532612 
L 952.950798 179.532612 
Q 954.280741 179.532612 954.98846 179.765352 
Q 955.696179 179.998092 956.095162 180.572817 
Q 956.494145 181.147542 956.494145 181.926509 
Q 956.494145 182.59148 956.218657 183.099708 
Q 955.943169 183.607936 955.515687 183.873925 
Q 955.088206 184.139913 954.451733 184.253908 
Q 954.090749 184.320405 953.197787 184.320405 
L 949.730437 184.320405 
M 949.730437 177.889183 
L 949.730437 173.680865 
L 952.513817 173.680865 
Q 954.014752 173.680865 954.632225 173.875607 
Q 955.249699 174.070348 955.582184 174.597576 
Q 955.91467 175.124803 955.91467 175.818273 
Q 955.91467 176.549741 955.558435 177.03422 
Q 955.202201 177.518699 954.499231 177.72769 
Q 953.967254 177.889183 952.741807 177.889183 
L 949.730437 177.889183 
M 1019.191435 180.929052 
Q 1019.191435 178.924639 1019.956151 177.993679 
Q 1020.720868 177.062719 1021.860819 177.062719 
Q 1023.029269 177.062719 1023.827234 178.031677 
Q 1024.6252 179.000635 1024.6252 181.071546 
Q 1024.6252 182.952464 1023.841484 183.869175 
Q 1023.057767 184.785885 1021.936816 184.785885 
Q 1020.825364 184.785885 1020.008399 183.826427 
Q 1019.191435 182.866968 1019.191435 180.929052 
M 921.820644 180.919552 
Q 921.820644 178.981636 922.666107 178.022178 
Q 923.511571 177.062719 924.794015 177.062719 
Q 926.057461 177.062719 926.907674 178.026927 
Q 927.757887 178.991136 927.757887 180.862555 
Q 927.757887 182.847969 926.912424 183.816927 
Q 926.06696 184.785885 924.794015 184.785885 
Q 923.511571 184.785885 922.666107 183.821677 
Q 921.820644 182.857469 921.820644 180.919552 
M 883.983779 180.919552 
Q 883.983779 178.981636 884.829243 178.022178 
Q 885.674706 177.062719 886.957151 177.062719 
Q 888.220596 177.062719 889.07081 178.026927 
Q 889.921023 178.991136 889.921023 180.862555 
Q 889.921023 182.847969 889.075559 183.816927 
Q 888.230096 184.785885 886.957151 184.785885 
Q 885.674706 184.785885 884.829243 183.821677 
Q 883.983779 182.857469 883.983779 180.919552 
M 997.703363 179.950594 
Q 997.78886 178.630151 998.591575 177.841685 
Q 999.39429 177.053219 1000.572239 177.053219 
Q 1001.873683 177.053219 1002.690648 178.041177 
Q 1003.222625 178.677649 1003.33662 179.950594 
L 997.703363 179.950594 
M 1013.672173 180.900553 
L 1013.672173 181.527526 
Q 1013.672173 182.657977 1013.396685 183.237452 
Q 1013.035701 183.98792 1012.266234 184.420151 
Q 1011.496767 184.852382 1010.50881 184.852382 
Q 1009.511353 184.852382 1008.993625 184.396402 
Q 1008.475898 183.940422 1008.475898 183.256451 
Q 1008.475898 182.809971 1008.713387 182.444236 
Q 1008.950877 182.078502 1009.387858 181.88851 
Q 1009.824839 181.698519 1010.879294 181.546525 
Q 1012.741213 181.280537 1013.672173 180.900553 
" clip-path="url(#pfa24697e80)" style="fill: #ff0000"/>
   </g>
   <g id="patch_11">
    <path d="M 96 146.041493 
L 97.956915 146.041493 
L 99.486349 141.823676 
L 105.309598 141.823676 
L 106.934027 146.041493 
L 109.033437 146.041493 
L 103.333683 132.115095 
L 101.348269 132.115095 
L 96 146.041493 
M 110.505873 146.041493 
L 112.348793 146.041493 
L 112.348793 140.379738 
L 115.920639 140.379738 
Q 118.875011 140.379738 120.005462 139.149541 
Q 121.135913 137.919345 121.135913 136.142921 
Q 121.135913 135.107466 120.713182 134.243003 
Q 120.29045 133.378541 119.59698 132.898812 
Q 118.90351 132.419082 117.877554 132.24809 
Q 117.146086 132.115095 115.759146 132.115095 
L 110.505873 132.115095 
L 110.505873 146.041493 
M 100.018326 140.322741 
L 101.54776 136.237917 
Q 102.032239 134.917474 102.298228 133.578032 
Q 102.621214 134.708483 103.286185 136.465907 
L 104.739622 140.322741 
L 100.018326 140.322741 
M 112.348793 138.736309 
L 112.348793 133.758524 
L 115.911139 133.758524 
Q 117.165085 133.758524 117.630565 133.882019 
Q 118.352534 134.08151 118.794265 134.703734 
Q 119.235996 135.325957 119.235996 136.199919 
Q 119.235996 137.406367 118.485528 138.071338 
Q 117.73506 138.736309 115.949138 138.736309 
L 112.348793 138.736309 
" clip-path="url(#pfa24697e80)" style="fill: #ff0000"/>
   </g>
   <g id="patch_12">
    <path d="M 1019.817647 146.041493 
L 1021.660568 146.041493 
L 1021.660568 140.379738 
L 1025.232413 140.379738 
Q 1028.186786 140.379738 1029.317237 139.149541 
Q 1030.447688 137.919345 1030.447688 136.142921 
Q 1030.447688 135.107466 1030.024956 134.243003 
Q 1029.602224 133.378541 1028.908754 132.898812 
Q 1028.215284 132.419082 1027.189329 132.24809 
Q 1026.45786 132.115095 1025.07092 132.115095 
L 1019.817647 132.115095 
L 1019.817647 146.041493 
M 1008.028657 146.041493 
L 1009.871577 146.041493 
L 1009.871577 139.714767 
L 1016.407295 139.714767 
L 1016.407295 138.071338 
L 1009.871577 138.071338 
L 1009.871577 133.758524 
L 1017.423751 133.758524 
L 1017.423751 132.115095 
L 1008.028657 132.115095 
L 1008.028657 146.041493 
M 1021.660568 138.736309 
L 1021.660568 133.758524 
L 1025.222914 133.758524 
Q 1026.47686 133.758524 1026.942339 133.882019 
Q 1027.664308 134.08151 1028.106039 134.703734 
Q 1028.54777 135.325957 1028.54777 136.199919 
Q 1028.54777 137.406367 1027.797303 138.071338 
Q 1027.046835 138.736309 1025.260912 138.736309 
L 1021.660568 138.736309 
" clip-path="url(#pfa24697e80)" style="fill: #ff0000"/>
   </g>
  </g>
 </g>
 <defs>
  <clipPath id="pfa24697e80">
   <rect x="0" y="0" width="1152" height="220.594144"/>
  </clipPath>
 </defs>
</svg>
