<?xml version="1.0" encoding="utf-8" standalone="no"?>
<!DOCTYPE svg PUBLIC "-//W3C//DTD SVG 1.1//EN"
  "http://www.w3.org/Graphics/SVG/1.1/DTD/svg11.dtd">
<svg xmlns:xlink="http://www.w3.org/1999/xlink" width="1152pt" height="333.446326pt" viewBox="0 0 1152 333.446326" xmlns="http://www.w3.org/2000/svg" version="1.1">
 <metadata>
  <rdf:RDF xmlns:dc="http://purl.org/dc/elements/1.1/" xmlns:cc="http://creativecommons.org/ns#" xmlns:rdf="http://www.w3.org/1999/02/22-rdf-syntax-ns#">
   <cc:Work>
    <dc:type rdf:resource="http://purl.org/dc/dcmitype/StillImage"/>
    <dc:date>2026-03-05T10:34:16.786034</dc:date>
    <dc:format>image/svg+xml</dc:format>
    <dc:creator>
     <cc:Agent>
      <dc:title>Matplotlib v3.10.8, https://matplotlib.org/</dc:title>
     </cc:Agent>
    </dc:creator>
   </cc:Work>
  </rdf:RDF>
 </metadata>
 <defs>
  <style type="text/css">*{stroke-linejoin: round; stroke-linecap: butt}</style>
 </defs>
 <g id="figure_1">
  <g id="patch_1">
   <path d="M 0 333.446326 
L 1152 333.446326 
L 1152 0 
L 0 0 
z
" style="fill: #ffffff"/>
  </g>
  <g id="axes_1">
   <g id="patch_2">
    <path d="M 103.576749 184.887936 
L 103.576749 232.018159 
L 133.033138 241.836955 
L 133.033138 276.202743 
L 162.489527 281.112141 
L 1006.906018 281.112141 
L 1056 246.746354 
L 1046.181204 171.141621 
L 103.576749 184.887936 
" clip-path="url(#p6f65326f53)" style="fill: none; stroke: #0000ff; stroke-width: 0.72; stroke-linejoin: miter"/>
   </g>
   <g id="line2d_1">
    <path d="M 123.214341 281.112141 
L 1006.906018 281.112141 
" clip-path="url(#p6f65326f53)" style="fill: none; stroke: #00ffff; stroke-width: 0.72; stroke-linecap: square"/>
   </g>
   <g id="patch_3">
    <path d="M 103.576749 184.887936 
L 299.952677 184.887936 
L 299.952677 86.699972 
L 103.576749 86.699972 
L 103.576749 184.887936 
" clip-path="url(#p6f65326f53)" style="fill: none; stroke: #00ff00; stroke-width: 0.72; stroke-linejoin: miter"/>
   </g>
   <g id="line2d_2">
    <path d="M 162.489527 267.365826 
L 1006.906018 267.365826 
" clip-path="url(#p6f65326f53)" style="fill: none; stroke: #ff0000; stroke-width: 0.72; stroke-linecap: square"/>
   </g>
   <g id="line2d_3">
    <path d="M 162.489527 281.112141 
L 162.489527 171.141621 
" clip-path="url(#p6f65326f53)" style="fill: none; stroke: #ffff00; stroke-width: 0.72; stroke-linecap: square"/>
   </g>
   <g id="line2d_4">
    <path d="M 299.952677 281.112141 
L 299.952677 171.141621 
" clip-path="url(#p6f65326f53)" style="fill: none; stroke: #ffff00; stroke-width: 0.72; stroke-linecap: square"/>
   </g>
   <g id="line2d_5">
    <path d="M 565.06018 281.112141 
L 565.06018 171.141621 
" clip-path="url(#p6f65326f53)" style="fill: none; stroke: #ffff00; stroke-width: 0.72; stroke-linecap: square"/>
   </g>
   <g id="line2d_6">
    <path d="M 936.210684 281.112141 
L 936.210684 171.141621 
" clip-path="url(#p6f65326f53)" style="fill: none; stroke: #ffff00; stroke-width: 0.72; stroke-linecap: square"/>
   </g>
   <g id="patch_4">
    <path d="M 299.952677 192.742973 
L 565.06018 192.742973 
L 565.06018 182.924177 
L 299.952677 182.924177 
L 299.952677 192.742973 
" clip-path="url(#p6f65326f53)" style="fill: none; stroke: #ff00ff; stroke-width: 0.72; stroke-linejoin: miter"/>
   </g>
   <g id="patch_5">
    <path d="M 565.06018 192.742973 
L 936.210684 192.742973 
L 936.210684 182.924177 
L 565.06018 182.924177 
L 565.06018 192.742973 
" clip-path="url(#p6f65326f53)" style="fill: none; stroke: #ff00ff; stroke-width: 0.72; stroke-linejoin: miter"/>
   </g>
   <g id="patch_6">
    <path d="M 172.308323 86.699972 
L 250.858695 86.699972 
L 250.858695 27.787194 
L 172.308323 27.787194 
L 172.308323 86.699972 
" clip-path="url(#p6f65326f53)" style="fill: none; stroke: #808080; stroke-width: 0.72; stroke-linejoin: miter"/>
   </g>
   <g id="patch_7">
    <path d="M 123.214341 276.202743 
L 133.033138 276.202743 
L 133.033138 305.659132 
L 123.214341 305.659132 
L 123.214341 276.202743 
" clip-path="url(#p6f65326f53)" style="fill: none; stroke: #ff0000; stroke-width: 0.72; stroke-linejoin: miter"/>
   </g>
   <g id="patch_8">
    <path d="M 147.761332 261.474548 
L 157.580129 261.474548 
L 157.580129 271.293345 
L 147.761332 271.293345 
L 147.761332 261.474548 
" clip-path="url(#p6f65326f53)" style="fill: none; stroke: #ff0000; stroke-width: 0.72; stroke-linejoin: miter"/>
   </g>
   <g id="patch_9">
    <path d="M 1046.181204 171.141621 
L 1056 171.141621 
L 1046.181204 171.141621 
" clip-path="url(#p6f65326f53)" style="fill: none; stroke: #ffffff; stroke-width: 0.72; stroke-linejoin: miter"/>
   </g>
   <g id="patch_10">
    <path d="M 863.669804 263.674736 
Q 863.267944 265.533341 862.132687 266.477714 
Q 860.997431 267.422087 859.359848 267.422087 
Q 858.013615 267.422087 856.858266 266.728877 
Q 855.702916 266.035667 855.155381 264.634178 
Q 854.607846 263.232689 854.607846 261.35399 
Q 854.607846 259.897245 855.069986 258.525895 
Q 855.532125 257.154546 856.672405 256.340778 
Q 857.812685 255.52701 859.510546 255.52701 
Q 860.987384 255.52701 861.961896 256.260406 
Q 862.936409 256.993802 863.448781 258.601244 
L 865.367666 258.149151 
Q 864.774921 256.109708 863.267944 254.984498 
Q 861.760966 253.859288 859.550732 253.859288 
Q 857.601708 253.859288 855.979195 254.748405 
Q 854.356683 255.637522 853.477612 257.350453 
Q 852.598542 259.063384 852.598542 261.364037 
Q 852.598542 263.473805 853.377147 265.312318 
Q 854.155752 267.150831 855.64766 268.12032 
Q 857.139568 269.089809 859.520593 269.089809 
Q 861.821245 269.089809 863.413618 267.828971 
Q 865.005991 266.568133 865.618829 264.167015 
L 863.669804 263.674736 
M 936.557289 268.838646 
L 942.173292 268.838646 
Q 943.579804 268.838646 944.549293 268.592506 
Q 945.518782 268.346366 946.161759 267.864133 
Q 946.804737 267.381901 947.24176 266.492784 
Q 947.678784 265.603667 947.678784 264.568876 
Q 947.678784 263.282921 946.960458 262.338549 
Q 946.242132 261.394176 944.905945 261.002362 
Q 945.940736 260.48999 946.453108 259.656129 
Q 946.965481 258.822268 946.965481 257.877895 
Q 946.965481 256.863197 946.387806 255.933894 
Q 945.810131 255.004591 944.79041 254.557521 
Q 943.770688 254.110451 942.082873 254.110451 
L 936.557289 254.110451 
L 936.557289 268.838646 
M 1017.682917 268.838646 
L 1019.360686 268.838646 
L 1019.360686 254.110451 
L 1017.562359 254.110451 
L 1017.562359 259.394919 
Q 1017.090173 258.741896 1016.336684 258.335012 
Q 1015.583195 257.928128 1014.618729 257.928128 
Q 1013.302636 257.928128 1012.237705 258.621337 
Q 1011.172774 259.314547 1010.640309 260.615571 
Q 1010.107843 261.916595 1010.107843 263.513991 
Q 1010.107843 265.151574 1010.695564 266.412412 
Q 1011.283286 267.67325 1012.35324 268.376506 
Q 1013.423194 269.079762 1014.699102 269.079762 
Q 1016.668219 269.079762 1017.682917 267.492412 
L 1017.682917 268.838646 
M 966.154329 268.838646 
L 967.962702 268.838646 
L 967.962702 264.609062 
L 969.23861 263.383387 
L 972.764938 268.838646 
L 974.995265 268.838646 
L 970.504471 262.127572 
L 974.583357 258.169244 
L 972.242519 258.169244 
L 967.962702 262.50934 
L 967.962702 254.110451 
L 966.154329 254.110451 
L 966.154329 268.838646 
M 976.431917 268.838646 
L 978.24029 268.838646 
L 978.24029 263.001619 
Q 978.24029 261.745804 978.541685 261.032502 
Q 978.843081 260.319199 979.55136 259.902268 
Q 980.25964 259.485338 981.063361 259.485338 
Q 982.138338 259.485338 982.72606 260.103199 
Q 983.313781 260.721059 983.313781 262.077339 
L 983.313781 268.838646 
L 985.122154 268.838646 
L 985.122154 262.077339 
Q 985.122154 260.510083 984.74541 259.686268 
Q 984.368665 258.862454 983.494618 258.395291 
Q 982.620571 257.928128 981.435082 257.928128 
Q 979.506151 257.928128 978.24029 259.394919 
L 978.24029 254.110451 
L 976.431917 254.110451 
L 976.431917 268.838646 
M 907.131039 263.503945 
Q 907.131039 266.206458 908.512435 267.64311 
Q 909.893831 269.079762 912.134205 269.079762 
Q 913.530671 269.079762 914.711136 268.426738 
Q 915.891602 267.773715 916.509463 266.593249 
Q 917.127324 265.412783 917.127324 263.353247 
Q 917.127324 260.811478 915.730858 259.369803 
Q 914.334392 257.928128 912.134205 257.928128 
Q 910.155041 257.928128 908.778668 259.113617 
Q 907.131039 260.540222 907.131039 263.503945 
M 867.11576 263.503945 
Q 867.11576 266.206458 868.497156 267.64311 
Q 869.878552 269.079762 872.118926 269.079762 
Q 873.515392 269.079762 874.695857 268.426738 
Q 875.876323 267.773715 876.494184 266.593249 
Q 877.112045 265.412783 877.112045 263.353247 
Q 877.112045 260.811478 875.715579 259.369803 
Q 874.319113 257.928128 872.118926 257.928128 
Q 870.139762 257.928128 868.763389 259.113617 
Q 867.11576 260.540222 867.11576 263.503945 
M 995.178718 265.402737 
Q 994.766811 266.54804 994.063555 267.070459 
Q 993.360298 267.592877 992.365693 267.592877 
Q 991.029506 267.592877 990.135366 266.658551 
Q 989.241226 265.724225 989.140761 263.966085 
L 997.097603 263.966085 
Q 997.107649 263.644596 997.107649 263.483852 
Q 997.107649 260.841618 995.75137 259.384873 
Q 994.39509 257.928128 992.255182 257.928128 
Q 990.044948 257.928128 988.658528 259.415012 
Q 987.272109 260.901897 987.272109 263.594363 
Q 987.272109 266.196412 988.643459 267.638087 
Q 990.014808 269.079762 992.355647 269.079762 
Q 994.214252 269.079762 995.409788 268.175575 
Q 996.605324 267.271389 997.04737 265.633807 
L 995.178718 265.402737 
M 1006.28012 267.522552 
Q 1006.360492 268.276041 1006.641795 268.838646 
L 1008.53054 268.838646 
Q 1008.188958 268.225808 1008.073423 267.557715 
Q 1007.957888 266.889621 1007.957888 264.367945 
L 1007.957888 261.956781 
Q 1007.957888 260.751199 1007.86747 260.289059 
Q 1007.706725 259.545617 1007.304865 259.058361 
Q 1006.903004 258.571105 1006.04905 258.249616 
Q 1005.195096 257.928128 1003.82877 257.928128 
Q 1002.452397 257.928128 1001.407559 258.304872 
Q 1000.362721 258.681616 999.810163 259.379849 
Q 999.257604 260.078082 999.016488 261.213339 
L 1000.784675 261.454455 
Q 1001.076024 260.319199 1001.683838 259.872129 
Q 1002.291652 259.425059 1003.56756 259.425059 
Q 1004.933887 259.425059 1005.627096 260.037896 
Q 1006.139469 260.48999 1006.139469 261.595107 
Q 1006.139469 261.695572 1006.129422 262.067293 
Q 1005.094631 262.428967 1002.90449 262.690177 
Q 1001.829513 262.820782 1001.297047 262.961433 
Q 1000.573698 263.162363 999.996023 263.554177 
Q 999.418348 263.945992 999.061697 264.593992 
Q 998.705046 265.241992 998.705046 266.025621 
Q 998.705046 267.361808 999.649418 268.220785 
Q 1000.593791 269.079762 1002.351932 269.079762 
Q 1003.416862 269.079762 1004.346165 268.728134 
Q 1005.275468 268.376506 1006.28012 267.522552 
M 892.222007 265.6539 
Q 892.523403 267.351761 893.61345 268.215762 
Q 894.703497 269.079762 896.783126 269.079762 
Q 898.038941 269.079762 899.033546 268.642739 
Q 900.028151 268.205715 900.555593 267.407017 
Q 901.083036 266.608319 901.083036 265.704132 
Q 901.083036 264.779853 900.651035 264.156968 
Q 900.219035 263.534084 899.460523 263.207573 
Q 898.702011 262.881061 896.783126 262.368688 
Q 895.456986 262.007014 895.18573 261.906549 
Q 894.713543 261.715665 894.49252 261.424316 
Q 894.271497 261.143013 894.271497 260.791385 
Q 894.271497 260.238827 894.803962 259.826919 
Q 895.336428 259.415012 896.582196 259.415012 
Q 897.63708 259.415012 898.214755 259.877152 
Q 898.79243 260.339292 898.912988 261.163106 
L 900.681175 260.92199 
Q 900.510384 259.887199 900.058291 259.269338 
Q 899.606197 258.651477 898.656802 258.289802 
Q 897.707406 257.928128 896.451591 257.928128 
Q 895.61773 257.928128 894.889357 258.144128 
Q 894.160985 258.360128 893.739031 258.67157 
Q 893.176426 259.073431 892.849914 259.681245 
Q 892.523403 260.289059 892.523403 261.002362 
Q 892.523403 261.78599 892.92024 262.433991 
Q 893.317078 263.081991 894.085636 263.448689 
Q 894.854195 263.815387 896.843405 264.317713 
Q 898.320243 264.689434 898.691964 264.93055 
Q 899.22443 265.282178 899.22443 265.895016 
Q 899.22443 266.578179 898.621639 267.085528 
Q 898.018848 267.592877 896.77308 267.592877 
Q 895.537358 267.592877 894.849171 267.020226 
Q 894.160985 266.447574 894.010287 265.372597 
L 892.222007 265.6539 
M 919.247139 268.838646 
L 921.055512 268.838646 
L 921.055512 263.011665 
Q 921.055512 260.962176 921.894396 260.22878 
Q 922.733281 259.495384 923.88863 259.495384 
Q 924.611979 259.495384 925.149468 259.821896 
Q 925.686957 260.148408 925.897934 260.695943 
Q 926.108911 261.243478 926.108911 262.348595 
L 926.108911 268.838646 
L 927.917284 268.838646 
L 927.917284 262.27827 
Q 927.917284 261.022455 927.816818 260.520129 
Q 927.656074 259.746547 927.254214 259.183942 
Q 926.852353 258.621337 926.043608 258.274732 
Q 925.234864 257.928128 924.270398 257.928128 
Q 922.050117 257.928128 920.874675 259.686268 
L 920.874675 258.169244 
L 919.247139 258.169244 
L 919.247139 268.838646 
M 957.12251 268.838646 
L 958.739999 268.838646 
L 958.739999 258.169244 
L 956.931626 258.169244 
L 956.931626 263.885712 
Q 956.931626 265.252039 956.635254 265.970365 
Q 956.338882 266.688691 955.625579 267.105621 
Q 954.912276 267.522552 954.098508 267.522552 
Q 953.28474 267.522552 952.732182 267.115668 
Q 952.179623 266.708784 952.008833 265.995481 
Q 951.898321 265.503202 951.898321 264.086643 
L 951.898321 258.169244 
L 950.089948 258.169244 
L 950.089948 264.779853 
Q 950.089948 265.935202 950.200459 266.467667 
Q 950.361204 267.261342 950.758041 267.808878 
Q 951.154879 268.356413 951.97367 268.718087 
Q 952.792461 269.079762 953.736834 269.079762 
Q 955.876742 269.079762 957.12251 267.271389 
L 957.12251 268.838646 
M 961.532931 268.838646 
L 963.341304 268.838646 
L 963.341304 254.110451 
L 961.532931 254.110451 
L 961.532931 268.838646 
M 883.762839 268.838646 
L 885.571213 268.838646 
L 885.571213 254.110451 
L 883.762839 254.110451 
L 883.762839 268.838646 
M 879.191674 268.838646 
L 881.000047 268.838646 
L 881.000047 254.110451 
L 879.191674 254.110451 
L 879.191674 268.838646 
M 903.243037 268.838646 
L 905.05141 268.838646 
L 905.05141 258.169244 
L 903.243037 258.169244 
L 903.243037 268.838646 
M 888.384237 268.838646 
L 890.192611 268.838646 
L 890.192611 258.169244 
L 888.384237 258.169244 
L 888.384237 268.838646 
M 903.243037 256.19008 
L 905.05141 256.19008 
L 905.05141 254.110451 
L 903.243037 254.110451 
L 903.243037 256.19008 
M 888.384237 256.19008 
L 890.192611 256.19008 
L 890.192611 254.110451 
L 888.384237 254.110451 
L 888.384237 256.19008 
M 938.506313 267.100598 
L 938.506313 262.037153 
L 941.912083 262.037153 
Q 943.318595 262.037153 944.067061 262.283293 
Q 944.815526 262.529433 945.23748 263.137247 
Q 945.659434 263.745061 945.659434 264.568876 
Q 945.659434 265.272132 945.368085 265.809621 
Q 945.076736 266.347109 944.624642 266.628412 
Q 944.172549 266.909714 943.499432 267.030272 
Q 943.117665 267.100598 942.173292 267.100598 
L 938.506313 267.100598 
M 938.506313 260.299106 
L 938.506313 255.848499 
L 941.449943 255.848499 
Q 943.037292 255.848499 943.690316 256.054452 
Q 944.34334 256.260406 944.694968 256.817987 
Q 945.046596 257.375569 945.046596 258.108965 
Q 945.046596 258.882547 944.669852 259.394919 
Q 944.293107 259.907292 943.549665 260.128315 
Q 942.98706 260.299106 941.691059 260.299106 
L 938.506313 260.299106 
M 1011.966449 263.513991 
Q 1011.966449 261.394176 1012.775193 260.409617 
Q 1013.583938 259.425059 1014.78952 259.425059 
Q 1016.025242 259.425059 1016.869149 260.449804 
Q 1017.713057 261.474548 1017.713057 263.664689 
Q 1017.713057 265.6539 1016.884219 266.623389 
Q 1016.055381 267.592877 1014.869892 267.592877 
Q 1013.69445 267.592877 1012.830449 266.578179 
Q 1011.966449 265.563481 1011.966449 263.513991 
M 908.989645 263.503945 
Q 908.989645 261.454455 909.883785 260.439757 
Q 910.777925 259.425059 912.134205 259.425059 
Q 913.470392 259.425059 914.369555 260.44478 
Q 915.268718 261.464502 915.268718 263.443666 
Q 915.268718 265.543388 914.374578 266.568133 
Q 913.480438 267.592877 912.134205 267.592877 
Q 910.777925 267.592877 909.883785 266.573156 
Q 908.989645 265.553434 908.989645 263.503945 
M 868.974366 263.503945 
Q 868.974366 261.454455 869.868506 260.439757 
Q 870.762646 259.425059 872.118926 259.425059 
Q 873.455112 259.425059 874.354276 260.44478 
Q 875.253439 261.464502 875.253439 263.443666 
Q 875.253439 265.543388 874.359299 266.568133 
Q 873.465159 267.592877 872.118926 267.592877 
Q 870.762646 267.592877 869.868506 266.573156 
Q 868.974366 265.553434 868.974366 263.503945 
M 989.241226 262.4792 
Q 989.331645 261.082734 990.180576 260.248873 
Q 991.029506 259.415012 992.275275 259.415012 
Q 993.651647 259.415012 994.515648 260.45985 
Q 995.078253 261.132967 995.198811 262.4792 
L 989.241226 262.4792 
M 1006.129422 263.483852 
L 1006.129422 264.146922 
Q 1006.129422 265.342458 1005.838073 265.955295 
Q 1005.456305 266.74897 1004.642538 267.206087 
Q 1003.82877 267.663203 1002.783932 267.663203 
Q 1001.729048 267.663203 1001.181512 267.18097 
Q 1000.633977 266.698737 1000.633977 265.975388 
Q 1000.633977 265.503202 1000.88514 265.116411 
Q 1001.136303 264.72962 1001.598443 264.52869 
Q 1002.060583 264.327759 1003.175746 264.167015 
Q 1005.144863 263.885712 1006.129422 263.483852 
" clip-path="url(#p6f65326f53)" style="fill: #ff0000"/>
   </g>
   <g id="patch_11">
    <path d="M 309.019659 268.838646 
L 310.968683 268.838646 
L 310.968683 262.298363 
L 313.22915 262.298363 
Q 313.982638 262.298363 314.314173 262.368688 
Q 314.766267 262.4792 315.20329 262.760503 
Q 315.640314 263.041805 316.192872 263.745061 
Q 316.745431 264.448317 317.599385 265.774458 
L 319.548409 268.838646 
L 321.999759 268.838646 
L 319.437897 264.830085 
Q 318.674362 263.654643 317.820408 262.871014 
Q 317.418547 262.50934 316.644965 262.137618 
Q 318.764781 261.846269 319.779479 260.771292 
Q 320.794177 259.696315 320.794177 258.129058 
Q 320.794177 256.913429 320.18134 255.908778 
Q 319.568502 254.904126 318.543757 254.507288 
Q 317.519013 254.110451 315.549895 254.110451 
L 309.019659 254.110451 
L 309.019659 268.838646 
M 239.246595 268.838646 
L 250.237485 268.838646 
L 250.237485 267.100598 
L 241.195619 267.100598 
L 241.195619 262.087386 
L 249.343345 262.087386 
L 249.343345 260.359385 
L 241.195619 260.359385 
L 241.195619 255.848499 
L 249.895903 255.848499 
L 249.895903 254.110451 
L 239.246595 254.110451 
L 239.246595 268.838646 
M 346.503215 268.838646 
L 348.311589 268.838646 
L 348.311589 263.303014 
Q 348.311589 261.846269 348.602938 261.072688 
Q 348.894287 260.299106 349.542287 259.897245 
Q 350.190287 259.495384 350.953823 259.495384 
Q 351.958474 259.495384 352.400521 260.098175 
Q 352.842568 260.700966 352.842568 261.906549 
L 352.842568 268.838646 
L 354.650941 268.838646 
L 354.650941 262.639944 
Q 354.650941 260.992315 355.394383 260.24385 
Q 356.137826 259.495384 357.263036 259.495384 
Q 357.88592 259.495384 358.34806 259.786733 
Q 358.810199 260.078082 358.986013 260.555292 
Q 359.161827 261.032502 359.161827 262.117525 
L 359.161827 268.838646 
L 360.960154 268.838646 
L 360.960154 261.514734 
Q 360.960154 259.686268 360.1062 258.807198 
Q 359.252246 257.928128 357.664896 257.928128 
Q 355.6355 257.928128 354.369639 259.79678 
Q 354.058197 258.912686 353.299684 258.420407 
Q 352.541172 257.928128 351.355683 257.928128 
Q 350.290752 257.928128 349.456892 258.405337 
Q 348.623031 258.882547 348.120705 259.666175 
L 348.120705 258.169244 
L 346.503215 258.169244 
L 346.503215 268.838646 
M 263.81033 269.722739 
Q 263.770144 271.45074 264.945587 272.309717 
Q 266.121029 273.168695 268.029867 273.168695 
Q 269.63731 273.168695 270.737404 272.565904 
Q 271.837498 271.963113 272.344847 270.923298 
Q 272.852196 269.883483 272.852196 267.391947 
L 272.852196 258.169244 
L 271.184474 258.169244 
L 271.184474 259.455198 
Q 269.958799 257.928128 268.070054 257.928128 
Q 266.653495 257.928128 265.603633 258.631384 
Q 264.553772 259.33464 264.001214 260.625618 
Q 263.448655 261.916595 263.448655 263.443666 
Q 263.448655 265.663946 264.654238 267.251296 
Q 265.85982 268.838646 268.060007 268.838646 
Q 269.828194 268.838646 271.013683 267.44218 
Q 271.02373 269.210367 270.883078 269.762925 
Q 270.641962 270.667112 269.958799 271.169438 
Q 269.275636 271.671764 268.019821 271.671764 
Q 266.854425 271.671764 266.181308 271.169438 
Q 265.678982 270.797717 265.568471 269.983949 
L 263.81033 269.722739 
M 322.944132 263.503945 
Q 322.944132 266.206458 324.325528 267.64311 
Q 325.706924 269.079762 327.947298 269.079762 
Q 329.343764 269.079762 330.524229 268.426738 
Q 331.704695 267.773715 332.322556 266.593249 
Q 332.940417 265.412783 332.940417 263.353247 
Q 332.940417 260.811478 331.543951 259.369803 
Q 330.147485 257.928128 327.947298 257.928128 
Q 325.968134 257.928128 324.591761 259.113617 
Q 322.944132 260.540222 322.944132 263.503945 
M 334.387115 263.503945 
Q 334.387115 266.206458 335.768511 267.64311 
Q 337.149908 269.079762 339.390281 269.079762 
Q 340.786747 269.079762 341.967213 268.426738 
Q 343.147679 267.773715 343.765539 266.593249 
Q 344.3834 265.412783 344.3834 263.353247 
Q 344.3834 260.811478 342.986934 259.369803 
Q 341.590468 257.928128 339.390281 257.928128 
Q 337.411117 257.928128 336.034744 259.113617 
Q 334.387115 260.540222 334.387115 263.503945 
M 298.902816 265.402737 
Q 298.490908 266.54804 297.787652 267.070459 
Q 297.084396 267.592877 296.089791 267.592877 
Q 294.753604 267.592877 293.859464 266.658551 
Q 292.965324 265.724225 292.864859 263.966085 
L 300.8217 263.966085 
Q 300.831747 263.644596 300.831747 263.483852 
Q 300.831747 260.841618 299.475467 259.384873 
Q 298.119187 257.928128 295.979279 257.928128 
Q 293.769045 257.928128 292.382626 259.415012 
Q 290.996206 260.901897 290.996206 263.594363 
Q 290.996206 266.196412 292.367556 267.638087 
Q 293.738906 269.079762 296.079744 269.079762 
Q 297.93835 269.079762 299.133886 268.175575 
Q 300.329421 267.271389 300.771468 265.633807 
L 298.902816 265.402737 
M 280.156014 268.838646 
L 281.964387 268.838646 
L 281.964387 263.011665 
Q 281.964387 260.962176 282.803271 260.22878 
Q 283.642156 259.495384 284.797505 259.495384 
Q 285.520854 259.495384 286.058343 259.821896 
Q 286.595832 260.148408 286.806809 260.695943 
Q 287.017785 261.243478 287.017785 262.348595 
L 287.017785 268.838646 
L 288.826159 268.838646 
L 288.826159 262.27827 
Q 288.826159 261.022455 288.725693 260.520129 
Q 288.564949 259.746547 288.163088 259.183942 
Q 287.761228 258.621337 286.952483 258.274732 
Q 286.143738 257.928128 285.179273 257.928128 
Q 282.958992 257.928128 281.78355 259.686268 
L 281.78355 258.169244 
L 280.156014 258.169244 
L 280.156014 268.838646 
M 252.698882 268.838646 
L 254.507255 268.838646 
L 254.507255 263.011665 
Q 254.507255 260.962176 255.346139 260.22878 
Q 256.185023 259.495384 257.340373 259.495384 
Q 258.063722 259.495384 258.601211 259.821896 
Q 259.138699 260.148408 259.349676 260.695943 
Q 259.560653 261.243478 259.560653 262.348595 
L 259.560653 268.838646 
L 261.369026 268.838646 
L 261.369026 262.27827 
Q 261.369026 261.022455 261.268561 260.520129 
Q 261.107817 259.746547 260.705956 259.183942 
Q 260.304096 258.621337 259.495351 258.274732 
Q 258.686606 257.928128 257.722141 257.928128 
Q 255.50186 257.928128 254.326418 259.686268 
L 254.326418 258.169244 
L 252.698882 258.169244 
L 252.698882 268.838646 
M 275.594895 268.838646 
L 277.403268 268.838646 
L 277.403268 258.169244 
L 275.594895 258.169244 
L 275.594895 268.838646 
M 275.594895 256.19008 
L 277.403268 256.19008 
L 277.403268 254.110451 
L 275.594895 254.110451 
L 275.594895 256.19008 
M 310.968683 260.610548 
L 310.968683 255.737987 
L 315.630267 255.737987 
Q 317.26785 255.737987 318.026362 256.411103 
Q 318.784874 257.08422 318.784874 258.129058 
Q 318.784874 258.842361 318.39306 259.450175 
Q 318.001245 260.057989 317.247757 260.334269 
Q 316.494268 260.610548 315.158081 260.610548 
L 310.968683 260.610548 
M 265.307261 263.313061 
Q 265.307261 261.38413 266.151169 260.404594 
Q 266.995076 259.425059 268.200658 259.425059 
Q 269.426333 259.425059 270.295357 260.419664 
Q 271.164381 261.414269 271.164381 263.37334 
Q 271.164381 265.42283 270.320473 266.382272 
Q 269.476566 267.341715 268.230798 267.341715 
Q 266.974983 267.341715 266.141122 266.377249 
Q 265.307261 265.412783 265.307261 263.313061 
M 324.802738 263.503945 
Q 324.802738 261.454455 325.696878 260.439757 
Q 326.591018 259.425059 327.947298 259.425059 
Q 329.283484 259.425059 330.182648 260.44478 
Q 331.081811 261.464502 331.081811 263.443666 
Q 331.081811 265.543388 330.187671 266.568133 
Q 329.293531 267.592877 327.947298 267.592877 
Q 326.591018 267.592877 325.696878 266.573156 
Q 324.802738 265.553434 324.802738 263.503945 
M 336.245721 263.503945 
Q 336.245721 261.454455 337.139861 260.439757 
Q 338.034001 259.425059 339.390281 259.425059 
Q 340.726468 259.425059 341.625631 260.44478 
Q 342.524794 261.464502 342.524794 263.443666 
Q 342.524794 265.543388 341.630654 266.568133 
Q 340.736514 267.592877 339.390281 267.592877 
Q 338.034001 267.592877 337.139861 266.573156 
Q 336.245721 265.553434 336.245721 263.503945 
M 292.965324 262.4792 
Q 293.055742 261.082734 293.904673 260.248873 
Q 294.753604 259.415012 295.999372 259.415012 
Q 297.375745 259.415012 298.239745 260.45985 
Q 298.80235 261.132967 298.922909 262.4792 
L 292.965324 262.4792 
" clip-path="url(#p6f65326f53)" style="fill: #ff0000"/>
   </g>
   <g id="patch_12">
    <path d="M 99.641863 192.252034 
L 101.711445 192.252034 
L 103.328934 187.79138 
L 109.48745 187.79138 
L 111.205404 192.252034 
L 113.425685 192.252034 
L 107.397774 177.523839 
L 105.298052 177.523839 
L 99.641863 192.252034 
M 114.982895 192.252034 
L 116.931919 192.252034 
L 116.931919 186.264309 
L 120.70941 186.264309 
Q 123.833877 186.264309 125.029412 184.963285 
Q 126.224948 183.662261 126.224948 181.783562 
Q 126.224948 180.688492 125.777878 179.774259 
Q 125.330808 178.860026 124.597412 178.352677 
Q 123.864016 177.845328 122.778992 177.66449 
Q 122.00541 177.523839 120.538619 177.523839 
L 114.982895 177.523839 
L 114.982895 192.252034 
M 103.891539 186.20403 
L 105.509029 181.884028 
Q 106.021401 180.487562 106.302704 179.071003 
Q 106.644285 180.266538 107.347541 182.125144 
L 108.884659 186.20403 
L 103.891539 186.20403 
M 116.931919 184.526262 
L 116.931919 179.261887 
L 120.699363 179.261887 
Q 122.025504 179.261887 122.517783 179.392491 
Q 123.281318 179.603468 123.748481 180.261515 
Q 124.215644 180.919562 124.215644 181.843842 
Q 124.215644 183.119749 123.421969 183.823005 
Q 122.628295 184.526262 120.739549 184.526262 
L 116.931919 184.526262 
" clip-path="url(#p6f65326f53)" style="fill: #ff0000"/>
   </g>
   <g id="patch_13">
    <path d="M 1007.915693 192.252034 
L 1009.864717 192.252034 
L 1009.864717 186.264309 
L 1013.642208 186.264309 
Q 1016.766675 186.264309 1017.96221 184.963285 
Q 1019.157746 183.662261 1019.157746 181.783562 
Q 1019.157746 180.688492 1018.710676 179.774259 
Q 1018.263606 178.860026 1017.53021 178.352677 
Q 1016.796814 177.845328 1015.711791 177.66449 
Q 1014.938209 177.523839 1013.471417 177.523839 
L 1007.915693 177.523839 
L 1007.915693 192.252034 
M 995.447965 192.252034 
L 997.396989 192.252034 
L 997.396989 185.561053 
L 1004.308993 185.561053 
L 1004.308993 183.823005 
L 997.396989 183.823005 
L 997.396989 179.261887 
L 1005.383971 179.261887 
L 1005.383971 177.523839 
L 995.447965 177.523839 
L 995.447965 192.252034 
M 1009.864717 184.526262 
L 1009.864717 179.261887 
L 1013.632161 179.261887 
Q 1014.958302 179.261887 1015.450581 179.392491 
Q 1016.214116 179.603468 1016.681279 180.261515 
Q 1017.148443 180.919562 1017.148443 181.843842 
Q 1017.148443 183.119749 1016.354768 183.823005 
Q 1015.561093 184.526262 1013.672347 184.526262 
L 1009.864717 184.526262 
" clip-path="url(#p6f65326f53)" style="fill: #ff0000"/>
   </g>
   <g id="patch_14">
    <path d="M 135.216581 136.462383 
Q 135.256767 137.939221 136.025326 139.10964 
Q 136.793884 140.280059 138.145141 140.862757 
Q 139.496397 141.445455 141.495654 141.445455 
Q 143.072958 141.445455 144.333796 140.867781 
Q 145.594633 140.290106 146.26775 139.250291 
Q 146.940867 138.210477 146.940867 137.035034 
Q 146.940867 135.849545 146.328029 134.940335 
Q 145.715192 134.031125 144.429237 133.438381 
Q 143.545144 133.03652 141.169143 132.499031 
Q 138.793141 131.961543 138.230536 131.44917 
Q 137.657885 130.936798 137.657885 130.143123 
Q 137.657885 129.22889 138.466629 128.58089 
Q 139.275374 127.932889 141.043561 127.932889 
Q 142.741423 127.932889 143.610446 128.646192 
Q 144.47947 129.359495 144.630168 130.755961 
L 146.49882 130.615309 
Q 146.448587 129.319309 145.775471 128.294564 
Q 145.102354 127.269819 143.851563 126.742377 
Q 142.600771 126.214935 140.963189 126.214935 
Q 139.476304 126.214935 138.260676 126.717261 
Q 137.045047 127.219587 136.412117 128.189075 
Q 135.779186 129.158564 135.779186 130.273728 
Q 135.779186 131.288426 136.296582 132.107217 
Q 136.813977 132.926008 137.868862 133.478567 
Q 138.682629 133.910567 140.712026 134.397823 
Q 142.741423 134.885079 143.334167 135.116149 
Q 144.258447 135.467777 144.660307 135.985173 
Q 145.062168 136.502569 145.062168 137.195778 
Q 145.062168 137.878942 144.645238 138.456616 
Q 144.228307 139.034291 143.374353 139.365826 
Q 142.520399 139.697361 141.405236 139.697361 
Q 140.149421 139.697361 139.144769 139.260338 
Q 138.140118 138.823314 137.662908 138.115035 
Q 137.185698 137.406755 137.055094 136.301638 
L 135.216581 136.462383 
M 160.815107 145.283225 
L 162.623481 145.283225 
L 162.623481 140.089175 
Q 163.08562 140.671873 163.803946 141.053641 
Q 164.522272 141.435409 165.426459 141.435409 
Q 166.662181 141.435409 167.782367 140.737176 
Q 168.902554 140.038943 169.490275 138.727872 
Q 170.077997 137.416802 170.077997 135.779219 
Q 170.077997 134.252149 169.545531 132.971218 
Q 169.013066 131.690287 167.968228 130.987031 
Q 166.92339 130.283774 165.557064 130.283774 
Q 164.512226 130.283774 163.77883 130.690658 
Q 163.045434 131.097542 162.462736 131.91131 
L 162.462736 130.524891 
L 160.815107 130.524891 
L 160.815107 145.283225 
M 266.454239 137.758383 
Q 266.042331 138.903686 265.339075 139.426105 
Q 264.635819 139.948524 263.641214 139.948524 
Q 262.305027 139.948524 261.410887 139.014198 
Q 260.516747 138.079872 260.416282 136.321731 
L 268.373123 136.321731 
Q 268.38317 136.000243 268.38317 135.839499 
Q 268.38317 133.197264 267.02689 131.740519 
Q 265.67061 130.283774 263.530702 130.283774 
Q 261.320468 130.283774 259.934049 131.770659 
Q 258.547629 133.257544 258.547629 135.95001 
Q 258.547629 138.552058 259.918979 139.993733 
Q 261.290329 141.435409 263.631167 141.435409 
Q 265.489773 141.435409 266.685309 140.531222 
Q 267.880844 139.627036 268.322891 137.989453 
L 266.454239 137.758383 
M 179.561909 137.758383 
Q 179.150002 138.903686 178.446746 139.426105 
Q 177.743489 139.948524 176.748884 139.948524 
Q 175.412697 139.948524 174.518557 139.014198 
Q 173.624417 138.079872 173.523952 136.321731 
L 181.480794 136.321731 
Q 181.49084 136.000243 181.49084 135.839499 
Q 181.49084 133.197264 180.134561 131.740519 
Q 178.778281 130.283774 176.638372 130.283774 
Q 174.428139 130.283774 173.041719 131.770659 
Q 171.6553 133.257544 171.6553 135.95001 
Q 171.6553 138.552058 173.026649 139.993733 
Q 174.397999 141.435409 176.738838 141.435409 
Q 178.597443 141.435409 179.792979 140.531222 
Q 180.988515 139.627036 181.430561 137.989453 
L 179.561909 137.758383 
M 231.813846 137.286197 
Q 231.622963 138.642477 230.90966 139.295501 
Q 230.196357 139.948524 229.131426 139.948524 
Q 227.805286 139.948524 226.981472 138.974012 
Q 226.157657 137.9995 226.157657 135.849545 
Q 226.157657 133.72973 227.011611 132.750194 
Q 227.865565 131.770659 229.231891 131.770659 
Q 230.136078 131.770659 230.774032 132.313171 
Q 231.411986 132.855683 231.663149 133.93066 
L 233.421289 133.659404 
Q 233.109847 132.041915 232.00473 131.162845 
Q 230.899613 130.283774 229.161566 130.283774 
Q 227.785193 130.283774 226.614774 130.931775 
Q 225.444354 131.579775 224.871703 132.875776 
Q 224.299051 134.171777 224.299051 135.899778 
Q 224.299051 138.572151 225.630215 140.00378 
Q 226.961378 141.435409 229.151519 141.435409 
Q 230.899613 141.435409 232.100172 140.395594 
Q 233.300731 139.35578 233.59208 137.517267 
L 231.813846 137.286197 
M 189.82945 138.009546 
Q 190.130845 139.707408 191.220893 140.571408 
Q 192.31094 141.435409 194.390569 141.435409 
Q 195.646384 141.435409 196.640989 140.998385 
Q 197.635594 140.561362 198.163036 139.762664 
Q 198.690478 138.963965 198.690478 138.059779 
Q 198.690478 137.135499 198.258478 136.512615 
Q 197.826478 135.889731 197.067966 135.563219 
Q 196.309454 135.236707 194.390569 134.724335 
Q 193.064429 134.36266 192.793173 134.262195 
Q 192.320986 134.071311 192.099963 133.779962 
Q 191.878939 133.49866 191.878939 133.147032 
Q 191.878939 132.594473 192.411405 132.182566 
Q 192.94387 131.770659 194.189638 131.770659 
Q 195.244523 131.770659 195.822198 132.232799 
Q 196.399872 132.694939 196.520431 133.518753 
L 198.288618 133.277637 
Q 198.117827 132.242845 197.665734 131.624984 
Q 197.21364 131.007124 196.264244 130.645449 
Q 195.314848 130.283774 194.059034 130.283774 
Q 193.225173 130.283774 192.4968 130.499774 
Q 191.768428 130.715775 191.346474 131.027217 
Q 190.783869 131.429077 190.457357 132.036892 
Q 190.130845 132.644706 190.130845 133.358009 
Q 190.130845 134.141637 190.527683 134.789637 
Q 190.92452 135.437638 191.693079 135.804336 
Q 192.461637 136.171034 194.450848 136.673359 
Q 195.927686 137.045081 196.299407 137.286197 
Q 196.831873 137.637825 196.831873 138.250663 
Q 196.831873 138.933826 196.229082 139.441175 
Q 195.62629 139.948524 194.380522 139.948524 
Q 193.144801 139.948524 192.456614 139.375873 
Q 191.768428 138.803221 191.61773 137.728244 
L 189.82945 138.009546 
M 247.848088 141.194292 
L 249.465578 141.194292 
L 249.465578 130.524891 
L 247.657204 130.524891 
L 247.657204 136.241359 
Q 247.657204 137.607686 247.360832 138.326012 
Q 247.06446 139.044338 246.351157 139.461268 
Q 245.637854 139.878199 244.824087 139.878199 
Q 244.010319 139.878199 243.45776 139.471315 
Q 242.905202 139.064431 242.734411 138.351128 
Q 242.623899 137.858849 242.623899 136.44229 
L 242.623899 130.524891 
L 240.815526 130.524891 
L 240.815526 137.135499 
Q 240.815526 138.290849 240.926038 138.823314 
Q 241.086782 139.616989 241.483619 140.164524 
Q 241.880457 140.712059 242.699248 141.073734 
Q 243.518039 141.435409 244.462412 141.435409 
Q 246.60232 141.435409 247.848088 139.627036 
L 247.848088 141.194292 
M 220.401003 141.194292 
L 222.018492 141.194292 
L 222.018492 130.524891 
L 220.210119 130.524891 
L 220.210119 136.241359 
Q 220.210119 137.607686 219.913746 138.326012 
Q 219.617374 139.044338 218.904071 139.461268 
Q 218.190769 139.878199 217.377001 139.878199 
Q 216.563233 139.878199 216.010674 139.471315 
Q 215.458116 139.064431 215.287325 138.351128 
Q 215.176813 137.858849 215.176813 136.44229 
L 215.176813 130.524891 
L 213.36844 130.524891 
L 213.36844 137.135499 
Q 213.36844 138.290849 213.478952 138.823314 
Q 213.639696 139.616989 214.036534 140.164524 
Q 214.433371 140.712059 215.252162 141.073734 
Q 216.070954 141.435409 217.015326 141.435409 
Q 219.155234 141.435409 220.401003 139.627036 
L 220.401003 141.194292 
M 156.3645 141.194292 
L 157.98199 141.194292 
L 157.98199 130.524891 
L 156.173616 130.524891 
L 156.173616 136.241359 
Q 156.173616 137.607686 155.877244 138.326012 
Q 155.580872 139.044338 154.867569 139.461268 
Q 154.154266 139.878199 153.340498 139.878199 
Q 152.526731 139.878199 151.974172 139.471315 
Q 151.421614 139.064431 151.250823 138.351128 
Q 151.140311 137.858849 151.140311 136.44229 
L 151.140311 130.524891 
L 149.331938 130.524891 
L 149.331938 137.135499 
Q 149.331938 138.290849 149.44245 138.823314 
Q 149.603194 139.616989 150.000031 140.164524 
Q 150.396869 140.712059 151.21566 141.073734 
Q 152.034451 141.435409 152.978824 141.435409 
Q 155.118732 141.435409 156.3645 139.627036 
L 156.3645 141.194292 
M 239.087525 139.576803 
Q 238.595246 139.647129 238.29385 139.647129 
Q 237.891989 139.647129 237.675989 139.516524 
Q 237.459989 139.385919 237.364547 139.164896 
Q 237.269105 138.943872 237.269105 138.170291 
L 237.269105 131.931403 
L 239.087525 131.931403 
L 239.087525 130.524891 
L 237.269105 130.524891 
L 237.269105 126.797633 
L 235.470779 127.882657 
L 235.470779 130.524891 
L 234.144638 130.524891 
L 234.144638 131.931403 
L 235.470779 131.931403 
L 235.470779 138.069825 
Q 235.470779 139.697361 235.691802 140.20471 
Q 235.912826 140.712059 236.455337 141.023502 
Q 236.997849 141.334944 237.982408 141.334944 
Q 238.585199 141.334944 239.348735 141.174199 
L 239.087525 139.576803 
M 204.788714 139.576803 
Q 204.296435 139.647129 203.99504 139.647129 
Q 203.593179 139.647129 203.377179 139.516524 
Q 203.161179 139.385919 203.065737 139.164896 
Q 202.970295 138.943872 202.970295 138.170291 
L 202.970295 131.931403 
L 204.788714 131.931403 
L 204.788714 130.524891 
L 202.970295 130.524891 
L 202.970295 126.797633 
L 201.171968 127.882657 
L 201.171968 130.524891 
L 199.845828 130.524891 
L 199.845828 131.931403 
L 201.171968 131.931403 
L 201.171968 138.069825 
Q 201.171968 139.697361 201.392992 140.20471 
Q 201.614015 140.712059 202.156527 141.023502 
Q 202.699039 141.334944 203.683597 141.334944 
Q 204.286389 141.334944 205.049924 141.174199 
L 204.788714 139.576803 
M 206.536808 141.194292 
L 208.345182 141.194292 
L 208.345182 135.608429 
Q 208.345182 134.463126 208.646577 133.49866 
Q 208.847507 132.865729 209.319694 132.509078 
Q 209.79188 132.152427 210.384625 132.152427 
Q 211.047695 132.152427 211.710765 132.544241 
L 212.333649 130.866472 
Q 211.389276 130.283774 210.475043 130.283774 
Q 209.842113 130.283774 209.314671 130.645449 
Q 208.787228 131.007124 208.164344 132.14238 
L 208.164344 130.524891 
L 206.536808 130.524891 
L 206.536808 141.194292 
M 183.680981 141.194292 
L 185.489354 141.194292 
L 185.489354 135.608429 
Q 185.489354 134.463126 185.79075 133.49866 
Q 185.99168 132.865729 186.463867 132.509078 
Q 186.936053 132.152427 187.528797 132.152427 
Q 188.191868 132.152427 188.854938 132.544241 
L 189.477822 130.866472 
Q 188.533449 130.283774 187.619216 130.283774 
Q 186.986285 130.283774 186.458843 130.645449 
Q 185.931401 131.007124 185.308517 132.14238 
L 185.308517 130.524891 
L 183.680981 130.524891 
L 183.680981 141.194292 
M 252.278602 141.194292 
L 254.086976 141.194292 
L 254.086976 135.608429 
Q 254.086976 134.463126 254.388371 133.49866 
Q 254.589302 132.865729 255.061488 132.509078 
Q 255.533674 132.152427 256.126419 132.152427 
Q 256.789489 132.152427 257.452559 132.544241 
L 258.075443 130.866472 
Q 257.13107 130.283774 256.216837 130.283774 
Q 255.583907 130.283774 255.056465 130.645449 
Q 254.529022 131.007124 253.906138 132.14238 
L 253.906138 130.524891 
L 252.278602 130.524891 
L 252.278602 141.194292 
M 162.45269 135.919871 
Q 162.45269 133.860335 163.341807 132.780334 
Q 164.230923 131.700333 165.386273 131.700333 
Q 166.551669 131.700333 167.390553 132.715032 
Q 168.229437 133.72973 168.229437 135.769173 
Q 168.229437 137.909081 167.37046 138.928803 
Q 166.511483 139.948524 165.305901 139.948524 
Q 164.120412 139.948524 163.286551 138.963965 
Q 162.45269 137.979407 162.45269 135.919871 
M 260.516747 134.834847 
Q 260.607165 133.438381 261.456096 132.60452 
Q 262.305027 131.770659 263.550795 131.770659 
Q 264.927168 131.770659 265.791168 132.815497 
Q 266.353773 133.488613 266.474332 134.834847 
L 260.516747 134.834847 
M 173.624417 134.834847 
Q 173.714836 133.438381 174.563767 132.60452 
Q 175.412697 131.770659 176.658465 131.770659 
Q 178.034838 131.770659 178.898839 132.815497 
Q 179.461444 133.488613 179.582002 134.834847 
L 173.624417 134.834847 
" clip-path="url(#p6f65326f53)" style="fill: #ff0000"/>
   </g>
   <g id="patch_15">
    <path d="M 398.699897 195.197673 
L 400.648921 195.197673 
L 400.648921 188.255529 
L 408.304368 188.255529 
L 408.304368 195.197673 
L 410.253392 195.197673 
L 410.253392 180.469478 
L 408.304368 180.469478 
L 408.304368 186.517481 
L 400.648921 186.517481 
L 400.648921 180.469478 
L 398.699897 180.469478 
L 398.699897 195.197673 
M 440.714433 195.197673 
L 442.522806 195.197673 
L 442.522806 189.360646 
Q 442.522806 188.104831 442.824202 187.391528 
Q 443.125597 186.678226 443.833877 186.261295 
Q 444.542156 185.844365 445.345878 185.844365 
Q 446.420855 185.844365 447.008576 186.462226 
Q 447.596297 187.080086 447.596297 188.436366 
L 447.596297 195.197673 
L 449.404671 195.197673 
L 449.404671 188.436366 
Q 449.404671 186.86911 449.027926 186.045295 
Q 448.651182 185.221481 447.777135 184.754318 
Q 446.903088 184.287155 445.717599 184.287155 
Q 443.788667 184.287155 442.522806 185.753946 
L 442.522806 180.469478 
L 440.714433 180.469478 
L 440.714433 195.197673 
M 420.229584 193.881579 
Q 420.309956 194.635068 420.591258 195.197673 
L 422.480004 195.197673 
Q 422.138422 194.584835 422.022887 193.916742 
Q 421.907352 193.248648 421.907352 190.726972 
L 421.907352 188.315808 
Q 421.907352 187.110226 421.816934 186.648086 
Q 421.656189 185.904644 421.254329 185.417388 
Q 420.852468 184.930132 419.998514 184.608643 
Q 419.14456 184.287155 417.778234 184.287155 
Q 416.401861 184.287155 415.357023 184.663899 
Q 414.312185 185.040643 413.759627 185.738876 
Q 413.207068 186.437109 412.965952 187.572366 
L 414.734139 187.813482 
Q 415.025488 186.678226 415.633302 186.231156 
Q 416.241116 185.784086 417.517024 185.784086 
Q 418.883351 185.784086 419.57656 186.396923 
Q 420.088933 186.849017 420.088933 187.954133 
Q 420.088933 188.054599 420.078886 188.42632 
Q 419.044095 188.787994 416.853954 189.049204 
Q 415.778977 189.179809 415.246511 189.32046 
Q 414.523162 189.52139 413.945487 189.913204 
Q 413.367812 190.305019 413.011161 190.953019 
Q 412.65451 191.601019 412.65451 192.384648 
Q 412.65451 193.720834 413.598882 194.579812 
Q 414.543255 195.438789 416.301396 195.438789 
Q 417.366326 195.438789 418.295629 195.087161 
Q 419.224932 194.735533 420.229584 193.881579 
M 437.389036 191.289577 
Q 437.198152 192.645857 436.484849 193.298881 
Q 435.771546 193.951904 434.706616 193.951904 
Q 433.380475 193.951904 432.556661 192.977392 
Q 431.732846 192.00288 431.732846 189.852925 
Q 431.732846 187.73311 432.5868 186.753575 
Q 433.440754 185.774039 434.807081 185.774039 
Q 435.711267 185.774039 436.349221 186.316551 
Q 436.987175 186.859063 437.238338 187.93404 
L 438.996478 187.662784 
Q 438.685036 186.045295 437.57992 185.166225 
Q 436.474803 184.287155 434.736755 184.287155 
Q 433.360382 184.287155 432.189963 184.935155 
Q 431.019544 185.583155 430.446892 186.879156 
Q 429.874241 188.175157 429.874241 189.903158 
Q 429.874241 192.575531 431.205404 194.00716 
Q 432.536568 195.438789 434.726709 195.438789 
Q 436.474803 195.438789 437.675361 194.398974 
Q 438.87592 193.35916 439.167269 191.520647 
L 437.389036 191.289577 
M 464.183098 195.197673 
L 464.183098 180.409199 
L 463.017702 180.409199 
Q 462.545515 181.363618 461.410259 182.378316 
Q 460.275002 183.393015 458.757978 184.106317 
L 458.757978 185.854411 
Q 459.601886 185.542969 460.661793 184.920085 
Q 461.721701 184.297201 462.374725 183.674317 
L 462.374725 195.197673 
L 464.183098 195.197673 
M 428.658612 193.580183 
Q 428.166333 193.650509 427.864937 193.650509 
Q 427.463076 193.650509 427.247076 193.519904 
Q 427.031076 193.389299 426.935634 193.168276 
Q 426.840192 192.947253 426.840192 192.173671 
L 426.840192 185.934783 
L 428.658612 185.934783 
L 428.658612 184.528271 
L 426.840192 184.528271 
L 426.840192 180.801013 
L 425.041866 181.886037 
L 425.041866 184.528271 
L 423.715725 184.528271 
L 423.715725 185.934783 
L 425.041866 185.934783 
L 425.041866 192.073206 
Q 425.041866 193.700741 425.262889 194.208091 
Q 425.483912 194.71544 426.026424 195.026882 
Q 426.568936 195.338324 427.553495 195.338324 
Q 428.156286 195.338324 428.919821 195.17758 
L 428.658612 193.580183 
M 420.078886 189.842879 
L 420.078886 190.505949 
Q 420.078886 191.701484 419.787537 192.314322 
Q 419.405769 193.107997 418.592002 193.565113 
Q 417.778234 194.02223 416.733396 194.02223 
Q 415.678511 194.02223 415.130976 193.539997 
Q 414.583441 193.057764 414.583441 192.334415 
Q 414.583441 191.862229 414.834604 191.475438 
Q 415.085767 191.088647 415.547907 190.887717 
Q 416.010047 190.686786 417.12521 190.526042 
Q 419.094327 190.244739 420.078886 189.842879 
" clip-path="url(#p6f65326f53)" style="fill: #ff0000"/>
   </g>
   <g id="patch_16">
    <path d="M 716.8289 195.197673 
L 718.777925 195.197673 
L 718.777925 188.255529 
L 726.433371 188.255529 
L 726.433371 195.197673 
L 728.382396 195.197673 
L 728.382396 180.469478 
L 726.433371 180.469478 
L 726.433371 186.517481 
L 718.777925 186.517481 
L 718.777925 180.469478 
L 716.8289 180.469478 
L 716.8289 195.197673 
M 785.004568 193.459625 
L 777.781122 193.459625 
Q 778.082517 192.967346 778.544657 192.48009 
Q 779.006797 191.992833 780.634333 190.626507 
Q 782.583357 188.978878 783.422242 188.034506 
Q 784.261126 187.090133 784.6228 186.236179 
Q 784.984475 185.382225 784.984475 184.498131 
Q 784.984475 182.760084 783.748753 181.584641 
Q 782.513032 180.409199 780.393217 180.409199 
Q 778.293494 180.409199 777.047726 181.499246 
Q 775.801958 182.589293 775.611074 184.668922 
L 777.46968 184.859806 
Q 777.479726 183.473387 778.263355 182.689758 
Q 779.046983 181.90613 780.35303 181.90613 
Q 781.588752 181.90613 782.357311 182.644549 
Q 783.125869 183.382968 783.125869 184.457945 
Q 783.125869 185.48269 782.281962 186.633016 
Q 781.438054 187.783343 779.036937 189.75246 
Q 777.489773 191.018321 776.670982 191.982787 
Q 775.852191 192.947253 775.480469 193.941858 
Q 775.2494 194.544649 775.269493 195.197673 
L 785.004568 195.197673 
L 785.004568 193.459625 
M 758.843437 195.197673 
L 760.65181 195.197673 
L 760.65181 189.360646 
Q 760.65181 188.104831 760.953205 187.391528 
Q 761.254601 186.678226 761.96288 186.261295 
Q 762.67116 185.844365 763.474881 185.844365 
Q 764.549858 185.844365 765.13758 186.462226 
Q 765.725301 187.080086 765.725301 188.436366 
L 765.725301 195.197673 
L 767.533674 195.197673 
L 767.533674 188.436366 
Q 767.533674 186.86911 767.15693 186.045295 
Q 766.780185 185.221481 765.906138 184.754318 
Q 765.032091 184.287155 763.846602 184.287155 
Q 761.917671 184.287155 760.65181 185.753946 
L 760.65181 180.469478 
L 758.843437 180.469478 
L 758.843437 195.197673 
M 738.358587 193.881579 
Q 738.43896 194.635068 738.720262 195.197673 
L 740.609007 195.197673 
Q 740.267426 194.584835 740.151891 193.916742 
Q 740.036356 193.248648 740.036356 190.726972 
L 740.036356 188.315808 
Q 740.036356 187.110226 739.945937 186.648086 
Q 739.785193 185.904644 739.383332 185.417388 
Q 738.981472 184.930132 738.127518 184.608643 
Q 737.273564 184.287155 735.907237 184.287155 
Q 734.530864 184.287155 733.486026 184.663899 
Q 732.441189 185.040643 731.88863 185.738876 
Q 731.336072 186.437109 731.094955 187.572366 
L 732.863142 187.813482 
Q 733.154491 186.678226 733.762306 186.231156 
Q 734.37012 185.784086 735.646028 185.784086 
Q 737.012354 185.784086 737.705564 186.396923 
Q 738.217936 186.849017 738.217936 187.954133 
Q 738.217936 188.054599 738.20789 188.42632 
Q 737.173098 188.787994 734.982958 189.049204 
Q 733.90798 189.179809 733.375515 189.32046 
Q 732.652165 189.52139 732.074491 189.913204 
Q 731.496816 190.305019 731.140165 190.953019 
Q 730.783513 191.601019 730.783513 192.384648 
Q 730.783513 193.720834 731.727886 194.579812 
Q 732.672259 195.438789 734.430399 195.438789 
Q 735.49533 195.438789 736.424633 195.087161 
Q 737.353936 194.735533 738.358587 193.881579 
M 755.518039 191.289577 
Q 755.327155 192.645857 754.613853 193.298881 
Q 753.90055 193.951904 752.835619 193.951904 
Q 751.509479 193.951904 750.685664 192.977392 
Q 749.86185 192.00288 749.86185 189.852925 
Q 749.86185 187.73311 750.715804 186.753575 
Q 751.569758 185.774039 752.936084 185.774039 
Q 753.840271 185.774039 754.478225 186.316551 
Q 755.116179 186.859063 755.367341 187.93404 
L 757.125482 187.662784 
Q 756.81404 186.045295 755.708923 185.166225 
Q 754.603806 184.287155 752.865759 184.287155 
Q 751.489386 184.287155 750.318966 184.935155 
Q 749.148547 185.583155 748.575896 186.879156 
Q 748.003244 188.175157 748.003244 189.903158 
Q 748.003244 192.575531 749.334408 194.00716 
Q 750.665571 195.438789 752.855712 195.438789 
Q 754.603806 195.438789 755.804365 194.398974 
Q 757.004924 193.35916 757.296273 191.520647 
L 755.518039 191.289577 
M 746.787616 193.580183 
Q 746.295336 193.650509 745.993941 193.650509 
Q 745.59208 193.650509 745.37608 193.519904 
Q 745.16008 193.389299 745.064638 193.168276 
Q 744.969196 192.947253 744.969196 192.173671 
L 744.969196 185.934783 
L 746.787616 185.934783 
L 746.787616 184.528271 
L 744.969196 184.528271 
L 744.969196 180.801013 
L 743.170869 181.886037 
L 743.170869 184.528271 
L 741.844729 184.528271 
L 741.844729 185.934783 
L 743.170869 185.934783 
L 743.170869 192.073206 
Q 743.170869 193.700741 743.391893 194.208091 
Q 743.612916 194.71544 744.155428 195.026882 
Q 744.69794 195.338324 745.682499 195.338324 
Q 746.28529 195.338324 747.048825 195.17758 
L 746.787616 193.580183 
M 738.20789 189.842879 
L 738.20789 190.505949 
Q 738.20789 191.701484 737.916541 192.314322 
Q 737.534773 193.107997 736.721005 193.565113 
Q 735.907237 194.02223 734.862399 194.02223 
Q 733.807515 194.02223 733.25998 193.539997 
Q 732.712445 193.057764 732.712445 192.334415 
Q 732.712445 191.862229 732.963608 191.475438 
Q 733.21477 191.088647 733.67691 190.887717 
Q 734.13905 190.686786 735.254214 190.526042 
Q 737.223331 190.244739 738.20789 189.842879 
" clip-path="url(#p6f65326f53)" style="fill: #ff0000"/>
   </g>
   <g id="patch_17">
    <path d="M 113.087452 273.748044 
L 115.036476 273.748044 
L 115.036476 267.760319 
L 118.813967 267.760319 
Q 121.938434 267.760319 123.133969 266.459295 
Q 124.329505 265.158271 124.329505 263.279573 
Q 124.329505 262.184502 123.882435 261.270269 
Q 123.435365 260.356036 122.701969 259.848687 
Q 121.968573 259.341338 120.883549 259.1605 
Q 120.109968 259.019849 118.643176 259.019849 
L 113.087452 259.019849 
L 113.087452 273.748044 
M 144.874633 277.836976 
L 146.683006 277.836976 
L 146.683006 272.642927 
Q 147.145146 273.225625 147.863472 273.607393 
Q 148.581798 273.98916 149.485985 273.98916 
Q 150.721706 273.98916 151.841893 273.290927 
Q 152.96208 272.592694 153.549801 271.281624 
Q 154.137522 269.970553 154.137522 268.332971 
Q 154.137522 266.8059 153.605057 265.524969 
Q 153.072591 264.244038 152.027754 263.540782 
Q 150.982916 262.837526 149.616589 262.837526 
Q 148.571751 262.837526 147.838356 263.24441 
Q 147.10496 263.651294 146.522262 264.465062 
L 146.522262 263.078642 
L 144.874633 263.078642 
L 144.874633 277.836976 
M 132.758533 268.413343 
Q 132.758533 271.115856 134.139929 272.552508 
Q 135.521325 273.98916 137.761699 273.98916 
Q 139.158165 273.98916 140.33863 273.336137 
Q 141.519096 272.683113 142.136957 271.502647 
Q 142.754818 270.322181 142.754818 268.262645 
Q 142.754818 265.720876 141.358352 264.279201 
Q 139.961886 262.837526 137.761699 262.837526 
Q 135.782535 262.837526 134.406162 264.023015 
Q 132.758533 265.44962 132.758533 268.413343 
M 184.206749 270.312135 
Q 183.794842 271.457438 183.091586 271.979857 
Q 182.388329 272.502276 181.393724 272.502276 
Q 180.057537 272.502276 179.163397 271.56795 
Q 178.269257 270.633623 178.168792 268.875483 
L 186.125634 268.875483 
Q 186.13568 268.553994 186.13568 268.39325 
Q 186.13568 265.751016 184.7794 264.294271 
Q 183.423121 262.837526 181.283212 262.837526 
Q 179.072979 262.837526 177.686559 264.32441 
Q 176.30014 265.811295 176.30014 268.503762 
Q 176.30014 271.10581 177.671489 272.547485 
Q 179.042839 273.98916 181.383678 273.98916 
Q 183.242283 273.98916 184.437819 273.084974 
Q 185.633354 272.180787 186.075401 270.543205 
L 184.206749 270.312135 
M 163.621435 270.312135 
Q 163.209527 271.457438 162.506271 271.979857 
Q 161.803015 272.502276 160.80841 272.502276 
Q 159.472223 272.502276 158.578083 271.56795 
Q 157.683943 270.633623 157.583478 268.875483 
L 165.54032 268.875483 
Q 165.550366 268.553994 165.550366 268.39325 
Q 165.550366 265.751016 164.194086 264.294271 
Q 162.837806 262.837526 160.697898 262.837526 
Q 158.487664 262.837526 157.101245 264.32441 
Q 155.714825 265.811295 155.714825 268.503762 
Q 155.714825 271.10581 157.086175 272.547485 
Q 158.457525 273.98916 160.798363 273.98916 
Q 162.656969 273.98916 163.852505 273.084974 
Q 165.04804 272.180787 165.490087 270.543205 
L 163.621435 270.312135 
M 126.559832 273.748044 
L 128.368205 273.748044 
L 128.368205 268.16218 
Q 128.368205 267.016877 128.6696 266.052411 
Q 128.870531 265.419481 129.342717 265.062829 
Q 129.814903 264.706178 130.407648 264.706178 
Q 131.070718 264.706178 131.733788 265.097992 
L 132.356672 263.420224 
Q 131.4123 262.837526 130.498067 262.837526 
Q 129.865136 262.837526 129.337694 263.1992 
Q 128.810252 263.560875 128.187368 264.696132 
L 128.187368 263.078642 
L 126.559832 263.078642 
L 126.559832 273.748044 
M 188.325821 273.748044 
L 190.134194 273.748044 
L 190.134194 268.16218 
Q 190.134194 267.016877 190.43559 266.052411 
Q 190.63652 265.419481 191.108706 265.062829 
Q 191.580893 264.706178 192.173637 264.706178 
Q 192.836707 264.706178 193.499778 265.097992 
L 194.122662 263.420224 
Q 193.178289 262.837526 192.264056 262.837526 
Q 191.631125 262.837526 191.103683 263.1992 
Q 190.576241 263.560875 189.953357 264.696132 
L 189.953357 263.078642 
L 188.325821 263.078642 
L 188.325821 273.748044 
M 172.291579 273.748044 
L 174.099952 273.748044 
L 174.099952 259.019849 
L 172.291579 259.019849 
L 172.291579 273.748044 
M 167.720414 273.748044 
L 169.528787 273.748044 
L 169.528787 259.019849 
L 167.720414 259.019849 
L 167.720414 273.748044 
M 115.036476 266.022272 
L 115.036476 260.757897 
L 118.80392 260.757897 
Q 120.130061 260.757897 120.62234 260.888501 
Q 121.385875 261.099478 121.853038 261.757525 
Q 122.320201 262.415572 122.320201 263.339852 
Q 122.320201 264.615759 121.526526 265.319016 
Q 120.732852 266.022272 118.844106 266.022272 
L 115.036476 266.022272 
M 146.512215 268.473622 
Q 146.512215 266.414086 147.401332 265.334085 
Q 148.290449 264.254085 149.445799 264.254085 
Q 150.611195 264.254085 151.450079 265.268783 
Q 152.288963 266.283481 152.288963 268.322924 
Q 152.288963 270.462833 151.429986 271.482554 
Q 150.571008 272.502276 149.365426 272.502276 
Q 148.179937 272.502276 147.346076 271.517717 
Q 146.512215 270.533158 146.512215 268.473622 
M 134.617139 268.413343 
Q 134.617139 266.363853 135.511279 265.349155 
Q 136.405419 264.334457 137.761699 264.334457 
Q 139.097886 264.334457 139.997049 265.354178 
Q 140.896212 266.3739 140.896212 268.353064 
Q 140.896212 270.452786 140.002072 271.477531 
Q 139.107932 272.502276 137.761699 272.502276 
Q 136.405419 272.502276 135.511279 271.482554 
Q 134.617139 270.462833 134.617139 268.413343 
M 178.269257 267.388598 
Q 178.359676 265.992132 179.208607 265.158271 
Q 180.057537 264.32441 181.303305 264.32441 
Q 182.679678 264.32441 183.543679 265.369248 
Q 184.106284 266.042365 184.226842 267.388598 
L 178.269257 267.388598 
M 157.683943 267.388598 
Q 157.774361 265.992132 158.623292 265.158271 
Q 159.472223 264.32441 160.717991 264.32441 
Q 162.094364 264.32441 162.958365 265.369248 
Q 163.520969 266.042365 163.641528 267.388598 
L 157.683943 267.388598 
" clip-path="url(#p6f65326f53)" style="fill: #ff0000"/>
   </g>
   <g id="patch_18">
    <path d="M 96 298.295035 
L 97.949024 298.295035 
L 97.949024 291.754752 
L 100.209491 291.754752 
Q 100.96298 291.754752 101.294515 291.825078 
Q 101.746608 291.935589 102.183632 292.216892 
Q 102.620655 292.498194 103.173213 293.20145 
Q 103.725772 293.904707 104.579726 295.230847 
L 106.52875 298.295035 
L 108.980101 298.295035 
L 106.418239 294.286474 
Q 105.654703 293.111032 104.800749 292.327403 
Q 104.398889 291.965729 103.625307 291.594008 
Q 105.745122 291.302659 106.75982 290.227681 
Q 107.774518 289.152704 107.774518 287.585447 
Q 107.774518 286.369819 107.161681 285.365167 
Q 106.548843 284.360515 105.524099 283.963678 
Q 104.499354 283.56684 102.530236 283.56684 
L 96 283.56684 
L 96 298.295035 
M 140.405607 298.295035 
L 142.083376 298.295035 
L 142.083376 283.56684 
L 140.285049 283.56684 
L 140.285049 288.851308 
Q 139.812863 288.198285 139.059374 287.791401 
Q 138.305885 287.384517 137.341419 287.384517 
Q 136.025326 287.384517 134.960395 288.077727 
Q 133.895464 288.770936 133.362998 290.07196 
Q 132.830533 291.372984 132.830533 292.970381 
Q 132.830533 294.607963 133.418254 295.868801 
Q 134.005976 297.129639 135.07593 297.832895 
Q 136.145884 298.536151 137.421792 298.536151 
Q 139.390909 298.536151 140.405607 296.948801 
L 140.405607 298.295035 
M 128.962624 298.295035 
L 130.640392 298.295035 
L 130.640392 283.56684 
L 128.842066 283.56684 
L 128.842066 288.851308 
Q 128.369879 288.198285 127.61639 287.791401 
Q 126.862902 287.384517 125.898436 287.384517 
Q 124.582342 287.384517 123.517411 288.077727 
Q 122.45248 288.770936 121.920015 290.07196 
Q 121.38755 291.372984 121.38755 292.970381 
Q 121.38755 294.607963 121.975271 295.868801 
Q 122.562992 297.129639 123.632946 297.832895 
Q 124.7029 298.536151 125.978808 298.536151 
Q 127.947926 298.536151 128.962624 296.948801 
L 128.962624 298.295035 
M 152.230358 294.859126 
Q 151.818451 296.004429 151.115195 296.526848 
Q 150.411939 297.049267 149.417333 297.049267 
Q 148.081147 297.049267 147.187007 296.114941 
Q 146.292866 295.180614 146.192401 293.422474 
L 154.149243 293.422474 
Q 154.15929 293.100985 154.15929 292.940241 
Q 154.15929 290.298007 152.80301 288.841262 
Q 151.44673 287.384517 149.306822 287.384517 
Q 147.096588 287.384517 145.710168 288.871401 
Q 144.323749 290.358286 144.323749 293.050753 
Q 144.323749 295.652801 145.695099 297.094476 
Q 147.066448 298.536151 149.407287 298.536151 
Q 151.265893 298.536151 152.461428 297.631965 
Q 153.656964 296.727778 154.099011 295.090196 
L 152.230358 294.859126 
M 117.589966 298.295035 
L 119.207455 298.295035 
L 119.207455 287.625633 
L 117.399082 287.625633 
L 117.399082 293.342102 
Q 117.399082 294.708428 117.10271 295.426754 
Q 116.806338 296.14508 116.093035 296.562011 
Q 115.379732 296.978941 114.565964 296.978941 
Q 113.752196 296.978941 113.199638 296.572057 
Q 112.647079 296.165173 112.476289 295.45187 
Q 112.365777 294.959591 112.365777 293.543032 
L 112.365777 287.625633 
L 110.557404 287.625633 
L 110.557404 294.236242 
Q 110.557404 295.391591 110.667916 295.924057 
Q 110.82866 296.717732 111.225497 297.265267 
Q 111.622335 297.812802 112.441126 298.174477 
Q 113.259917 298.536151 114.20429 298.536151 
Q 116.344198 298.536151 117.589966 296.727778 
L 117.589966 298.295035 
M 156.34943 298.295035 
L 158.157804 298.295035 
L 158.157804 292.709171 
Q 158.157804 291.563868 158.459199 290.599402 
Q 158.660129 289.966472 159.132316 289.60982 
Q 159.604502 289.253169 160.197247 289.253169 
Q 160.860317 289.253169 161.523387 289.644983 
L 162.146271 287.967215 
Q 161.201898 287.384517 160.287665 287.384517 
Q 159.654735 287.384517 159.127293 287.746191 
Q 158.59985 288.107866 157.976966 289.243123 
L 157.976966 287.625633 
L 156.34943 287.625633 
L 156.34943 298.295035 
M 97.949024 290.066937 
L 97.949024 285.194376 
L 102.610608 285.194376 
Q 104.248191 285.194376 105.006703 285.867493 
Q 105.765215 286.540609 105.765215 287.585447 
Q 105.765215 288.29875 105.373401 288.906564 
Q 104.981587 289.514379 104.228098 289.790658 
Q 103.474609 290.066937 102.138422 290.066937 
L 97.949024 290.066937 
M 134.689139 292.970381 
Q 134.689139 290.850565 135.497883 289.866007 
Q 136.306628 288.881448 137.51221 288.881448 
Q 138.747932 288.881448 139.591839 289.906193 
Q 140.435747 290.930938 140.435747 293.121078 
Q 140.435747 295.110289 139.606909 296.079778 
Q 138.778071 297.049267 137.592582 297.049267 
Q 136.41714 297.049267 135.553139 296.034568 
Q 134.689139 295.01987 134.689139 292.970381 
M 123.246155 292.970381 
Q 123.246155 290.850565 124.0549 289.866007 
Q 124.863645 288.881448 126.069227 288.881448 
Q 127.304948 288.881448 128.148856 289.906193 
Q 128.992763 290.930938 128.992763 293.121078 
Q 128.992763 295.110289 128.163926 296.079778 
Q 127.335088 297.049267 126.149599 297.049267 
Q 124.974156 297.049267 124.110156 296.034568 
Q 123.246155 295.01987 123.246155 292.970381 
M 146.292866 291.935589 
Q 146.383285 290.539123 147.232216 289.705262 
Q 148.081147 288.871401 149.326915 288.871401 
Q 150.703288 288.871401 151.567288 289.916239 
Q 152.129893 290.589356 152.250451 291.935589 
L 146.292866 291.935589 
" clip-path="url(#p6f65326f53)" style="fill: #ff0000"/>
   </g>
   <g id="patch_19">
    <path d="M 181.815678 64.60768 
L 183.764702 64.60768 
L 183.764702 57.9167 
L 190.676706 57.9167 
L 190.676706 56.178652 
L 183.764702 56.178652 
L 183.764702 51.617533 
L 191.751684 51.617533 
L 191.751684 49.879486 
L 181.815678 49.879486 
L 181.815678 64.60768 
M 235.685104 61.171771 
Q 235.273197 62.317074 234.569941 62.839493 
Q 233.866685 63.361912 232.87208 63.361912 
Q 231.535893 63.361912 230.641753 62.427586 
Q 229.747613 61.49326 229.647147 59.735119 
L 237.603989 59.735119 
Q 237.614036 59.413631 237.614036 59.252887 
Q 237.614036 56.610652 236.257756 55.153907 
Q 234.901476 53.697162 232.761568 53.697162 
Q 230.551334 53.697162 229.164915 55.184047 
Q 227.778495 56.670932 227.778495 59.363398 
Q 227.778495 61.965446 229.149845 63.407122 
Q 230.521194 64.848797 232.862033 64.848797 
Q 234.720639 64.848797 235.916174 63.94461 
Q 237.11171 63.040424 237.553757 61.402841 
L 235.685104 61.171771 
M 205.495319 64.60768 
L 207.303693 64.60768 
L 207.303693 58.7807 
Q 207.303693 56.731211 208.142577 55.997815 
Q 208.981461 55.264419 210.136811 55.264419 
Q 210.86016 55.264419 211.397648 55.590931 
Q 211.935137 55.917443 212.146114 56.464978 
Q 212.357091 57.012513 212.357091 58.11763 
L 212.357091 64.60768 
L 214.165464 64.60768 
L 214.165464 58.047304 
Q 214.165464 56.79149 214.064999 56.289164 
Q 213.904255 55.515582 213.502394 54.952977 
Q 213.100533 54.390372 212.291789 54.043767 
Q 211.483044 53.697162 210.518578 53.697162 
Q 208.298298 53.697162 207.122855 55.455303 
L 207.122855 53.938279 
L 205.495319 53.938279 
L 205.495319 64.60768 
M 216.938303 64.60768 
L 218.746676 64.60768 
L 218.746676 58.7807 
Q 218.746676 56.731211 219.58556 55.997815 
Q 220.424444 55.264419 221.579794 55.264419 
Q 222.303143 55.264419 222.840632 55.590931 
Q 223.378121 55.917443 223.589097 56.464978 
Q 223.800074 57.012513 223.800074 58.11763 
L 223.800074 64.60768 
L 225.608447 64.60768 
L 225.608447 58.047304 
Q 225.608447 56.79149 225.507982 56.289164 
Q 225.347238 55.515582 224.945377 54.952977 
Q 224.543517 54.390372 223.734772 54.043767 
Q 222.926027 53.697162 221.961562 53.697162 
Q 219.741281 53.697162 218.565839 55.455303 
L 218.565839 53.938279 
L 216.938303 53.938279 
L 216.938303 64.60768 
M 201.044712 64.60768 
L 202.662202 64.60768 
L 202.662202 53.938279 
L 200.853828 53.938279 
L 200.853828 59.654747 
Q 200.853828 61.021074 200.557456 61.7394 
Q 200.261084 62.457726 199.547781 62.874656 
Q 198.834478 63.291587 198.02071 63.291587 
Q 197.206943 63.291587 196.654384 62.884703 
Q 196.101826 62.477819 195.931035 61.764516 
Q 195.820523 61.272237 195.820523 59.855678 
L 195.820523 53.938279 
L 194.01215 53.938279 
L 194.01215 60.548887 
Q 194.01215 61.704237 194.122662 62.236702 
Q 194.283406 63.030377 194.680243 63.577912 
Q 195.077081 64.125448 195.895872 64.487122 
Q 196.714663 64.848797 197.659036 64.848797 
Q 199.798944 64.848797 201.044712 63.040424 
L 201.044712 64.60768 
M 239.784084 64.60768 
L 241.592457 64.60768 
L 241.592457 49.879486 
L 239.784084 49.879486 
L 239.784084 64.60768 
M 229.747613 58.248235 
Q 229.838031 56.851769 230.686962 56.017908 
Q 231.535893 55.184047 232.781661 55.184047 
Q 234.158034 55.184047 235.022034 56.228885 
Q 235.584639 56.902001 235.705198 58.248235 
L 229.747613 58.248235 
" clip-path="url(#p6f65326f53)" style="fill: #ff0000"/>
   </g>
  </g>
 </g>
 <defs>
  <clipPath id="p6f65326f53">
   <rect x="0" y="0" width="1152" height="333.446326"/>
  </clipPath>
 </defs>
</svg>
