<?xml version="1.0" encoding="utf-8" standalone="no"?>
<!DOCTYPE svg PUBLIC "-//W3C//DTD SVG 1.1//EN"
  "http://www.w3.org/Graphics/SVG/1.1/DTD/svg11.dtd">
<svg xmlns:xlink="http://www.w3.org/1999/xlink" width="288pt" height="441.320177pt" viewBox="0 0 288 441.320177" xmlns="http://www.w3.org/2000/svg" version="1.1">
 <metadata>
  <rdf:RDF xmlns:dc="http://purl.org/dc/elements/1.1/" xmlns:cc="http://creativecommons.org/ns#" xmlns:rdf="http://www.w3.org/1999/02/22-rdf-syntax-ns#">
   <cc:Work>
    <dc:type rdf:resource="http://purl.org/dc/dcmitype/StillImage"/>
    <dc:date>2026-03-04T11:03:04.543351</dc:date>
    <dc:format>image/svg+xml</dc:format>
    <dc:creator>
     <cc:Agent>
      <dc:title>Matplotlib v3.10.8, https://matplotlib.org/</dc:title>
     </cc:Agent>
    </dc:creator>
   </cc:Work>
  </rdf:RDF>
 </metadata>
 <defs>
  <style type="text/css">*{stroke-linejoin: round; stroke-linecap: butt}</style>
 </defs>
 <g id="figure_1">
  <g id="patch_1">
   <path d="M 0 441.320177 
L 288 441.320177 
L 288 0 
L 0 0 
z
" style="fill: #ffffff"/>
  </g>
  <g id="axes_1">
   <g id="patch_2">
    <path d="M 70.417773 147.549818 
L 85.187524 137.210992 
L 88.879962 137.210992 
L 92.5724 378.69643 
L 114.727027 404.543495 
L 88.879962 404.543495 
L 92.5724 400.851057 
L 92.5724 375.003992 
L 70.417773 367.619116 
L 70.417773 147.549818 
" clip-path="url(#pc744fa13ba)" style="fill: none; stroke: #0000ff; stroke-width: 0.72; stroke-linejoin: miter"/>
   </g>
   <g id="line2d_1">
    <path d="M 70.417773 404.543495 
L 114.727027 404.543495 
" clip-path="url(#pc744fa13ba)" style="fill: none; stroke: #00ffff; stroke-width: 0.72; stroke-linecap: square"/>
   </g>
   <g id="patch_3">
    <path d="M 70.417773 147.549818 
L 70.417773 73.70106 
L 218.115288 73.70106 
L 218.115288 147.549818 
L 70.417773 147.549818 
" clip-path="url(#pc744fa13ba)" style="fill: none; stroke: #00ff00; stroke-width: 0.72; stroke-linejoin: miter"/>
   </g>
   <g id="line2d_2">
    <path d="M 70.417773 394.204669 
L 114.727027 394.204669 
" clip-path="url(#pc744fa13ba)" style="fill: none; stroke: #ff0000; stroke-width: 0.72; stroke-linecap: square"/>
   </g>
   <g id="line2d_3">
    <path d="M 114.727027 404.543495 
L 114.727027 137.210992 
" clip-path="url(#pc744fa13ba)" style="fill: none; stroke: #ffff00; stroke-width: 0.72; stroke-linecap: square"/>
   </g>
   <g id="line2d_4">
    <path d="M 218.115288 404.543495 
L 218.115288 137.210992 
" clip-path="url(#pc744fa13ba)" style="fill: none; stroke: #ffff00; stroke-width: 0.72; stroke-linecap: square"/>
   </g>
   <g id="line2d_5">
    <path d="M 87.033743 404.543495 
L 87.033743 137.210992 
" clip-path="url(#pc744fa13ba)" style="fill: none; stroke: #ffff00; stroke-width: 0.72; stroke-linecap: square"/>
   </g>
   <g id="line2d_6">
    <path d="M 88.584567 404.543495 
L 88.584567 137.210992 
" clip-path="url(#pc744fa13ba)" style="fill: none; stroke: #ffff00; stroke-width: 0.72; stroke-linecap: square"/>
   </g>
   <g id="patch_4">
    <path d="M 218.115288 153.457719 
L 218.115288 138.687967 
L 87.033743 138.687967 
L 87.033743 153.457719 
L 218.115288 153.457719 
" clip-path="url(#pc744fa13ba)" style="fill: none; stroke: #ff00ff; stroke-width: 0.72; stroke-linejoin: miter"/>
   </g>
   <g id="patch_5">
    <path d="M 87.033743 153.457719 
L 87.033743 138.687967 
L 88.584567 138.687967 
L 88.584567 153.457719 
L 87.033743 153.457719 
" clip-path="url(#pc744fa13ba)" style="fill: none; stroke: #ff00ff; stroke-width: 0.72; stroke-linejoin: miter"/>
   </g>
   <g id="patch_6">
    <path d="M 159.036282 73.70106 
L 173.806034 73.70106 
L 173.806034 36.776681 
L 159.036282 36.776681 
L 159.036282 73.70106 
" clip-path="url(#pc744fa13ba)" style="fill: none; stroke: #808080; stroke-width: 0.72; stroke-linejoin: miter"/>
   </g>
   <g id="patch_7">
    <path d="M 92.5724 389.773744 
L 92.5724 397.15862 
L 88.879962 393.466182 
L 92.5724 389.773744 
" clip-path="url(#pc744fa13ba)" style="fill: none; stroke: #ff0000; stroke-width: 0.72; stroke-linejoin: miter"/>
   </g>
   <g id="patch_8">
    <path d="M 32.326876 391.42854 
Q 32.02463 392.826428 31.170785 393.536706 
Q 30.31694 394.246984 29.085288 394.246984 
Q 28.072764 394.246984 27.203807 393.725609 
Q 26.33485 393.204235 25.92304 392.150152 
Q 25.51123 391.09607 25.51123 389.68307 
Q 25.51123 388.587428 25.858813 387.556014 
Q 26.206395 386.5246 27.064018 385.912552 
Q 27.921641 385.300504 29.19863 385.300504 
Q 30.309384 385.300504 31.04233 385.852103 
Q 31.775277 386.403702 32.16064 387.612685 
L 33.603865 387.272659 
Q 33.158052 385.73876 32.02463 384.892472 
Q 30.891207 384.046183 29.228855 384.046183 
Q 27.762962 384.046183 26.542644 384.714902 
Q 25.322326 385.383621 24.661163 386.671945 
Q 24 387.960268 24 389.690626 
Q 24 391.277417 24.585602 392.660192 
Q 25.171203 394.042968 26.293291 394.772136 
Q 27.415379 395.501304 29.206186 395.501304 
Q 30.936544 395.501304 32.134194 394.553008 
Q 33.331843 393.604711 33.792768 391.798792 
L 32.326876 391.42854 
M 87.146733 395.312401 
L 91.37062 395.312401 
Q 92.428481 395.312401 93.157649 395.127275 
Q 93.886817 394.942149 94.370411 394.579454 
Q 94.854004 394.216759 95.182697 393.54804 
Q 95.511389 392.879321 95.511389 392.101037 
Q 95.511389 391.13385 94.971125 390.423572 
Q 94.43086 389.713295 93.425892 389.418605 
Q 94.204176 389.033241 94.589539 388.406081 
Q 94.974903 387.778921 94.974903 387.068643 
Q 94.974903 386.305472 94.540424 385.606528 
Q 94.105946 384.907584 93.338997 384.571335 
Q 92.572047 384.235087 91.302615 384.235087 
L 87.146733 384.235087 
L 87.146733 395.312401 
M 148.162632 395.312401 
L 149.424509 395.312401 
L 149.424509 384.235087 
L 148.071958 384.235087 
L 148.071958 388.209621 
Q 147.716819 387.718471 147.150108 387.412447 
Q 146.583397 387.106423 145.858007 387.106423 
Q 144.868151 387.106423 144.067199 387.627798 
Q 143.266248 388.149172 142.865772 389.127693 
Q 142.465296 390.106214 142.465296 391.307642 
Q 142.465296 392.539294 142.907331 393.487591 
Q 143.349365 394.435887 144.154095 394.964818 
Q 144.958825 395.493748 145.918456 395.493748 
Q 147.399461 395.493748 148.162632 394.299877 
L 148.162632 395.312401 
M 109.407146 395.312401 
L 110.767253 395.312401 
L 110.767253 392.131262 
L 111.726884 391.209412 
L 114.379092 395.312401 
L 116.056557 395.312401 
L 112.678959 390.264893 
L 115.746755 387.287771 
L 113.986172 387.287771 
L 110.767253 390.552027 
L 110.767253 384.235087 
L 109.407146 384.235087 
L 109.407146 395.312401 
M 117.137086 395.312401 
L 118.497193 395.312401 
L 118.497193 390.922278 
Q 118.497193 389.97776 118.723877 389.441273 
Q 118.950562 388.904787 119.48327 388.591206 
Q 120.015979 388.277626 120.620471 388.277626 
Q 121.428979 388.277626 121.871013 388.742329 
Q 122.313048 389.207033 122.313048 390.227113 
L 122.313048 395.312401 
L 123.673155 395.312401 
L 123.673155 390.227113 
Q 123.673155 389.048353 123.389799 388.428749 
Q 123.106443 387.809145 122.449059 387.457784 
Q 121.791674 387.106423 120.900048 387.106423 
Q 119.449268 387.106423 118.497193 388.209621 
L 118.497193 384.235087 
L 117.137086 384.235087 
L 117.137086 395.312401 
M 65.014774 391.300086 
Q 65.014774 393.33269 66.053744 394.413219 
Q 67.092715 395.493748 68.777736 395.493748 
Q 69.828041 395.493748 70.715888 395.002598 
Q 71.603735 394.511449 72.068439 393.623601 
Q 72.533142 392.735754 72.533142 391.186743 
Q 72.533142 389.275038 71.482837 388.190731 
Q 70.432532 387.106423 68.777736 387.106423 
Q 67.289175 387.106423 66.253982 387.998049 
Q 65.014774 389.071022 65.014774 391.300086 
M 34.918635 391.300086 
Q 34.918635 393.33269 35.957605 394.413219 
Q 36.996575 395.493748 38.681596 395.493748 
Q 39.731901 395.493748 40.619749 395.002598 
Q 41.507596 394.511449 41.972299 393.623601 
Q 42.437002 392.735754 42.437002 391.186743 
Q 42.437002 389.275038 41.386698 388.190731 
Q 40.336393 387.106423 38.681596 387.106423 
Q 37.193035 387.106423 36.157843 387.998049 
Q 34.918635 389.071022 34.918635 391.300086 
M 131.236859 392.728198 
Q 130.927057 393.589599 130.398127 393.982518 
Q 129.869196 394.375438 129.121138 394.375438 
Q 128.11617 394.375438 127.443673 393.672716 
Q 126.771175 392.969995 126.695614 391.647669 
L 132.680084 391.647669 
Q 132.68764 391.405872 132.68764 391.284973 
Q 132.68764 389.297706 131.66756 388.202065 
Q 130.64748 387.106423 129.03802 387.106423 
Q 127.375667 387.106423 126.332919 388.224733 
Q 125.29017 389.343043 125.29017 391.368091 
Q 125.29017 393.325134 126.321585 394.409441 
Q 127.352999 395.493748 129.113582 395.493748 
Q 130.511469 395.493748 131.410651 394.813695 
Q 132.309832 394.133641 132.642303 392.901989 
L 131.236859 392.728198 
M 139.586403 394.322545 
Q 139.646852 394.889256 139.858425 395.312401 
L 141.278981 395.312401 
Q 141.022072 394.851476 140.935176 394.348992 
Q 140.84828 393.846508 140.84828 391.949914 
L 140.84828 390.136439 
Q 140.84828 389.229701 140.780275 388.882118 
Q 140.659376 388.322963 140.35713 387.95649 
Q 140.054885 387.590017 139.412612 387.34822 
Q 138.770339 387.106423 137.742703 387.106423 
Q 136.707511 387.106423 135.921671 387.389779 
Q 135.135832 387.673134 134.720244 388.198287 
Q 134.304656 388.723439 134.123308 389.577284 
L 135.45319 389.758631 
Q 135.672318 388.904787 136.129465 388.568538 
Q 136.586612 388.232289 137.546243 388.232289 
Q 138.573879 388.232289 139.095254 388.693214 
Q 139.480617 389.033241 139.480617 389.864418 
Q 139.480617 389.939979 139.473061 390.219556 
Q 138.694778 390.491578 137.047537 390.688038 
Q 136.23903 390.786268 135.838554 390.892054 
Q 135.294511 391.043177 134.860032 391.337866 
Q 134.425554 391.632556 134.157311 392.119928 
Q 133.889067 392.607299 133.889067 393.196679 
Q 133.889067 394.201647 134.599345 394.847697 
Q 135.309623 395.493748 136.631949 395.493748 
Q 137.432901 395.493748 138.131845 395.229283 
Q 138.830788 394.964818 139.586403 394.322545 
M 53.80145 392.917101 
Q 54.028134 394.194091 54.847976 394.843919 
Q 55.667818 395.493748 57.231941 395.493748 
Q 58.17646 395.493748 58.924518 395.165056 
Q 59.672577 394.836363 60.069275 394.235649 
Q 60.465973 393.634936 60.465973 392.954882 
Q 60.465973 392.259717 60.141058 391.791235 
Q 59.816144 391.322754 59.245655 391.077179 
Q 58.675165 390.831605 57.231941 390.446241 
Q 56.234529 390.17422 56.030513 390.098658 
Q 55.675374 389.955091 55.509139 389.735963 
Q 55.342904 389.524391 55.342904 389.259926 
Q 55.342904 388.844337 55.74338 388.534535 
Q 56.143856 388.224733 57.080818 388.224733 
Q 57.874214 388.224733 58.308692 388.572316 
Q 58.743171 388.919899 58.833844 389.539503 
L 60.163727 389.358156 
Q 60.035272 388.579872 59.695245 388.115169 
Q 59.355219 387.650466 58.641163 387.378445 
Q 57.927107 387.106423 56.982588 387.106423 
Q 56.355428 387.106423 55.807607 387.268881 
Q 55.259786 387.431338 54.942428 387.665578 
Q 54.519284 387.967824 54.273709 388.424971 
Q 54.028134 388.882118 54.028134 389.418605 
Q 54.028134 390.007984 54.326602 390.495356 
Q 54.62507 390.982727 55.203115 391.258527 
Q 55.781161 391.534326 57.277278 391.912134 
Q 58.388032 392.191711 58.667609 392.373059 
Q 59.068085 392.637524 59.068085 393.098449 
Q 59.068085 393.612267 58.614716 393.993853 
Q 58.161347 394.375438 57.224385 394.375438 
Q 56.294979 394.375438 55.777382 393.944738 
Q 55.259786 393.514037 55.146444 392.705529 
L 53.80145 392.917101 
M 74.127489 395.312401 
L 75.487596 395.312401 
L 75.487596 390.929834 
Q 75.487596 389.38838 76.118534 388.836781 
Q 76.749473 388.285182 77.61843 388.285182 
Q 78.162472 388.285182 78.566726 388.530757 
Q 78.97098 388.776332 79.129659 389.188142 
Q 79.288338 389.599952 79.288338 390.431129 
L 79.288338 395.312401 
L 80.648445 395.312401 
L 80.648445 390.378236 
Q 80.648445 389.433717 80.572884 389.05591 
Q 80.451985 388.474086 80.149739 388.050942 
Q 79.847493 387.627798 79.239223 387.36711 
Q 78.630954 387.106423 77.905563 387.106423 
Q 76.235654 387.106423 75.351585 388.428749 
L 75.351585 387.287771 
L 74.127489 387.287771 
L 74.127489 395.312401 
M 102.614169 395.312401 
L 103.830709 395.312401 
L 103.830709 387.287771 
L 102.470602 387.287771 
L 102.470602 391.587219 
Q 102.470602 392.614856 102.247696 393.15512 
Q 102.024789 393.695385 101.488303 394.008965 
Q 100.951816 394.322545 100.339768 394.322545 
Q 99.72772 394.322545 99.312132 394.016521 
Q 98.896544 393.710497 98.768089 393.174011 
Q 98.684972 392.803759 98.684972 391.738342 
L 98.684972 387.287771 
L 97.324865 387.287771 
L 97.324865 392.259717 
Q 97.324865 393.128674 97.407982 393.52915 
Q 97.528881 394.126085 97.827349 394.537895 
Q 98.125817 394.949705 98.741643 395.221727 
Q 99.357469 395.493748 100.067747 395.493748 
Q 101.677206 395.493748 102.614169 394.133641 
L 102.614169 395.312401 
M 47.439173 395.312401 
L 48.799279 395.312401 
L 48.799279 384.235087 
L 47.439173 384.235087 
L 47.439173 395.312401 
M 44.001125 395.312401 
L 45.361232 395.312401 
L 45.361232 384.235087 
L 44.001125 384.235087 
L 44.001125 395.312401 
M 105.931318 395.312401 
L 107.291425 395.312401 
L 107.291425 384.235087 
L 105.931318 384.235087 
L 105.931318 395.312401 
M 62.090544 395.312401 
L 63.450651 395.312401 
L 63.450651 387.287771 
L 62.090544 387.287771 
L 62.090544 395.312401 
M 50.915001 395.312401 
L 52.275108 395.312401 
L 52.275108 387.287771 
L 50.915001 387.287771 
L 50.915001 395.312401 
M 62.090544 385.79921 
L 63.450651 385.79921 
L 63.450651 384.235087 
L 62.090544 384.235087 
L 62.090544 385.79921 
M 50.915001 385.79921 
L 52.275108 385.79921 
L 52.275108 384.235087 
L 50.915001 384.235087 
L 50.915001 385.79921 
M 88.612626 394.005187 
L 88.612626 390.196888 
L 91.17416 390.196888 
Q 92.232021 390.196888 92.794954 390.382014 
Q 93.357887 390.567139 93.675245 391.024286 
Q 93.992603 391.481433 93.992603 392.101037 
Q 93.992603 392.629968 93.773475 393.034222 
Q 93.554347 393.438476 93.21432 393.650048 
Q 92.874293 393.86162 92.368031 393.952294 
Q 92.080898 394.005187 91.37062 394.005187 
L 88.612626 394.005187 
M 88.612626 388.889674 
L 88.612626 385.542301 
L 90.826577 385.542301 
Q 92.020449 385.542301 92.511598 385.697202 
Q 93.002748 385.852103 93.267213 386.271469 
Q 93.531678 386.690835 93.531678 387.242434 
Q 93.531678 387.824257 93.248323 388.209621 
Q 92.964967 388.594985 92.405812 388.76122 
Q 91.982668 388.889674 91.007925 388.889674 
L 88.612626 388.889674 
M 143.863183 391.307642 
Q 143.863183 389.713295 144.471453 388.972792 
Q 145.079723 388.232289 145.986461 388.232289 
Q 146.915867 388.232289 147.550584 389.003017 
Q 148.1853 389.773744 148.1853 391.420984 
Q 148.1853 392.917101 147.561918 393.64627 
Q 146.938536 394.375438 146.04691 394.375438 
Q 145.162841 394.375438 144.513012 393.612267 
Q 143.863183 392.849096 143.863183 391.307642 
M 66.412661 391.300086 
Q 66.412661 389.758631 67.085159 388.99546 
Q 67.757656 388.232289 68.777736 388.232289 
Q 69.782704 388.232289 70.458979 388.999239 
Q 71.135254 389.766188 71.135254 391.254749 
Q 71.135254 392.833984 70.462757 393.604711 
Q 69.79026 394.375438 68.777736 394.375438 
Q 67.757656 394.375438 67.085159 393.608489 
Q 66.412661 392.84154 66.412661 391.300086 
M 36.316522 391.300086 
Q 36.316522 389.758631 36.989019 388.99546 
Q 37.661516 388.232289 38.681596 388.232289 
Q 39.686564 388.232289 40.36284 388.999239 
Q 41.039115 389.766188 41.039115 391.254749 
Q 41.039115 392.833984 40.366618 393.604711 
Q 39.69412 394.375438 38.681596 394.375438 
Q 37.661516 394.375438 36.989019 393.608489 
Q 36.316522 392.84154 36.316522 391.300086 
M 126.771175 390.529359 
Q 126.839181 389.479054 127.477675 388.851894 
Q 128.11617 388.224733 129.053132 388.224733 
Q 130.088325 388.224733 130.738153 389.010573 
Q 131.161298 389.516835 131.251972 390.529359 
L 126.771175 390.529359 
M 139.473061 391.284973 
L 139.473061 391.783679 
Q 139.473061 392.682861 139.253933 393.143786 
Q 138.966799 393.740722 138.354751 394.084526 
Q 137.742703 394.428331 136.956864 394.428331 
Q 136.163468 394.428331 135.751658 394.065636 
Q 135.339848 393.702941 135.339848 393.158898 
Q 135.339848 392.803759 135.528752 392.512848 
Q 135.717655 392.221936 136.065238 392.070813 
Q 136.412821 391.91969 137.251553 391.798792 
Q 138.732559 391.587219 139.473061 391.284973 
" clip-path="url(#pc744fa13ba)" style="fill: #ff0000"/>
   </g>
   <g id="patch_9">
    <path d="M 224.934712 395.312401 
L 226.400605 395.312401 
L 226.400605 390.393348 
L 228.100739 390.393348 
Q 228.66745 390.393348 228.916803 390.446241 
Q 229.256829 390.529359 229.585522 390.740931 
Q 229.914214 390.952503 230.329802 391.481433 
Q 230.745391 392.010364 231.387663 393.007775 
L 232.853556 395.312401 
L 234.697256 395.312401 
L 232.770438 392.297497 
Q 232.196171 391.413428 231.553898 390.824048 
Q 231.251652 390.552027 230.669829 390.27245 
Q 232.264176 390.053321 233.027347 389.244813 
Q 233.790518 388.436305 233.790518 387.257546 
Q 233.790518 386.343252 233.329593 385.587637 
Q 232.868668 384.832023 232.097941 384.533555 
Q 231.327214 384.235087 229.846209 384.235087 
L 224.934712 384.235087 
L 224.934712 395.312401 
M 172.457261 395.312401 
L 180.723688 395.312401 
L 180.723688 394.005187 
L 173.923154 394.005187 
L 173.923154 390.234669 
L 180.05119 390.234669 
L 180.05119 388.935011 
L 173.923154 388.935011 
L 173.923154 385.542301 
L 180.466779 385.542301 
L 180.466779 384.235087 
L 172.457261 384.235087 
L 172.457261 395.312401 
M 253.126702 395.312401 
L 254.486809 395.312401 
L 254.486809 391.148963 
Q 254.486809 390.053321 254.705937 389.471498 
Q 254.925066 388.889674 255.412437 388.587428 
Q 255.899809 388.285182 256.474076 388.285182 
Q 257.229691 388.285182 257.562161 388.738551 
Q 257.894632 389.19192 257.894632 390.098658 
L 257.894632 395.312401 
L 259.254739 395.312401 
L 259.254739 390.650257 
Q 259.254739 389.411049 259.813894 388.848116 
Q 260.373049 388.285182 261.219337 388.285182 
Q 261.687819 388.285182 262.035401 388.504311 
Q 262.382984 388.723439 262.515217 389.082356 
Q 262.647449 389.441273 262.647449 390.257337 
L 262.647449 395.312401 
L 264 395.312401 
L 264 389.803968 
Q 264 388.428749 263.357727 387.767586 
Q 262.715455 387.106423 261.521583 387.106423 
Q 259.995241 387.106423 259.043167 388.511867 
Q 258.808926 387.846926 258.238437 387.476675 
Q 257.667948 387.106423 256.776322 387.106423 
Q 255.97537 387.106423 255.34821 387.46534 
Q 254.72105 387.824257 254.343242 388.413637 
L 254.343242 387.287771 
L 253.126702 387.287771 
L 253.126702 395.312401 
M 190.932044 395.977342 
Q 190.90182 397.276999 191.785889 397.92305 
Q 192.669958 398.569101 194.105627 398.569101 
Q 195.31461 398.569101 196.142009 398.115732 
Q 196.969407 397.662363 197.350992 396.880301 
Q 197.732578 396.09824 197.732578 394.224315 
L 197.732578 387.287771 
L 196.478257 387.287771 
L 196.478257 388.254958 
Q 195.556407 387.106423 194.135851 387.106423 
Q 193.070434 387.106423 192.280817 387.635354 
Q 191.491199 388.164284 191.075611 389.135249 
Q 190.660023 390.106214 190.660023 391.254749 
Q 190.660023 392.924658 191.566761 394.118529 
Q 192.473498 395.312401 194.128295 395.312401 
Q 195.458177 395.312401 196.349803 394.262096 
Q 196.357359 395.591978 196.251573 396.007566 
Q 196.070225 396.68762 195.556407 397.065427 
Q 195.042589 397.443234 194.09807 397.443234 
Q 193.221557 397.443234 192.715295 397.065427 
Q 192.337488 396.78585 192.25437 396.173801 
L 190.932044 395.977342 
M 235.407534 391.300086 
Q 235.407534 393.33269 236.446505 394.413219 
Q 237.485475 395.493748 239.170496 395.493748 
Q 240.220801 395.493748 241.108648 395.002598 
Q 241.996496 394.511449 242.461199 393.623601 
Q 242.925902 392.735754 242.925902 391.186743 
Q 242.925902 389.275038 241.875597 388.190731 
Q 240.825293 387.106423 239.170496 387.106423 
Q 237.681935 387.106423 236.646743 387.998049 
Q 235.407534 389.071022 235.407534 391.300086 
M 244.013987 391.300086 
Q 244.013987 393.33269 245.052958 394.413219 
Q 246.091928 395.493748 247.776949 395.493748 
Q 248.827254 395.493748 249.715101 395.002598 
Q 250.602949 394.511449 251.067652 393.623601 
Q 251.532355 392.735754 251.532355 391.186743 
Q 251.532355 389.275038 250.48205 388.190731 
Q 249.431746 387.106423 247.776949 387.106423 
Q 246.288388 387.106423 245.253196 387.998049 
Q 244.013987 389.071022 244.013987 391.300086 
M 217.325671 392.728198 
Q 217.015869 393.589599 216.486938 393.982518 
Q 215.958008 394.375438 215.209949 394.375438 
Q 214.204982 394.375438 213.532484 393.672716 
Q 212.859987 392.969995 212.784426 391.647669 
L 218.768895 391.647669 
Q 218.776451 391.405872 218.776451 391.284973 
Q 218.776451 389.297706 217.756371 388.202065 
Q 216.736291 387.106423 215.126832 387.106423 
Q 213.464479 387.106423 212.42173 388.224733 
Q 211.378982 389.343043 211.378982 391.368091 
Q 211.378982 393.325134 212.410396 394.409441 
Q 213.441811 395.493748 215.202393 395.493748 
Q 216.600281 395.493748 217.499462 394.813695 
Q 218.398644 394.133641 218.731114 392.901989 
L 217.325671 392.728198 
M 203.225898 395.312401 
L 204.586005 395.312401 
L 204.586005 390.929834 
Q 204.586005 389.38838 205.216943 388.836781 
Q 205.847881 388.285182 206.716838 388.285182 
Q 207.260881 388.285182 207.665135 388.530757 
Q 208.069389 388.776332 208.228068 389.188142 
Q 208.386747 389.599952 208.386747 390.431129 
L 208.386747 395.312401 
L 209.746854 395.312401 
L 209.746854 390.378236 
Q 209.746854 389.433717 209.671292 389.05591 
Q 209.550394 388.474086 209.248148 388.050942 
Q 208.945902 387.627798 208.337632 387.36711 
Q 207.729362 387.106423 207.003972 387.106423 
Q 205.334063 387.106423 204.449994 388.428749 
L 204.449994 387.287771 
L 203.225898 387.287771 
L 203.225898 395.312401 
M 182.574944 395.312401 
L 183.935051 395.312401 
L 183.935051 390.929834 
Q 183.935051 389.38838 184.565989 388.836781 
Q 185.196928 388.285182 186.065885 388.285182 
Q 186.609927 388.285182 187.014181 388.530757 
Q 187.418435 388.776332 187.577114 389.188142 
Q 187.735793 389.599952 187.735793 390.431129 
L 187.735793 395.312401 
L 189.0959 395.312401 
L 189.0959 390.378236 
Q 189.0959 389.433717 189.020339 389.05591 
Q 188.89944 388.474086 188.597194 388.050942 
Q 188.294948 387.627798 187.686678 387.36711 
Q 187.078408 387.106423 186.353018 387.106423 
Q 184.683109 387.106423 183.79904 388.428749 
L 183.79904 387.287771 
L 182.574944 387.287771 
L 182.574944 395.312401 
M 199.795406 395.312401 
L 201.155513 395.312401 
L 201.155513 387.287771 
L 199.795406 387.287771 
L 199.795406 395.312401 
M 199.795406 385.79921 
L 201.155513 385.79921 
L 201.155513 384.235087 
L 199.795406 384.235087 
L 199.795406 385.79921 
M 226.400605 389.123915 
L 226.400605 385.459183 
L 229.906658 385.459183 
Q 231.13831 385.459183 231.708799 385.965445 
Q 232.279289 386.471707 232.279289 387.257546 
Q 232.279289 387.794033 231.984599 388.25118 
Q 231.689909 388.708327 231.123198 388.916121 
Q 230.556487 389.123915 229.551519 389.123915 
L 226.400605 389.123915 
M 192.05791 391.156519 
Q 192.05791 389.705738 192.692627 388.969014 
Q 193.327343 388.232289 194.234081 388.232289 
Q 195.155931 388.232289 195.809538 388.980348 
Q 196.463145 389.728407 196.463145 391.201856 
Q 196.463145 392.74331 195.828428 393.464922 
Q 195.193712 394.186534 194.25675 394.186534 
Q 193.312231 394.186534 192.685071 393.461144 
Q 192.05791 392.735754 192.05791 391.156519 
M 236.805422 391.300086 
Q 236.805422 389.758631 237.477919 388.99546 
Q 238.150416 388.232289 239.170496 388.232289 
Q 240.175464 388.232289 240.851739 388.999239 
Q 241.528014 389.766188 241.528014 391.254749 
Q 241.528014 392.833984 240.855517 393.604711 
Q 240.18302 394.375438 239.170496 394.375438 
Q 238.150416 394.375438 237.477919 393.608489 
Q 236.805422 392.84154 236.805422 391.300086 
M 245.411875 391.300086 
Q 245.411875 389.758631 246.084372 388.99546 
Q 246.756869 388.232289 247.776949 388.232289 
Q 248.781917 388.232289 249.458192 388.999239 
Q 250.134468 389.766188 250.134468 391.254749 
Q 250.134468 392.833984 249.46197 393.604711 
Q 248.789473 394.375438 247.776949 394.375438 
Q 246.756869 394.375438 246.084372 393.608489 
Q 245.411875 392.84154 245.411875 391.300086 
M 212.859987 390.529359 
Q 212.927992 389.479054 213.566487 388.851894 
Q 214.204982 388.224733 215.141944 388.224733 
Q 216.177136 388.224733 216.826965 389.010573 
Q 217.250109 389.516835 217.340783 390.529359 
L 212.859987 390.529359 
" clip-path="url(#pc744fa13ba)" style="fill: #ff0000"/>
   </g>
   <g id="patch_10">
    <path d="M 86.21642 376.850211 
L 87.636976 376.850211 
L 89.261548 370.676838 
L 89.57135 372.044501 
L 90.848339 376.850211 
L 92.261339 376.850211 
L 94.76998 368.825581 
L 93.447654 368.825581 
L 92.072435 373.465057 
L 91.61151 375.014067 
L 91.211034 373.480169 
L 90.009606 368.825581 
L 88.611719 368.825581 
L 87.33473 373.525506 
Q 86.949366 375.051848 86.919142 375.180302 
L 86.443104 373.4575 
L 85.166115 368.825581 
L 83.760672 368.825581 
L 86.21642 376.850211 
M 61.77228 376.850211 
L 63.238172 376.850211 
L 63.238172 371.817816 
L 68.436802 371.817816 
L 68.436802 370.510603 
L 63.238172 370.510603 
L 63.238172 367.080111 
L 69.24531 367.080111 
L 69.24531 365.772897 
L 61.77228 365.772897 
L 61.77228 376.850211 
M 114.876891 376.850211 
L 116.138768 376.850211 
L 116.138768 365.772897 
L 114.786217 365.772897 
L 114.786217 369.747432 
Q 114.431078 369.256282 113.864367 368.950258 
Q 113.297656 368.644234 112.572266 368.644234 
Q 111.58241 368.644234 110.781459 369.165608 
Q 109.980507 369.686982 109.580031 370.665504 
Q 109.179555 371.644025 109.179555 372.845452 
Q 109.179555 374.077105 109.62159 375.025401 
Q 110.063624 375.973698 110.868354 376.502628 
Q 111.673084 377.031559 112.632715 377.031559 
Q 114.11372 377.031559 114.876891 375.837687 
L 114.876891 376.850211 
M 70.469406 372.837896 
Q 70.469406 374.8705 71.508377 375.951029 
Q 72.547347 377.031559 74.232368 377.031559 
Q 75.282673 377.031559 76.17052 376.540409 
Q 77.058368 376.049259 77.523071 375.161412 
Q 77.987774 374.273564 77.987774 372.724554 
Q 77.987774 370.812848 76.93747 369.728541 
Q 75.887165 368.644234 74.232368 368.644234 
Q 72.743807 368.644234 71.708615 369.535859 
Q 70.469406 370.608832 70.469406 372.837896 
M 101.147369 375.860356 
Q 101.207818 376.427067 101.419391 376.850211 
L 102.839947 376.850211 
Q 102.583037 376.389286 102.496142 375.886802 
Q 102.409246 375.384318 102.409246 373.487725 
L 102.409246 371.674249 
Q 102.409246 370.767512 102.341241 370.419929 
Q 102.220342 369.860774 101.918096 369.494301 
Q 101.61585 369.127827 100.973578 368.886031 
Q 100.331305 368.644234 99.303669 368.644234 
Q 98.268477 368.644234 97.482637 368.927589 
Q 96.696798 369.210945 96.28121 369.736097 
Q 95.865621 370.26125 95.684274 371.115094 
L 97.014156 371.296442 
Q 97.233284 370.442597 97.690431 370.106349 
Q 98.147578 369.7701 99.107209 369.7701 
Q 100.134845 369.7701 100.65622 370.231025 
Q 101.041583 370.571052 101.041583 371.402228 
Q 101.041583 371.47779 101.034027 371.757367 
Q 100.255744 372.029388 98.608503 372.225848 
Q 97.799995 372.324078 97.39952 372.429864 
Q 96.855477 372.580987 96.420998 372.875677 
Q 95.98652 373.170367 95.718277 373.657738 
Q 95.450033 374.14511 95.450033 374.73449 
Q 95.450033 375.739457 96.160311 376.385508 
Q 96.870589 377.031559 98.192915 377.031559 
Q 98.993867 377.031559 99.692811 376.767093 
Q 100.391754 376.502628 101.147369 375.860356 
M 104.502299 376.850211 
L 105.862406 376.850211 
L 105.862406 372.648993 
Q 105.862406 371.787592 106.08909 371.062201 
Q 106.240213 370.586164 106.595352 370.317921 
Q 106.950491 370.049677 107.396304 370.049677 
Q 107.89501 370.049677 108.393716 370.344367 
L 108.862197 369.08249 
Q 108.151919 368.644234 107.464309 368.644234 
Q 106.988272 368.644234 106.591574 368.916255 
Q 106.194876 369.188277 105.726395 370.042121 
L 105.726395 368.825581 
L 104.502299 368.825581 
L 104.502299 376.850211 
M 79.567009 376.850211 
L 80.927116 376.850211 
L 80.927116 372.648993 
Q 80.927116 371.787592 81.1538 371.062201 
Q 81.304923 370.586164 81.660062 370.317921 
Q 82.015201 370.049677 82.461014 370.049677 
Q 82.95972 370.049677 83.458426 370.344367 
L 83.926907 369.08249 
Q 83.216629 368.644234 82.529019 368.644234 
Q 82.052982 368.644234 81.656284 368.916255 
Q 81.259586 369.188277 80.791105 370.042121 
L 80.791105 368.825581 
L 79.567009 368.825581 
L 79.567009 376.850211 
M 110.577443 372.845452 
Q 110.577443 371.251105 111.185712 370.510603 
Q 111.793982 369.7701 112.70072 369.7701 
Q 113.630127 369.7701 114.264843 370.540827 
Q 114.899559 371.311554 114.899559 372.958795 
Q 114.899559 374.454912 114.276177 375.18408 
Q 113.652795 375.913249 112.761169 375.913249 
Q 111.8771 375.913249 111.227271 375.150078 
Q 110.577443 374.386907 110.577443 372.845452 
M 71.867294 372.837896 
Q 71.867294 371.296442 72.539791 370.533271 
Q 73.212288 369.7701 74.232368 369.7701 
Q 75.237336 369.7701 75.913611 370.537049 
Q 76.589887 371.303998 76.589887 372.792559 
Q 76.589887 374.371794 75.917389 375.142522 
Q 75.244892 375.913249 74.232368 375.913249 
Q 73.212288 375.913249 72.539791 375.1463 
Q 71.867294 374.379351 71.867294 372.837896 
M 101.034027 372.822784 
L 101.034027 373.32149 
Q 101.034027 374.220671 100.814899 374.681596 
Q 100.527765 375.278532 99.915717 375.622337 
Q 99.303669 375.966142 98.51783 375.966142 
Q 97.724434 375.966142 97.312624 375.603447 
Q 96.900814 375.240751 96.900814 374.696709 
Q 96.900814 374.34157 97.089718 374.050658 
Q 97.278621 373.759746 97.626204 373.608623 
Q 97.973787 373.4575 98.812519 373.336602 
Q 100.293524 373.12503 101.034027 372.822784 
" clip-path="url(#pc744fa13ba)" style="fill: #ff0000"/>
   </g>
   <g id="patch_11">
    <path d="M 68.319682 358.388022 
L 69.876249 358.388022 
L 71.092789 355.033092 
L 75.724708 355.033092 
L 77.016809 358.388022 
L 78.686718 358.388022 
L 74.153029 347.310708 
L 72.573794 347.310708 
L 68.319682 358.388022 
M 80.009044 358.388022 
L 81.361594 358.388022 
L 81.361594 351.421253 
L 82.925717 351.421253 
L 82.925717 350.363392 
L 81.361594 350.363392 
L 81.361594 349.622889 
Q 81.361594 348.897499 81.618503 348.633034 
Q 81.875413 348.368569 82.495017 348.368569 
Q 82.872824 348.368569 83.295968 348.44413 
L 83.499984 347.257815 
Q 82.804819 347.121804 82.230552 347.121804 
Q 81.338926 347.121804 80.843998 347.450497 
Q 80.349071 347.779189 80.152611 348.30812 
Q 80.009044 348.701039 80.009044 349.509547 
L 80.009044 350.363392 
L 78.807616 350.363392 
L 78.807616 351.421253 
L 80.009044 351.421253 
L 80.009044 358.388022 
M 86.953144 357.171482 
Q 86.582893 357.224375 86.356209 357.224375 
Q 86.053963 357.224375 85.891505 357.126145 
Q 85.729048 357.027915 85.657265 356.86168 
Q 85.585481 356.695444 85.585481 356.113621 
L 85.585481 351.421253 
L 86.953144 351.421253 
L 86.953144 350.363392 
L 85.585481 350.363392 
L 85.585481 347.560061 
L 84.232931 348.376125 
L 84.232931 350.363392 
L 83.235519 350.363392 
L 83.235519 351.421253 
L 84.232931 351.421253 
L 84.232931 356.038059 
Q 84.232931 357.262156 84.399166 357.643741 
Q 84.565401 358.025327 84.973433 358.259567 
Q 85.381465 358.493808 86.121968 358.493808 
Q 86.575337 358.493808 87.149604 358.372909 
L 86.953144 357.171482 
M 71.515933 353.83922 
L 72.732473 350.590076 
Q 73.117836 349.539772 73.329409 348.474355 
Q 73.586318 349.373537 74.115248 350.771424 
L 75.271339 353.83922 
L 71.515933 353.83922 
" clip-path="url(#pc744fa13ba)" style="fill: #ff0000"/>
   </g>
   <g id="patch_12">
    <path d="M 85.604372 351.003146 
L 87.070265 351.003146 
L 87.070265 347.164622 
L 88.88374 345.396484 
L 92.82805 351.003146 
L 94.762424 351.003146 
L 89.911376 344.414184 
L 94.558408 339.925832 
L 92.571141 339.925832 
L 87.070265 345.419152 
L 87.070265 339.925832 
L 85.604372 339.925832 
L 85.604372 351.003146 
M 101.306048 348.418943 
Q 100.996246 349.280344 100.467316 349.673264 
Q 99.938385 350.066183 99.190327 350.066183 
Q 98.185359 350.066183 97.512862 349.363462 
Q 96.840365 348.66074 96.764803 347.338414 
L 102.749273 347.338414 
Q 102.756829 347.096617 102.756829 346.975719 
Q 102.756829 344.988452 101.736749 343.89281 
Q 100.716669 342.797169 99.107209 342.797169 
Q 97.444856 342.797169 96.402108 343.915479 
Q 95.35936 345.033789 95.35936 347.058836 
Q 95.35936 349.015879 96.390774 350.100186 
Q 97.422188 351.184493 99.182771 351.184493 
Q 100.580658 351.184493 101.47984 350.50444 
Q 102.379021 349.824387 102.711492 348.592735 
L 101.306048 348.418943 
M 109.912501 348.418943 
Q 109.602699 349.280344 109.073769 349.673264 
Q 108.544839 350.066183 107.79678 350.066183 
Q 106.791812 350.066183 106.119315 349.363462 
Q 105.446818 348.66074 105.371256 347.338414 
L 111.355726 347.338414 
Q 111.363282 347.096617 111.363282 346.975719 
Q 111.363282 344.988452 110.343202 343.89281 
Q 109.323122 342.797169 107.713662 342.797169 
Q 106.05131 342.797169 105.008561 343.915479 
Q 103.965813 345.033789 103.965813 347.058836 
Q 103.965813 349.015879 104.997227 350.100186 
Q 106.028641 351.184493 107.789224 351.184493 
Q 109.187111 351.184493 110.086293 350.50444 
Q 110.985475 349.824387 111.317945 348.592735 
L 109.912501 348.418943 
M 112.99541 351.003146 
L 114.355517 351.003146 
L 114.355517 339.925832 
L 112.99541 339.925832 
L 112.99541 351.003146 
M 96.840365 346.220104 
Q 96.90837 345.169799 97.546864 344.542639 
Q 98.185359 343.915479 99.122321 343.915479 
Q 100.157514 343.915479 100.807343 344.701318 
Q 101.230487 345.20758 101.321161 346.220104 
L 96.840365 346.220104 
M 105.446818 346.220104 
Q 105.514823 345.169799 106.153318 344.542639 
Q 106.791812 343.915479 107.728775 343.915479 
Q 108.763967 343.915479 109.413796 344.701318 
Q 109.83694 345.20758 109.927614 346.220104 
L 105.446818 346.220104 
" clip-path="url(#pc744fa13ba)" style="fill: #ff0000"/>
   </g>
   <g id="patch_13">
    <path d="M 106.919007 321.463643 
L 111.142894 321.463643 
Q 112.200755 321.463643 112.929923 321.278517 
Q 113.659092 321.093391 114.142685 320.730696 
Q 114.626279 320.368001 114.954971 319.699282 
Q 115.283664 319.030563 115.283664 318.25228 
Q 115.283664 317.285093 114.743399 316.574815 
Q 114.203134 315.864537 113.198167 315.569847 
Q 113.97645 315.184483 114.361814 314.557323 
Q 114.747177 313.930163 114.747177 313.219885 
Q 114.747177 312.456714 114.312699 311.75777 
Q 113.87822 311.058826 113.111271 310.722578 
Q 112.344322 310.386329 111.074889 310.386329 
L 106.919007 310.386329 
L 106.919007 321.463643 
M 46.696504 321.463643 
L 50.920391 321.463643 
Q 51.978252 321.463643 52.70742 321.278517 
Q 53.436588 321.093391 53.920182 320.730696 
Q 54.403775 320.368001 54.732468 319.699282 
Q 55.06116 319.030563 55.06116 318.25228 
Q 55.06116 317.285093 54.520896 316.574815 
Q 53.980631 315.864537 52.975663 315.569847 
Q 53.753947 315.184483 54.13931 314.557323 
Q 54.524674 313.930163 54.524674 313.219885 
Q 54.524674 312.456714 54.090195 311.75777 
Q 53.655717 311.058826 52.888768 310.722578 
Q 52.121819 310.386329 50.852386 310.386329 
L 46.696504 310.386329 
L 46.696504 321.463643 
M 127.214822 321.463643 
L 128.635378 321.463643 
L 130.25995 315.290269 
L 130.569752 316.657932 
L 131.846741 321.463643 
L 133.259741 321.463643 
L 135.768382 313.439013 
L 134.446056 313.439013 
L 133.070837 318.078488 
L 132.609912 319.627499 
L 132.209436 318.093601 
L 131.008009 313.439013 
L 129.610121 313.439013 
L 128.333132 318.138937 
Q 127.947769 319.665279 127.917544 319.793734 
L 127.441507 318.070932 
L 126.164518 313.439013 
L 124.759074 313.439013 
L 127.214822 321.463643 
M 70.203682 321.463643 
L 70.203682 320.458675 
Q 71.01219 321.64499 72.432746 321.64499 
Q 73.860858 321.64499 74.880938 320.519124 
Q 75.901018 319.393258 75.901018 317.33043 
Q 75.901018 316.461472 75.659221 315.698301 
Q 75.417424 314.93513 74.990502 314.394866 
Q 74.56358 313.854601 73.902417 313.556133 
Q 73.241254 313.257666 72.500751 313.257666 
Q 71.163313 313.257666 70.301912 314.338195 
L 70.301912 310.386329 
L 68.941805 310.386329 
L 68.941805 321.463643 
L 70.203682 321.463643 
M 116.621102 317.451328 
Q 116.621102 319.483932 117.660072 320.564461 
Q 118.699043 321.64499 120.384064 321.64499 
Q 121.434369 321.64499 122.322216 321.153841 
Q 123.210063 320.662691 123.674767 319.774844 
Q 124.13947 318.886996 124.13947 317.337986 
Q 124.13947 315.42628 123.089165 314.341973 
Q 122.03886 313.257666 120.384064 313.257666 
Q 118.895503 313.257666 117.86031 314.149291 
Q 116.621102 315.222264 116.621102 317.451328 
M 77.049552 317.451328 
Q 77.049552 319.483932 78.088523 320.564461 
Q 79.127493 321.64499 80.812514 321.64499 
Q 81.862819 321.64499 82.750666 321.153841 
Q 83.638514 320.662691 84.103217 319.774844 
Q 84.56792 318.886996 84.56792 317.337986 
Q 84.56792 315.42628 83.517615 314.341973 
Q 82.467311 313.257666 80.812514 313.257666 
Q 79.323953 313.257666 78.288761 314.149291 
Q 77.049552 315.222264 77.049552 317.451328 
M 94.224678 319.068344 
Q 94.451362 320.345333 95.271204 320.995162 
Q 96.091047 321.64499 97.655169 321.64499 
Q 98.599688 321.64499 99.347747 321.316298 
Q 100.095805 320.987605 100.492503 320.386892 
Q 100.889201 319.786178 100.889201 319.106124 
Q 100.889201 318.410959 100.564286 317.942478 
Q 100.239372 317.473996 99.668883 317.228422 
Q 99.098394 316.982847 97.655169 316.597483 
Q 96.657758 316.325462 96.453742 316.2499 
Q 96.098603 316.106333 95.932367 315.887205 
Q 95.766132 315.675633 95.766132 315.411168 
Q 95.766132 314.99558 96.166608 314.685778 
Q 96.567084 314.375975 97.504046 314.375975 
Q 98.297442 314.375975 98.73192 314.723558 
Q 99.166399 315.071141 99.257073 315.690745 
L 100.586955 315.509398 
Q 100.4585 314.731114 100.118474 314.266411 
Q 99.778447 313.801708 99.064391 313.529687 
Q 98.350335 313.257666 97.405816 313.257666 
Q 96.778656 313.257666 96.230835 313.420123 
Q 95.683015 313.58258 95.365656 313.81682 
Q 94.942512 314.119066 94.696937 314.576213 
Q 94.451362 315.03336 94.451362 315.569847 
Q 94.451362 316.159227 94.74983 316.646598 
Q 95.048298 317.13397 95.626343 317.409769 
Q 96.204389 317.685569 97.700506 318.063376 
Q 98.81126 318.342953 99.090837 318.524301 
Q 99.491313 318.788766 99.491313 319.249691 
Q 99.491313 319.763509 99.037944 320.145095 
Q 98.584576 320.52668 97.647613 320.52668 
Q 96.718207 320.52668 96.200611 320.09598 
Q 95.683015 319.665279 95.569672 318.856772 
L 94.224678 319.068344 
M 91.421347 321.463643 
L 92.637887 321.463643 
L 92.637887 313.439013 
L 91.27778 313.439013 
L 91.27778 317.738462 
Q 91.27778 318.766098 91.054874 319.306362 
Q 90.831967 319.846627 90.295481 320.160207 
Q 89.758994 320.473787 89.146946 320.473787 
Q 88.534898 320.473787 88.11931 320.167763 
Q 87.703722 319.861739 87.575267 319.325253 
Q 87.49215 318.955001 87.49215 317.889585 
L 87.49215 313.439013 
L 86.132043 313.439013 
L 86.132043 318.410959 
Q 86.132043 319.279916 86.21516 319.680392 
Q 86.336059 320.277327 86.634527 320.689138 
Q 86.932995 321.100948 87.548821 321.372969 
Q 88.164647 321.64499 88.874925 321.64499 
Q 90.484384 321.64499 91.421347 320.284884 
L 91.421347 321.463643 
M 62.16394 321.463643 
L 63.38048 321.463643 
L 63.38048 313.439013 
L 62.020373 313.439013 
L 62.020373 317.738462 
Q 62.020373 318.766098 61.797467 319.306362 
Q 61.57456 319.846627 61.038074 320.160207 
Q 60.501587 320.473787 59.889539 320.473787 
Q 59.277491 320.473787 58.861903 320.167763 
Q 58.446315 319.861739 58.31786 319.325253 
Q 58.234743 318.955001 58.234743 317.889585 
L 58.234743 313.439013 
L 56.874636 313.439013 
L 56.874636 318.410959 
Q 56.874636 319.279916 56.957754 319.680392 
Q 57.078652 320.277327 57.37712 320.689138 
Q 57.675588 321.100948 58.291414 321.372969 
Q 58.90724 321.64499 59.617518 321.64499 
Q 61.226977 321.64499 62.16394 320.284884 
L 62.16394 321.463643 
M 65.481089 321.463643 
L 66.841196 321.463643 
L 66.841196 310.386329 
L 65.481089 310.386329 
L 65.481089 321.463643 
M 108.3849 320.156429 
L 108.3849 316.34813 
L 110.946434 316.34813 
Q 112.004295 316.34813 112.567228 316.533256 
Q 113.130161 316.718382 113.44752 317.175528 
Q 113.764878 317.632675 113.764878 318.25228 
Q 113.764878 318.78121 113.54575 319.185464 
Q 113.326621 319.589718 112.986595 319.80129 
Q 112.646568 320.012862 112.140306 320.103536 
Q 111.853172 320.156429 111.142894 320.156429 
L 108.3849 320.156429 
M 108.3849 315.040917 
L 108.3849 311.693543 
L 110.598852 311.693543 
Q 111.792723 311.693543 112.283873 311.848444 
Q 112.775022 312.003345 113.039488 312.422711 
Q 113.303953 312.842077 113.303953 313.393676 
Q 113.303953 313.9755 113.020597 314.360863 
Q 112.737242 314.746227 112.178087 314.912462 
Q 111.754942 315.040917 110.780199 315.040917 
L 108.3849 315.040917 
M 48.162397 320.156429 
L 48.162397 316.34813 
L 50.723931 316.34813 
Q 51.781792 316.34813 52.344725 316.533256 
Q 52.907658 316.718382 53.225016 317.175528 
Q 53.542374 317.632675 53.542374 318.25228 
Q 53.542374 318.78121 53.323246 319.185464 
Q 53.104118 319.589718 52.764091 319.80129 
Q 52.424064 320.012862 51.917803 320.103536 
Q 51.630669 320.156429 50.920391 320.156429 
L 48.162397 320.156429 
M 48.162397 315.040917 
L 48.162397 311.693543 
L 50.376348 311.693543 
Q 51.57022 311.693543 52.061369 311.848444 
Q 52.552519 312.003345 52.816984 312.422711 
Q 53.081449 312.842077 53.081449 313.393676 
Q 53.081449 313.9755 52.798094 314.360863 
Q 52.514738 314.746227 51.955583 314.912462 
Q 51.532439 315.040917 50.557696 315.040917 
L 48.162397 315.040917 
M 70.18857 317.390879 
Q 70.18857 315.924986 70.838398 315.150481 
Q 71.488227 314.375975 72.379853 314.375975 
Q 73.263922 314.375975 73.887304 315.124034 
Q 74.510686 315.872093 74.510686 317.443772 
Q 74.510686 318.97767 73.860858 319.752175 
Q 73.211029 320.52668 72.319403 320.52668 
Q 71.223762 320.52668 70.581489 319.476376 
Q 70.18857 318.834103 70.18857 317.390879 
M 118.018989 317.451328 
Q 118.018989 315.909874 118.691487 315.146703 
Q 119.363984 314.383532 120.384064 314.383532 
Q 121.389032 314.383532 122.065307 315.150481 
Q 122.741582 315.91743 122.741582 317.405991 
Q 122.741582 318.985226 122.069085 319.755953 
Q 121.396588 320.52668 120.384064 320.52668 
Q 119.363984 320.52668 118.691487 319.759731 
Q 118.018989 318.992782 118.018989 317.451328 
M 78.44744 317.451328 
Q 78.44744 315.909874 79.119937 315.146703 
Q 79.792434 314.383532 80.812514 314.383532 
Q 81.817482 314.383532 82.493757 315.150481 
Q 83.170033 315.91743 83.170033 317.405991 
Q 83.170033 318.985226 82.497535 319.755953 
Q 81.825038 320.52668 80.812514 320.52668 
Q 79.792434 320.52668 79.119937 319.759731 
Q 78.44744 318.992782 78.44744 317.451328 
" clip-path="url(#pc744fa13ba)" style="fill: #ff0000"/>
   </g>
   <g id="patch_14">
    <path d="M 94.214603 111.128175 
Q 94.244828 112.238929 94.822873 113.11922 
Q 95.400918 113.999511 96.41722 114.437768 
Q 97.433522 114.876025 98.937196 114.876025 
Q 100.123511 114.876025 101.071808 114.441546 
Q 102.020104 114.007068 102.526366 113.225006 
Q 103.032628 112.442945 103.032628 111.558875 
Q 103.032628 110.66725 102.571703 109.983418 
Q 102.110778 109.299587 101.143591 108.853774 
Q 100.47865 108.551528 98.691621 108.147274 
Q 96.904592 107.74302 96.481448 107.357657 
Q 96.050747 106.972293 96.050747 106.375358 
Q 96.050747 105.687748 96.659017 105.200376 
Q 97.267287 104.713005 98.597169 104.713005 
Q 99.874158 104.713005 100.527765 105.249491 
Q 101.181372 105.785978 101.294714 106.836283 
L 102.700158 106.730497 
Q 102.662377 105.755753 102.156115 104.985026 
Q 101.649853 104.214299 100.709113 103.817601 
Q 99.768372 103.420903 98.53672 103.420903 
Q 97.41841 103.420903 96.504116 103.798711 
Q 95.589822 104.176518 95.113785 104.905687 
Q 94.637747 105.634855 94.637747 106.473587 
Q 94.637747 107.236758 95.026889 107.852585 
Q 95.416031 108.468411 96.209426 108.883999 
Q 96.821474 109.208913 98.347816 109.575386 
Q 99.874158 109.94186 100.319971 110.115651 
Q 101.015137 110.380116 101.317383 110.769258 
Q 101.619629 111.1584 101.619629 111.679774 
Q 101.619629 112.193592 101.306048 112.62807 
Q 100.992468 113.062549 100.350196 113.311902 
Q 99.707923 113.561255 98.86919 113.561255 
Q 97.924672 113.561255 97.169057 113.232562 
Q 96.413442 112.90387 96.054525 112.371161 
Q 95.695608 111.838453 95.597378 111.007277 
L 94.214603 111.128175 
M 113.467669 117.762473 
L 114.827776 117.762473 
L 114.827776 113.855945 
Q 115.175359 114.294201 115.715624 114.581335 
Q 116.255888 114.868468 116.935941 114.868468 
Q 117.865348 114.868468 118.707858 114.343316 
Q 119.550369 113.818164 119.992404 112.832086 
Q 120.434438 111.846009 120.434438 110.614357 
Q 120.434438 109.465822 120.033962 108.502413 
Q 119.633486 107.539004 118.847647 107.010074 
Q 118.061808 106.481144 117.034171 106.481144 
Q 116.248332 106.481144 115.696733 106.787168 
Q 115.145134 107.093192 114.706878 107.70524 
L 114.706878 106.662491 
L 113.467669 106.662491 
L 113.467669 117.762473 
M 192.920571 112.102918 
Q 192.610769 112.964319 192.081838 113.357239 
Q 191.552908 113.750158 190.804849 113.750158 
Q 189.799881 113.750158 189.127384 113.047437 
Q 188.454887 112.344715 188.379325 111.022389 
L 194.363795 111.022389 
Q 194.371351 110.780592 194.371351 110.659694 
Q 194.371351 108.672427 193.351271 107.576785 
Q 192.331191 106.481144 190.721731 106.481144 
Q 189.059379 106.481144 188.01663 107.599454 
Q 186.973882 108.717764 186.973882 110.742811 
Q 186.973882 112.699854 188.005296 113.784161 
Q 189.03671 114.868468 190.797293 114.868468 
Q 192.19518 114.868468 193.094362 114.188415 
Q 193.993544 113.508362 194.326014 112.27671 
L 192.920571 112.102918 
M 127.567442 112.102918 
Q 127.25764 112.964319 126.72871 113.357239 
Q 126.19978 113.750158 125.451721 113.750158 
Q 124.446753 113.750158 123.774256 113.047437 
Q 123.101759 112.344715 123.026197 111.022389 
L 129.010667 111.022389 
Q 129.018223 110.780592 129.018223 110.659694 
Q 129.018223 108.672427 127.998143 107.576785 
Q 126.978063 106.481144 125.368603 106.481144 
Q 123.706251 106.481144 122.663502 107.599454 
Q 121.620754 108.717764 121.620754 110.742811 
Q 121.620754 112.699854 122.652168 113.784161 
Q 123.683582 114.868468 125.444165 114.868468 
Q 126.842052 114.868468 127.741234 114.188415 
Q 128.640415 113.508362 128.972886 112.27671 
L 127.567442 112.102918 
M 166.866971 111.747779 
Q 166.723404 112.767859 166.186917 113.259009 
Q 165.650431 113.750158 164.849479 113.750158 
Q 163.852067 113.750158 163.232463 113.017212 
Q 162.612859 112.284266 162.612859 110.66725 
Q 162.612859 109.072903 163.255132 108.336178 
Q 163.897404 107.599454 164.92504 107.599454 
Q 165.605094 107.599454 166.084909 108.007486 
Q 166.564725 108.415518 166.753628 109.224026 
L 168.075954 109.02001 
Q 167.841714 107.80347 167.010537 107.142307 
Q 166.179361 106.481144 164.872147 106.481144 
Q 163.836955 106.481144 162.956664 106.968515 
Q 162.076373 107.455887 161.645672 108.43063 
Q 161.214972 109.405373 161.214972 110.705031 
Q 161.214972 112.714966 162.216161 113.791717 
Q 163.217351 114.868468 164.864591 114.868468 
Q 166.179361 114.868468 167.082321 114.086407 
Q 167.985281 113.304346 168.204409 111.921571 
L 166.866971 111.747779 
M 135.289826 112.291822 
Q 135.516511 113.568811 136.336353 114.21864 
Q 137.156195 114.868468 138.720318 114.868468 
Q 139.664836 114.868468 140.412895 114.539776 
Q 141.160954 114.211084 141.557651 113.61037 
Q 141.954349 113.009656 141.954349 112.329603 
Q 141.954349 111.634437 141.629435 111.165956 
Q 141.30452 110.697474 140.734031 110.4519 
Q 140.163542 110.206325 138.720318 109.820961 
Q 137.722906 109.54894 137.51889 109.473378 
Q 137.163751 109.329812 136.997516 109.110683 
Q 136.83128 108.899111 136.83128 108.634646 
Q 136.83128 108.219058 137.231756 107.909256 
Q 137.632232 107.599454 138.569195 107.599454 
Q 139.36259 107.599454 139.797069 107.947036 
Q 140.231547 108.294619 140.322221 108.914223 
L 141.652103 108.732876 
Q 141.523649 107.954593 141.183622 107.489889 
Q 140.843595 107.025186 140.129539 106.753165 
Q 139.415483 106.481144 138.470965 106.481144 
Q 137.843804 106.481144 137.295984 106.643601 
Q 136.748163 106.806058 136.430805 107.040299 
Q 136.00766 107.342545 135.762085 107.799692 
Q 135.516511 108.256839 135.516511 108.793325 
Q 135.516511 109.382705 135.814978 109.870076 
Q 136.113446 110.357448 136.691492 110.633247 
Q 137.269537 110.909047 138.765654 111.286854 
Q 139.876408 111.566432 140.155986 111.747779 
Q 140.556462 112.012244 140.556462 112.473169 
Q 140.556462 112.986987 140.103093 113.368573 
Q 139.649724 113.750158 138.712761 113.750158 
Q 137.783355 113.750158 137.265759 113.319458 
Q 136.748163 112.888758 136.634821 112.08025 
L 135.289826 112.291822 
M 178.926584 114.687121 
L 180.143124 114.687121 
L 180.143124 106.662491 
L 178.783017 106.662491 
L 178.783017 110.96194 
Q 178.783017 111.989576 178.56011 112.52984 
Q 178.337204 113.070105 177.800717 113.383685 
Q 177.264231 113.697265 176.652183 113.697265 
Q 176.040135 113.697265 175.624547 113.391241 
Q 175.208959 113.085217 175.080504 112.548731 
Q 174.997386 112.17848 174.997386 111.113063 
L 174.997386 106.662491 
L 173.63728 106.662491 
L 173.63728 111.634437 
Q 173.63728 112.503394 173.720397 112.90387 
Q 173.841296 113.500806 174.139764 113.912616 
Q 174.438231 114.324426 175.054058 114.596447 
Q 175.669884 114.868468 176.380162 114.868468 
Q 177.989621 114.868468 178.926584 113.508362 
L 178.926584 114.687121 
M 158.283186 114.687121 
L 159.499726 114.687121 
L 159.499726 106.662491 
L 158.139619 106.662491 
L 158.139619 110.96194 
Q 158.139619 111.989576 157.916713 112.52984 
Q 157.693806 113.070105 157.15732 113.383685 
Q 156.620833 113.697265 156.008785 113.697265 
Q 155.396737 113.697265 154.981149 113.391241 
Q 154.565561 113.085217 154.437106 112.548731 
Q 154.353989 112.17848 154.353989 111.113063 
L 154.353989 106.662491 
L 152.993882 106.662491 
L 152.993882 111.634437 
Q 152.993882 112.503394 153.077 112.90387 
Q 153.197898 113.500806 153.496366 113.912616 
Q 153.794834 114.324426 154.41066 114.596447 
Q 155.026486 114.868468 155.736764 114.868468 
Q 157.346224 114.868468 158.283186 113.508362 
L 158.283186 114.687121 
M 110.120296 114.687121 
L 111.336835 114.687121 
L 111.336835 106.662491 
L 109.976729 106.662491 
L 109.976729 110.96194 
Q 109.976729 111.989576 109.753822 112.52984 
Q 109.530916 113.070105 108.994429 113.383685 
Q 108.457943 113.697265 107.845895 113.697265 
Q 107.233847 113.697265 106.818259 113.391241 
Q 106.402671 113.085217 106.274216 112.548731 
Q 106.191098 112.17848 106.191098 111.113063 
L 106.191098 106.662491 
L 104.830992 106.662491 
L 104.830992 111.634437 
Q 104.830992 112.503394 104.914109 112.90387 
Q 105.035008 113.500806 105.333476 113.912616 
Q 105.631943 114.324426 106.247769 114.596447 
Q 106.863596 114.868468 107.573874 114.868468 
Q 109.183333 114.868468 110.120296 113.508362 
L 110.120296 114.687121 
M 172.337622 113.470581 
Q 171.967371 113.523474 171.740686 113.523474 
Q 171.43844 113.523474 171.275983 113.425244 
Q 171.113526 113.327014 171.041743 113.160779 
Q 170.969959 112.994544 170.969959 112.41272 
L 170.969959 107.720352 
L 172.337622 107.720352 
L 172.337622 106.662491 
L 170.969959 106.662491 
L 170.969959 103.85916 
L 169.617409 104.675224 
L 169.617409 106.662491 
L 168.619997 106.662491 
L 168.619997 107.720352 
L 169.617409 107.720352 
L 169.617409 112.337159 
Q 169.617409 113.561255 169.783644 113.94284 
Q 169.949879 114.324426 170.357911 114.558666 
Q 170.765943 114.792907 171.506446 114.792907 
Q 171.959815 114.792907 172.534082 114.672009 
L 172.337622 113.470581 
M 146.540931 113.470581 
Q 146.17068 113.523474 145.943996 113.523474 
Q 145.64175 113.523474 145.479292 113.425244 
Q 145.316835 113.327014 145.245052 113.160779 
Q 145.173268 112.994544 145.173268 112.41272 
L 145.173268 107.720352 
L 146.540931 107.720352 
L 146.540931 106.662491 
L 145.173268 106.662491 
L 145.173268 103.85916 
L 143.820718 104.675224 
L 143.820718 106.662491 
L 142.823306 106.662491 
L 142.823306 107.720352 
L 143.820718 107.720352 
L 143.820718 112.337159 
Q 143.820718 113.561255 143.986953 113.94284 
Q 144.153188 114.324426 144.56122 114.558666 
Q 144.969252 114.792907 145.709755 114.792907 
Q 146.163124 114.792907 146.737391 114.672009 
L 146.540931 113.470581 
M 147.855701 114.687121 
L 149.215808 114.687121 
L 149.215808 110.485902 
Q 149.215808 109.624501 149.442492 108.899111 
Q 149.593615 108.423074 149.948754 108.154831 
Q 150.303893 107.886587 150.749706 107.886587 
Q 151.248412 107.886587 151.747118 108.181277 
L 152.215599 106.9194 
Q 151.505321 106.481144 150.817711 106.481144 
Q 150.341674 106.481144 149.944976 106.753165 
Q 149.548278 107.025186 149.079797 107.879031 
L 149.079797 106.662491 
L 147.855701 106.662491 
L 147.855701 114.687121 
M 130.665463 114.687121 
L 132.02557 114.687121 
L 132.02557 110.485902 
Q 132.02557 109.624501 132.252254 108.899111 
Q 132.403377 108.423074 132.758516 108.154831 
Q 133.113655 107.886587 133.559468 107.886587 
Q 134.058174 107.886587 134.55688 108.181277 
L 135.025361 106.9194 
Q 134.315083 106.481144 133.627473 106.481144 
Q 133.151436 106.481144 132.754738 106.753165 
Q 132.358041 107.025186 131.889559 107.879031 
L 131.889559 106.662491 
L 130.665463 106.662491 
L 130.665463 114.687121 
M 182.258845 114.687121 
L 183.618952 114.687121 
L 183.618952 110.485902 
Q 183.618952 109.624501 183.845636 108.899111 
Q 183.996759 108.423074 184.351898 108.154831 
Q 184.707037 107.886587 185.15285 107.886587 
Q 185.651556 107.886587 186.150262 108.181277 
L 186.618743 106.9194 
Q 185.908465 106.481144 185.220855 106.481144 
Q 184.744818 106.481144 184.34812 106.753165 
Q 183.951422 107.025186 183.482941 107.879031 
L 183.482941 106.662491 
L 182.258845 106.662491 
L 182.258845 114.687121 
M 114.699322 110.720143 
Q 114.699322 109.171132 115.368041 108.358847 
Q 116.03676 107.546561 116.905717 107.546561 
Q 117.78223 107.546561 118.413169 108.309732 
Q 119.044107 109.072903 119.044107 110.606801 
Q 119.044107 112.21626 118.398056 112.983209 
Q 117.752006 113.750158 116.845268 113.750158 
Q 115.953642 113.750158 115.326482 113.009656 
Q 114.699322 112.269153 114.699322 110.720143 
M 188.454887 109.904079 
Q 188.522892 108.853774 189.161387 108.226614 
Q 189.799881 107.599454 190.736844 107.599454 
Q 191.772036 107.599454 192.421865 108.385293 
Q 192.845009 108.891555 192.935683 109.904079 
L 188.454887 109.904079 
M 123.101759 109.904079 
Q 123.169764 108.853774 123.808259 108.226614 
Q 124.446753 107.599454 125.383715 107.599454 
Q 126.418908 107.599454 127.068737 108.385293 
Q 127.491881 108.891555 127.582555 109.904079 
L 123.101759 109.904079 
" clip-path="url(#pc744fa13ba)" style="fill: #ff0000"/>
   </g>
   <g id="patch_15">
    <path d="M 126.224967 151.6115 
L 127.690859 151.6115 
L 127.690859 146.390201 
L 133.448645 146.390201 
L 133.448645 151.6115 
L 134.914537 151.6115 
L 134.914537 140.534186 
L 133.448645 140.534186 
L 133.448645 145.082987 
L 127.690859 145.082987 
L 127.690859 140.534186 
L 126.224967 140.534186 
L 126.224967 151.6115 
M 157.82478 151.6115 
L 159.184886 151.6115 
L 159.184886 147.221378 
Q 159.184886 146.276859 159.411571 145.740372 
Q 159.638255 145.203886 160.170964 144.890306 
Q 160.703672 144.576726 161.308164 144.576726 
Q 162.116672 144.576726 162.558707 145.041429 
Q 163.000741 145.506132 163.000741 146.526212 
L 163.000741 151.6115 
L 164.360848 151.6115 
L 164.360848 146.526212 
Q 164.360848 145.347453 164.077493 144.727849 
Q 163.794137 144.108244 163.136752 143.756883 
Q 162.479367 143.405523 161.587742 143.405523 
Q 160.136961 143.405523 159.184886 144.50872 
L 159.184886 140.534186 
L 157.82478 140.534186 
L 157.82478 151.6115 
M 142.417793 150.621644 
Q 142.478242 151.188355 142.689814 151.6115 
L 144.11037 151.6115 
Q 143.853461 151.150575 143.766565 150.648091 
Q 143.67967 150.145607 143.67967 148.249014 
L 143.67967 146.435538 
Q 143.67967 145.5288 143.611664 145.181217 
Q 143.490766 144.622062 143.18852 144.255589 
Q 142.886274 143.889116 142.244001 143.647319 
Q 141.601729 143.405523 140.574093 143.405523 
Q 139.5389 143.405523 138.753061 143.688878 
Q 137.967221 143.972234 137.551633 144.497386 
Q 137.136045 145.022538 136.954698 145.876383 
L 138.28458 146.057731 
Q 138.503708 145.203886 138.960855 144.867637 
Q 139.418002 144.531389 140.377633 144.531389 
Q 141.405269 144.531389 141.926643 144.992314 
Q 142.312007 145.33234 142.312007 146.163517 
Q 142.312007 146.239078 142.304451 146.518656 
Q 141.526167 146.790677 139.878927 146.987137 
Q 139.070419 147.085367 138.669943 147.191153 
Q 138.125901 147.342276 137.691422 147.636966 
Q 137.256943 147.931655 136.9887 148.419027 
Q 136.720457 148.906399 136.720457 149.495778 
Q 136.720457 150.500746 137.430735 151.146797 
Q 138.141013 151.792847 139.463339 151.792847 
Q 140.264291 151.792847 140.963234 151.528382 
Q 141.662178 151.263917 142.417793 150.621644 
M 155.323694 148.672158 
Q 155.180128 149.692238 154.643641 150.183388 
Q 154.107155 150.674537 153.306203 150.674537 
Q 152.308791 150.674537 151.689187 149.941591 
Q 151.069583 149.208645 151.069583 147.591629 
Q 151.069583 145.997281 151.711856 145.260557 
Q 152.354128 144.523833 153.381764 144.523833 
Q 154.061818 144.523833 154.541633 144.931865 
Q 155.021449 145.339897 155.210352 146.148404 
L 156.532678 145.944388 
Q 156.298438 144.727849 155.467261 144.066686 
Q 154.636085 143.405523 153.328871 143.405523 
Q 152.293679 143.405523 151.413388 143.892894 
Q 150.533096 144.380266 150.102396 145.355009 
Q 149.671695 146.329752 149.671695 147.62941 
Q 149.671695 149.639345 150.672885 150.716096 
Q 151.674075 151.792847 153.321315 151.792847 
Q 154.636085 151.792847 155.539045 151.010786 
Q 156.442004 150.228725 156.661133 148.845949 
L 155.323694 148.672158 
M 175.475942 151.6115 
L 175.475942 140.488849 
L 174.599429 140.488849 
Q 174.24429 141.206683 173.390446 141.969854 
Q 172.536601 142.733025 171.395622 143.269512 
L 171.395622 144.584282 
Q 172.030339 144.350041 172.827512 143.88156 
Q 173.624686 143.413079 174.115836 142.944597 
L 174.115836 151.6115 
L 175.475942 151.6115 
M 148.757401 150.39496 
Q 148.38715 150.447853 148.160466 150.447853 
Q 147.85822 150.447853 147.695763 150.349623 
Q 147.533305 150.251393 147.461522 150.085158 
Q 147.389739 149.918923 147.389739 149.337099 
L 147.389739 144.644731 
L 148.757401 144.644731 
L 148.757401 143.58687 
L 147.389739 143.58687 
L 147.389739 140.783539 
L 146.037188 141.599603 
L 146.037188 143.58687 
L 145.039776 143.58687 
L 145.039776 144.644731 
L 146.037188 144.644731 
L 146.037188 149.261538 
Q 146.037188 150.485634 146.203423 150.867219 
Q 146.369659 151.248805 146.777691 151.483045 
Q 147.185723 151.717286 147.926225 151.717286 
Q 148.379594 151.717286 148.953861 151.596387 
L 148.757401 150.39496 
M 142.304451 147.584073 
L 142.304451 148.082778 
Q 142.304451 148.98196 142.085322 149.442885 
Q 141.798189 150.039821 141.186141 150.383626 
Q 140.574093 150.72743 139.788253 150.72743 
Q 138.994858 150.72743 138.583048 150.364735 
Q 138.171237 150.00204 138.171237 149.457997 
Q 138.171237 149.102858 138.360141 148.811947 
Q 138.549045 148.521035 138.896628 148.369912 
Q 139.244211 148.218789 140.082943 148.097891 
Q 141.563948 147.886319 142.304451 147.584073 
" clip-path="url(#pc744fa13ba)" style="fill: #ff0000"/>
   </g>
   <g id="patch_16">
    <path d="M 62.345791 133.14931 
L 63.811684 133.14931 
L 63.811684 127.928012 
L 69.569469 127.928012 
L 69.569469 133.14931 
L 71.035362 133.14931 
L 71.035362 122.071997 
L 69.569469 122.071997 
L 69.569469 126.620798 
L 63.811684 126.620798 
L 63.811684 122.071997 
L 62.345791 122.071997 
L 62.345791 133.14931 
M 113.621815 131.842097 
L 108.188944 131.842097 
Q 108.415628 131.471845 108.763211 131.105372 
Q 109.110794 130.738899 110.33489 129.711263 
Q 111.800783 128.472054 112.431721 127.761776 
Q 113.06266 127.051499 113.334681 126.409226 
Q 113.606702 125.766953 113.606702 125.102012 
Q 113.606702 123.794799 112.677296 122.910729 
Q 111.74789 122.02666 110.153543 122.02666 
Q 108.574308 122.02666 107.637345 122.846502 
Q 106.700383 123.666344 106.556816 125.230467 
L 107.954703 125.374034 
Q 107.96226 124.331285 108.551639 123.741905 
Q 109.141019 123.152526 110.123318 123.152526 
Q 111.052724 123.152526 111.63077 123.707903 
Q 112.208815 124.26328 112.208815 125.071788 
Q 112.208815 125.842515 111.574099 126.707694 
Q 110.939382 127.572873 109.133463 129.053878 
Q 107.969816 130.005953 107.35399 130.731343 
Q 106.738164 131.456733 106.458586 132.204792 
Q 106.284795 132.658161 106.299907 133.14931 
L 113.621815 133.14931 
L 113.621815 131.842097 
M 93.945604 133.14931 
L 95.305711 133.14931 
L 95.305711 128.759188 
Q 95.305711 127.81467 95.532395 127.278183 
Q 95.75908 126.741696 96.291788 126.428116 
Q 96.824497 126.114536 97.428989 126.114536 
Q 98.237496 126.114536 98.679531 126.579239 
Q 99.121566 127.043942 99.121566 128.064022 
L 99.121566 133.14931 
L 100.481673 133.14931 
L 100.481673 128.064022 
Q 100.481673 126.885263 100.198317 126.265659 
Q 99.914961 125.646055 99.257577 125.294694 
Q 98.600192 124.943333 97.708566 124.943333 
Q 96.257786 124.943333 95.305711 126.046531 
L 95.305711 122.071997 
L 93.945604 122.071997 
L 93.945604 133.14931 
M 78.538617 132.159455 
Q 78.599067 132.726166 78.810639 133.14931 
L 80.231195 133.14931 
Q 79.974286 132.688385 79.88739 132.185901 
Q 79.800494 131.683418 79.800494 129.786824 
L 79.800494 127.973349 
Q 79.800494 127.066611 79.732489 126.719028 
Q 79.61159 126.159873 79.309345 125.7934 
Q 79.007099 125.426927 78.364826 125.18513 
Q 77.722553 124.943333 76.694917 124.943333 
Q 75.659725 124.943333 74.873885 125.226689 
Q 74.088046 125.510044 73.672458 126.035197 
Q 73.25687 126.560349 73.075522 127.414194 
L 74.405404 127.595541 
Q 74.624532 126.741696 75.081679 126.405448 
Q 75.538826 126.069199 76.498457 126.069199 
Q 77.526093 126.069199 78.047468 126.530124 
Q 78.432831 126.870151 78.432831 127.701327 
Q 78.432831 127.776889 78.425275 128.056466 
Q 77.646992 128.328488 75.999751 128.524947 
Q 75.191244 128.623177 74.790768 128.728963 
Q 74.246725 128.880086 73.812247 129.174776 
Q 73.377768 129.469466 73.109525 129.956838 
Q 72.841281 130.444209 72.841281 131.033589 
Q 72.841281 132.038557 73.551559 132.684607 
Q 74.261837 133.330658 75.584163 133.330658 
Q 76.385115 133.330658 77.084059 133.066193 
Q 77.783003 132.801728 78.538617 132.159455 
M 91.444519 130.209969 
Q 91.300952 131.230049 90.764466 131.721198 
Q 90.227979 132.212348 89.427027 132.212348 
Q 88.429616 132.212348 87.810012 131.479402 
Q 87.190407 130.746455 87.190407 129.129439 
Q 87.190407 127.535092 87.83268 126.798368 
Q 88.474953 126.061643 89.502589 126.061643 
Q 90.182642 126.061643 90.662458 126.469675 
Q 91.142273 126.877707 91.331177 127.686215 
L 92.653503 127.482199 
Q 92.419262 126.265659 91.588086 125.604496 
Q 90.756909 124.943333 89.449696 124.943333 
Q 88.414503 124.943333 87.534212 125.430705 
Q 86.653921 125.918076 86.22322 126.892819 
Q 85.79252 127.867563 85.79252 129.16722 
Q 85.79252 131.177156 86.79371 132.253907 
Q 87.794899 133.330658 89.44214 133.330658 
Q 90.756909 133.330658 91.659869 132.548597 
Q 92.562829 131.766535 92.781957 130.38376 
L 91.444519 130.209969 
M 84.878226 131.93277 
Q 84.507975 131.985663 84.28129 131.985663 
Q 83.979044 131.985663 83.816587 131.887434 
Q 83.65413 131.789204 83.582346 131.622968 
Q 83.510563 131.456733 83.510563 130.87491 
L 83.510563 126.182541 
L 84.878226 126.182541 
L 84.878226 125.124681 
L 83.510563 125.124681 
L 83.510563 122.32135 
L 82.158012 123.137414 
L 82.158012 125.124681 
L 81.160601 125.124681 
L 81.160601 126.182541 
L 82.158012 126.182541 
L 82.158012 130.799348 
Q 82.158012 132.023444 82.324248 132.40503 
Q 82.490483 132.786615 82.898515 133.020856 
Q 83.306547 133.255096 84.04705 133.255096 
Q 84.500419 133.255096 85.074686 133.134198 
L 84.878226 131.93277 
M 78.425275 129.121883 
L 78.425275 129.620589 
Q 78.425275 130.519771 78.206147 130.980696 
Q 77.919013 131.577631 77.306965 131.921436 
Q 76.694917 132.265241 75.909078 132.265241 
Q 75.115682 132.265241 74.703872 131.902546 
Q 74.292062 131.539851 74.292062 130.995808 
Q 74.292062 130.640669 74.480966 130.349757 
Q 74.669869 130.058846 75.017452 129.907723 
Q 75.365035 129.7566 76.203767 129.635701 
Q 77.684773 129.424129 78.425275 129.121883 
" clip-path="url(#pc744fa13ba)" style="fill: #ff0000"/>
   </g>
   <g id="patch_17">
    <path d="M 66.565396 306.693891 
L 68.031289 306.693891 
L 68.031289 301.774839 
L 69.731423 301.774839 
Q 70.298134 301.774839 70.547487 301.827732 
Q 70.887513 301.910849 71.216206 302.122421 
Q 71.544898 302.333994 71.960486 302.862924 
Q 72.376075 303.391854 73.018347 304.389266 
L 74.48424 306.693891 
L 76.32794 306.693891 
L 74.401122 303.678988 
Q 73.826855 302.794919 73.184582 302.205539 
Q 72.882336 301.933518 72.300513 301.65394 
Q 73.89486 301.434812 74.658031 300.626304 
Q 75.421202 299.817796 75.421202 298.639037 
Q 75.421202 297.724743 74.960277 296.969128 
Q 74.499352 296.213513 73.728625 295.915045 
Q 72.957898 295.616578 71.476893 295.616578 
L 66.565396 295.616578 
L 66.565396 306.693891 
M 99.963573 306.693891 
L 101.225449 306.693891 
L 101.225449 295.616578 
L 99.872899 295.616578 
L 99.872899 299.591112 
Q 99.51776 299.099962 98.951049 298.793938 
Q 98.384338 298.487914 97.658947 298.487914 
Q 96.669092 298.487914 95.86814 299.009288 
Q 95.067188 299.530662 94.666713 300.509184 
Q 94.266237 301.487705 94.266237 302.689132 
Q 94.266237 303.920785 94.708271 304.869081 
Q 95.150306 305.817378 95.955036 306.346308 
Q 96.759766 306.875239 97.719397 306.875239 
Q 99.200402 306.875239 99.963573 305.681367 
L 99.963573 306.693891 
M 91.35712 306.693891 
L 92.618996 306.693891 
L 92.618996 295.616578 
L 91.266446 295.616578 
L 91.266446 299.591112 
Q 90.911307 299.099962 90.344596 298.793938 
Q 89.777884 298.487914 89.052494 298.487914 
Q 88.062639 298.487914 87.261687 299.009288 
Q 86.460735 299.530662 86.060259 300.509184 
Q 85.659784 301.487705 85.659784 302.689132 
Q 85.659784 303.920785 86.101818 304.869081 
Q 86.543853 305.817378 87.348583 306.346308 
Q 88.153313 306.875239 89.112943 306.875239 
Q 90.593949 306.875239 91.35712 305.681367 
L 91.35712 306.693891 
M 108.857159 304.109688 
Q 108.547357 304.971089 108.018427 305.364009 
Q 107.489497 305.756929 106.741438 305.756929 
Q 105.73647 305.756929 105.063973 305.054207 
Q 104.391476 304.351485 104.315914 303.029159 
L 110.300384 303.029159 
Q 110.30794 302.787362 110.30794 302.666464 
Q 110.30794 300.679197 109.28786 299.583555 
Q 108.26778 298.487914 106.65832 298.487914 
Q 104.995968 298.487914 103.953219 299.606224 
Q 102.910471 300.724534 102.910471 302.749582 
Q 102.910471 304.706624 103.941885 305.790931 
Q 104.973299 306.875239 106.733882 306.875239 
Q 108.131769 306.875239 109.030951 306.195185 
Q 109.930132 305.515132 110.262603 304.28348 
L 108.857159 304.109688 
M 82.803559 306.693891 
L 84.020099 306.693891 
L 84.020099 298.669262 
L 82.659993 298.669262 
L 82.659993 302.96871 
Q 82.659993 303.996346 82.437086 304.536611 
Q 82.21418 305.076875 81.677693 305.390456 
Q 81.141207 305.704036 80.529159 305.704036 
Q 79.917111 305.704036 79.501523 305.398012 
Q 79.085934 305.091988 78.95748 304.555501 
Q 78.874362 304.18525 78.874362 303.119833 
L 78.874362 298.669262 
L 77.514256 298.669262 
L 77.514256 303.641207 
Q 77.514256 304.510164 77.597373 304.91064 
Q 77.718272 305.507576 78.016739 305.919386 
Q 78.315207 306.331196 78.931033 306.603217 
Q 79.546859 306.875239 80.257137 306.875239 
Q 81.866597 306.875239 82.803559 305.515132 
L 82.803559 306.693891 
M 111.95518 306.693891 
L 113.315287 306.693891 
L 113.315287 302.492673 
Q 113.315287 301.631272 113.541971 300.905881 
Q 113.693094 300.429844 114.048233 300.161601 
Q 114.403372 299.893358 114.849185 299.893358 
Q 115.347891 299.893358 115.846597 300.188047 
L 116.315078 298.926171 
Q 115.6048 298.487914 114.91719 298.487914 
Q 114.441153 298.487914 114.044455 298.759935 
Q 113.647758 299.031957 113.179276 299.885801 
L 113.179276 298.669262 
L 111.95518 298.669262 
L 111.95518 306.693891 
M 68.031289 300.505406 
L 68.031289 296.840674 
L 71.537342 296.840674 
Q 72.768994 296.840674 73.339483 297.346936 
Q 73.909973 297.853197 73.909973 298.639037 
Q 73.909973 299.175523 73.615283 299.63267 
Q 73.320593 300.089817 72.753882 300.297612 
Q 72.187171 300.505406 71.182203 300.505406 
L 68.031289 300.505406 
M 95.664124 302.689132 
Q 95.664124 301.094785 96.272394 300.354283 
Q 96.880664 299.61378 97.787402 299.61378 
Q 98.716808 299.61378 99.351525 300.384507 
Q 99.986241 301.155234 99.986241 302.802475 
Q 99.986241 304.298592 99.362859 305.02776 
Q 98.739477 305.756929 97.847851 305.756929 
Q 96.963782 305.756929 96.313953 304.993758 
Q 95.664124 304.230587 95.664124 302.689132 
M 87.057671 302.689132 
Q 87.057671 301.094785 87.665941 300.354283 
Q 88.274211 299.61378 89.180949 299.61378 
Q 90.110355 299.61378 90.745072 300.384507 
Q 91.379788 301.155234 91.379788 302.802475 
Q 91.379788 304.298592 90.756406 305.02776 
Q 90.133023 305.756929 89.241398 305.756929 
Q 88.357329 305.756929 87.7075 304.993758 
Q 87.057671 304.230587 87.057671 302.689132 
M 104.391476 301.910849 
Q 104.459481 300.860545 105.097976 300.233384 
Q 105.73647 299.606224 106.673432 299.606224 
Q 107.708625 299.606224 108.358454 300.392063 
Q 108.781598 300.898325 108.872272 301.910849 
L 104.391476 301.910849 
" clip-path="url(#pc744fa13ba)" style="fill: #ff0000"/>
   </g>
   <g id="patch_18">
    <path d="M 73.878489 295.616578 
L 75.344382 295.616578 
L 75.344382 291.113113 
L 78.185493 291.113113 
Q 80.535456 291.113113 81.434637 290.134592 
Q 82.333819 289.156071 82.333819 287.743071 
Q 82.333819 286.919451 81.99757 286.231841 
Q 81.661322 285.544232 81.109723 285.162646 
Q 80.558124 284.781061 79.74206 284.64505 
Q 79.160237 284.539264 78.057039 284.539264 
L 73.878489 284.539264 
L 73.878489 295.616578 
M 97.786143 298.69193 
L 99.146249 298.69193 
L 99.146249 294.785401 
Q 99.493832 295.223658 100.034097 295.510791 
Q 100.574361 295.797925 101.254415 295.797925 
Q 102.183821 295.797925 103.026331 295.272773 
Q 103.868842 294.74762 104.310877 293.761543 
Q 104.752911 292.775466 104.752911 291.543813 
Q 104.752911 290.395279 104.352436 289.43187 
Q 103.95196 288.468461 103.16612 287.939531 
Q 102.380281 287.4106 101.352645 287.4106 
Q 100.566805 287.4106 100.015206 287.716624 
Q 99.463607 288.022648 99.025351 288.634696 
L 99.025351 287.591948 
L 97.786143 287.591948 
L 97.786143 298.69193 
M 88.673427 291.604263 
Q 88.673427 293.636867 89.712398 294.717396 
Q 90.751368 295.797925 92.436389 295.797925 
Q 93.486694 295.797925 94.374541 295.306775 
Q 95.262389 294.815626 95.727092 293.927778 
Q 96.191795 293.039931 96.191795 291.49092 
Q 96.191795 289.579215 95.141491 288.494908 
Q 94.091186 287.4106 92.436389 287.4106 
Q 90.947828 287.4106 89.912636 288.302226 
Q 88.673427 289.375199 88.673427 291.604263 
M 127.368464 293.032375 
Q 127.058662 293.893776 126.529731 294.286695 
Q 126.000801 294.679615 125.252742 294.679615 
Q 124.247775 294.679615 123.575277 293.976893 
Q 122.90278 293.274171 122.827219 291.951846 
L 128.811688 291.951846 
Q 128.819244 291.710049 128.819244 291.58915 
Q 128.819244 289.601883 127.799164 288.506242 
Q 126.779084 287.4106 125.169625 287.4106 
Q 123.507272 287.4106 122.464523 288.52891 
Q 121.421775 289.64722 121.421775 291.672268 
Q 121.421775 293.62931 122.453189 294.713618 
Q 123.484604 295.797925 125.245186 295.797925 
Q 126.643074 295.797925 127.542255 295.117872 
Q 128.441437 294.437818 128.773907 293.206166 
L 127.368464 293.032375 
M 111.885916 293.032375 
Q 111.576114 293.893776 111.047183 294.286695 
Q 110.518253 294.679615 109.770194 294.679615 
Q 108.765226 294.679615 108.092729 293.976893 
Q 107.420232 293.274171 107.34467 291.951846 
L 113.32914 291.951846 
Q 113.336696 291.710049 113.336696 291.58915 
Q 113.336696 289.601883 112.316616 288.506242 
Q 111.296536 287.4106 109.687076 287.4106 
Q 108.024724 287.4106 106.981975 288.52891 
Q 105.939227 289.64722 105.939227 291.672268 
Q 105.939227 293.62931 106.970641 294.713618 
Q 108.002055 295.797925 109.762638 295.797925 
Q 111.160525 295.797925 112.059707 295.117872 
Q 112.958889 294.437818 113.291359 293.206166 
L 111.885916 293.032375 
M 84.011284 295.616578 
L 85.371391 295.616578 
L 85.371391 291.415359 
Q 85.371391 290.553958 85.598075 289.828568 
Q 85.749198 289.35253 86.104337 289.084287 
Q 86.459476 288.816044 86.905289 288.816044 
Q 87.403995 288.816044 87.9027 289.110734 
L 88.371182 287.848857 
Q 87.660904 287.4106 86.973294 287.4106 
Q 86.497257 287.4106 86.100559 287.682622 
Q 85.703861 287.954643 85.23538 288.808488 
L 85.23538 287.591948 
L 84.011284 287.591948 
L 84.011284 295.616578 
M 130.466485 295.616578 
L 131.826591 295.616578 
L 131.826591 291.415359 
Q 131.826591 290.553958 132.053276 289.828568 
Q 132.204399 289.35253 132.559538 289.084287 
Q 132.914677 288.816044 133.36049 288.816044 
Q 133.859195 288.816044 134.357901 289.110734 
L 134.826382 287.848857 
Q 134.116104 287.4106 133.428495 287.4106 
Q 132.952458 287.4106 132.55576 287.682622 
Q 132.159062 287.954643 131.690581 288.808488 
L 131.690581 287.591948 
L 130.466485 287.591948 
L 130.466485 295.616578 
M 118.406872 295.616578 
L 119.766978 295.616578 
L 119.766978 284.539264 
L 118.406872 284.539264 
L 118.406872 295.616578 
M 114.968824 295.616578 
L 116.328931 295.616578 
L 116.328931 284.539264 
L 114.968824 284.539264 
L 114.968824 295.616578 
M 75.344382 289.805899 
L 75.344382 285.846478 
L 78.177937 285.846478 
Q 79.175349 285.846478 79.5456 285.944707 
Q 80.119867 286.103387 80.471228 286.598314 
Q 80.822589 287.093242 80.822589 287.788408 
Q 80.822589 288.748039 80.225653 289.276969 
Q 79.628718 289.805899 78.208162 289.805899 
L 75.344382 289.805899 
M 99.017795 291.6496 
Q 99.017795 290.100589 99.686514 289.288303 
Q 100.355233 288.476017 101.22419 288.476017 
Q 102.100703 288.476017 102.731642 289.239188 
Q 103.36258 290.002359 103.36258 291.536257 
Q 103.36258 293.145717 102.716529 293.912666 
Q 102.070479 294.679615 101.163741 294.679615 
Q 100.272115 294.679615 99.644955 293.939113 
Q 99.017795 293.19861 99.017795 291.6496 
M 90.071315 291.604263 
Q 90.071315 290.062808 90.743812 289.299637 
Q 91.416309 288.536466 92.436389 288.536466 
Q 93.441357 288.536466 94.117632 289.303415 
Q 94.793908 290.070365 94.793908 291.558926 
Q 94.793908 293.138161 94.121411 293.908888 
Q 93.448913 294.679615 92.436389 294.679615 
Q 91.416309 294.679615 90.743812 293.912666 
Q 90.071315 293.145717 90.071315 291.604263 
M 122.90278 290.833536 
Q 122.970785 289.783231 123.60928 289.156071 
Q 124.247775 288.52891 125.184737 288.52891 
Q 126.219929 288.52891 126.869758 289.31475 
Q 127.292902 289.821012 127.383576 290.833536 
L 122.90278 290.833536 
M 107.420232 290.833536 
Q 107.488237 289.783231 108.126732 289.156071 
Q 108.765226 288.52891 109.702189 288.52891 
Q 110.737381 288.52891 111.38721 289.31475 
Q 111.810354 289.821012 111.901028 290.833536 
L 107.420232 290.833536 
" clip-path="url(#pc744fa13ba)" style="fill: #ff0000"/>
   </g>
   <g id="patch_19">
    <path d="M 144.03229 62.99299 
L 145.498183 62.99299 
L 145.498183 57.960596 
L 150.696813 57.960596 
L 150.696813 56.653382 
L 145.498183 56.653382 
L 145.498183 53.22289 
L 151.505321 53.22289 
L 151.505321 51.915677 
L 144.03229 51.915677 
L 144.03229 62.99299 
M 184.548358 60.408788 
Q 184.238556 61.270189 183.709626 61.663108 
Q 183.180695 62.056028 182.432637 62.056028 
Q 181.427669 62.056028 180.755172 61.353306 
Q 180.082674 60.650584 180.007113 59.328258 
L 185.991582 59.328258 
Q 185.999139 59.086462 185.999139 58.965563 
Q 185.999139 56.978296 184.979059 55.882655 
Q 183.958979 54.787013 182.349519 54.787013 
Q 180.687166 54.787013 179.644418 55.905323 
Q 178.601669 57.023633 178.601669 59.048681 
Q 178.601669 61.005723 179.633084 62.090031 
Q 180.664498 63.174338 182.42508 63.174338 
Q 183.822968 63.174338 184.72215 62.494285 
Q 185.621331 61.814231 185.953802 60.582579 
L 184.548358 60.408788 
M 161.842132 62.99299 
L 163.202239 62.99299 
L 163.202239 58.610424 
Q 163.202239 57.06897 163.833177 56.517371 
Q 164.464115 55.965772 165.333073 55.965772 
Q 165.877115 55.965772 166.281369 56.211347 
Q 166.685623 56.456922 166.844302 56.868732 
Q 167.002981 57.280542 167.002981 58.111718 
L 167.002981 62.99299 
L 168.363088 62.99299 
L 168.363088 58.058825 
Q 168.363088 57.114307 168.287527 56.736499 
Q 168.166628 56.154676 167.864382 55.731532 
Q 167.562136 55.308387 166.953866 55.0477 
Q 166.345596 54.787013 165.620206 54.787013 
Q 163.950297 54.787013 163.066228 56.109339 
L 163.066228 54.968361 
L 161.842132 54.968361 
L 161.842132 62.99299 
M 170.448585 62.99299 
L 171.808692 62.99299 
L 171.808692 58.610424 
Q 171.808692 57.06897 172.43963 56.517371 
Q 173.070569 55.965772 173.939526 55.965772 
Q 174.483568 55.965772 174.887822 56.211347 
Q 175.292076 56.456922 175.450755 56.868732 
Q 175.609434 57.280542 175.609434 58.111718 
L 175.609434 62.99299 
L 176.969541 62.99299 
L 176.969541 58.058825 
Q 176.969541 57.114307 176.89398 56.736499 
Q 176.773081 56.154676 176.470835 55.731532 
Q 176.168589 55.308387 175.560319 55.0477 
Q 174.95205 54.787013 174.226659 54.787013 
Q 172.55675 54.787013 171.672681 56.109339 
L 171.672681 54.968361 
L 170.448585 54.968361 
L 170.448585 62.99299 
M 158.494758 62.99299 
L 159.711298 62.99299 
L 159.711298 54.968361 
L 158.351191 54.968361 
L 158.351191 59.267809 
Q 158.351191 60.295445 158.128285 60.83571 
Q 157.905379 61.375975 157.368892 61.689555 
Q 156.832405 62.003135 156.220357 62.003135 
Q 155.608309 62.003135 155.192721 61.697111 
Q 154.777133 61.391087 154.648679 60.8546 
Q 154.565561 60.484349 154.565561 59.418932 
L 154.565561 54.968361 
L 153.205454 54.968361 
L 153.205454 59.940306 
Q 153.205454 60.809264 153.288572 61.209739 
Q 153.40947 61.806675 153.707938 62.218485 
Q 154.006406 62.630295 154.622232 62.902317 
Q 155.238058 63.174338 155.948336 63.174338 
Q 157.557796 63.174338 158.494758 61.814231 
L 158.494758 62.99299 
M 187.631267 62.99299 
L 188.991373 62.99299 
L 188.991373 51.915677 
L 187.631267 51.915677 
L 187.631267 62.99299 
M 180.082674 58.209948 
Q 180.15068 57.159644 180.789174 56.532483 
Q 181.427669 55.905323 182.364631 55.905323 
Q 183.399824 55.905323 184.049652 56.691163 
Q 184.472797 57.197425 184.56347 58.209948 
L 180.082674 58.209948 
" clip-path="url(#pc744fa13ba)" style="fill: #ff0000"/>
   </g>
   <g id="patch_20">
    <path d="M 64.34137 118.379559 
L 65.897937 118.379559 
L 67.114476 115.024629 
L 71.746396 115.024629 
L 73.038497 118.379559 
L 74.708406 118.379559 
L 70.174717 107.302245 
L 68.595482 107.302245 
L 64.34137 118.379559 
M 92.049766 118.379559 
L 93.409873 118.379559 
L 93.409873 113.989437 
Q 93.409873 113.044918 93.636558 112.508431 
Q 93.863242 111.971945 94.395951 111.658365 
Q 94.928659 111.344785 95.533151 111.344785 
Q 96.341659 111.344785 96.783693 111.809488 
Q 97.225728 112.274191 97.225728 113.294271 
L 97.225728 118.379559 
L 98.585835 118.379559 
L 98.585835 113.294271 
Q 98.585835 112.115512 98.302479 111.495908 
Q 98.019124 110.876303 97.361739 110.524942 
Q 96.704354 110.173582 95.812728 110.173582 
Q 94.361948 110.173582 93.409873 111.276779 
L 93.409873 107.302245 
L 92.049766 107.302245 
L 92.049766 118.379559 
M 100.149958 114.367244 
Q 100.149958 116.399848 101.188928 117.480377 
Q 102.227898 118.560906 103.91292 118.560906 
Q 104.963224 118.560906 105.851072 118.069757 
Q 106.738919 117.578607 107.203622 116.69076 
Q 107.668325 115.802912 107.668325 114.253902 
Q 107.668325 112.342196 106.618021 111.257889 
Q 105.567716 110.173582 103.91292 110.173582 
Q 102.424358 110.173582 101.389166 111.065207 
Q 100.149958 112.13818 100.149958 114.367244 
M 89.548681 115.440217 
Q 89.405115 116.460297 88.868628 116.951447 
Q 88.332141 117.442596 87.53119 117.442596 
Q 86.533778 117.442596 85.914174 116.70965 
Q 85.29457 115.976704 85.29457 114.359688 
Q 85.29457 112.76534 85.936842 112.028616 
Q 86.579115 111.291891 87.606751 111.291891 
Q 88.286805 111.291891 88.76662 111.699924 
Q 89.246435 112.107956 89.435339 112.916463 
L 90.757665 112.712447 
Q 90.523424 111.495908 89.692248 110.834745 
Q 88.861072 110.173582 87.553858 110.173582 
Q 86.518666 110.173582 85.638374 110.660953 
Q 84.758083 111.148325 84.327383 112.123068 
Q 83.896682 113.097811 83.896682 114.397469 
Q 83.896682 116.407404 84.897872 117.484155 
Q 85.899062 118.560906 87.546302 118.560906 
Q 88.861072 118.560906 89.764032 117.778845 
Q 90.666991 116.996784 90.88612 115.614008 
L 89.548681 115.440217 
M 75.705817 118.379559 
L 77.065924 118.379559 
L 77.065924 113.996993 
Q 77.065924 112.455538 77.696862 111.90394 
Q 78.327801 111.352341 79.196758 111.352341 
Q 79.740801 111.352341 80.145055 111.597916 
Q 80.549308 111.84349 80.707988 112.2553 
Q 80.866667 112.667111 80.866667 113.498287 
L 80.866667 118.379559 
L 82.226773 118.379559 
L 82.226773 113.445394 
Q 82.226773 112.500875 82.151212 112.123068 
Q 82.030314 111.541244 81.728068 111.1181 
Q 81.425822 110.694956 80.817552 110.434269 
Q 80.209282 110.173582 79.483892 110.173582 
Q 77.813983 110.173582 76.929913 111.495908 
L 76.929913 110.354929 
L 75.705817 110.354929 
L 75.705817 118.379559 
M 109.24756 118.379559 
L 110.607667 118.379559 
L 110.607667 114.17834 
Q 110.607667 113.316939 110.834352 112.591549 
Q 110.985475 112.115512 111.340614 111.847268 
Q 111.695753 111.579025 112.141565 111.579025 
Q 112.640271 111.579025 113.138977 111.873715 
L 113.607458 110.611838 
Q 112.89718 110.173582 112.209571 110.173582 
Q 111.733533 110.173582 111.336835 110.445603 
Q 110.940138 110.717624 110.471656 111.571469 
L 110.471656 110.354929 
L 109.24756 110.354929 
L 109.24756 118.379559 
M 67.537621 113.830757 
L 68.754161 110.581614 
Q 69.139524 109.531309 69.351096 108.465892 
Q 69.608005 109.365074 70.136936 110.762961 
L 71.293027 113.830757 
L 67.537621 113.830757 
M 101.547845 114.367244 
Q 101.547845 112.82579 102.220342 112.062619 
Q 102.89284 111.299448 103.91292 111.299448 
Q 104.917887 111.299448 105.594163 112.066397 
Q 106.270438 112.833346 106.270438 114.321907 
Q 106.270438 115.901142 105.597941 116.671869 
Q 104.925443 117.442596 103.91292 117.442596 
Q 102.89284 117.442596 102.220342 116.675647 
Q 101.547845 115.908698 101.547845 114.367244 
" clip-path="url(#pc744fa13ba)" style="fill: #ff0000"/>
   </g>
  </g>
 </g>
 <defs>
  <clipPath id="pc744fa13ba">
   <rect x="0" y="0" width="288" height="441.320177"/>
  </clipPath>
 </defs>
</svg>
