  0
SECTION
  2
HEADER
  9
$ACADVER
  1
AC1024
  9
$ACADMAINTVER
 70
6
  9
$DWGCODEPAGE
  3
ANSI_1252
  9
$LASTSAVEDBY
  1
ezdxf
  9
$INSBASE
 10
0.0
 20
0.0
 30
0.0
  9
$EXTMIN
 10
1e+20
 20
1e+20
 30
1e+20
  9
$EXTMAX
 10
-1e+20
 20
-1e+20
 30
-1e+20
  9
$LIMMIN
 10
0.0
 20
0.0
  9
$LIMMAX
 10
420.0
 20
297.0
  9
$ORTHOMODE
 70
0
  9
$REGENMODE
 70
1
  9
$FILLMODE
 70
1
  9
$QTEXTMODE
 70
0
  9
$MIRRTEXT
 70
1
  9
$LTSCALE
 40
1.0
  9
$ATTMODE
 70
1
  9
$TEXTSIZE
 40
2.5
  9
$TRACEWID
 40
1.0
  9
$TEXTSTYLE
  7
Standard
  9
$CLAYER
  8
0
  9
$CELTYPE
  6
ByLayer
  9
$CECOLOR
 62
256
  9
$CELTSCALE
 40
1.0
  9
$DISPSILH
 70
0
  9
$DIMSCALE
 40
1.0
  9
$DIMASZ
 40
2.5
  9
$DIMEXO
 40
0.625
  9
$DIMDLI
 40
3.75
  9
$DIMRND
 40
0.0
  9
$DIMDLE
 40
0.0
  9
$DIMEXE
 40
1.25
  9
$DIMTP
 40
0.0
  9
$DIMTM
 40
0.0
  9
$DIMTXT
 40
2.5
  9
$DIMCEN
 40
2.5
  9
$DIMTSZ
 40
0.0
  9
$DIMTOL
 70
0
  9
$DIMLIM
 70
0
  9
$DIMTIH
 70
0
  9
$DIMTOH
 70
0
  9
$DIMSE1
 70
0
  9
$DIMSE2
 70
0
  9
$DIMTAD
 70
1
  9
$DIMZIN
 70
8
  9
$DIMBLK
  1

  9
$DIMASO
 70
1
  9
$DIMSHO
 70
1
  9
$DIMPOST
  1

  9
$DIMAPOST
  1

  9
$DIMALT
 70
0
  9
$DIMALTD
 70
3
  9
$DIMALTF
 40
0.03937007874
  9
$DIMLFAC
 40
1.0
  9
$DIMTOFL
 70
1
  9
$DIMTVP
 40
0.0
  9
$DIMTIX
 70
0
  9
$DIMSOXD
 70
0
  9
$DIMSAH
 70
0
  9
$DIMBLK1
  1

  9
$DIMBLK2
  1

  9
$DIMSTYLE
  2
ISO-25
  9
$DIMCLRD
 70
0
  9
$DIMCLRE
 70
0
  9
$DIMCLRT
 70
0
  9
$DIMTFAC
 40
1.0
  9
$DIMGAP
 40
0.625
  9
$DIMJUST
 70
0
  9
$DIMSD1
 70
0
  9
$DIMSD2
 70
0
  9
$DIMTOLJ
 70
0
  9
$DIMTZIN
 70
8
  9
$DIMALTZ
 70
0
  9
$DIMALTTZ
 70
0
  9
$DIMUPT
 70
0
  9
$DIMDEC
 70
2
  9
$DIMTDEC
 70
2
  9
$DIMALTU
 70
2
  9
$DIMALTTD
 70
3
  9
$DIMTXSTY
  7
Standard
  9
$DIMAUNIT
 70
0
  9
$DIMADEC
 70
0
  9
$DIMALTRND
 40
0.0
  9
$DIMAZIN
 70
0
  9
$DIMDSEP
 70
44
  9
$DIMATFIT
 70
3
  9
$DIMFRAC
 70
0
  9
$DIMLDRBLK
  1

  9
$DIMLUNIT
 70
2
  9
$DIMLWD
 70
-2
  9
$DIMLWE
 70
-2
  9
$DIMTMOVE
 70
0
  9
$DIMFXL
 40
1.0
  9
$DIMFXLON
 70
0
  9
$DIMJOGANG
 40
0.785398163397
  9
$DIMTFILL
 70
0
  9
$DIMTFILLCLR
 70
0
  9
$DIMARCSYM
 70
0
  9
$DIMLTYPE
  6

  9
$DIMLTEX1
  6

  9
$DIMLTEX2
  6

  9
$DIMTXTDIRECTION
 70
0
  9
$LUNITS
 70
2
  9
$LUPREC
 70
4
  9
$SKETCHINC
 40
1.0
  9
$FILLETRAD
 40
10.0
  9
$AUNITS
 70
0
  9
$AUPREC
 70
2
  9
$MENU
  1
.
  9
$ELEVATION
 40
0.0
  9
$PELEVATION
 40
0.0
  9
$THICKNESS
 40
0.0
  9
$LIMCHECK
 70
0
  9
$CHAMFERA
 40
0.0
  9
$CHAMFERB
 40
0.0
  9
$CHAMFERC
 40
0.0
  9
$CHAMFERD
 40
0.0
  9
$SKPOLY
 70
0
  9
$TDCREATE
 40
2461102.437673611
  9
$TDUCREATE
 40
2458532.153996898
  9
$TDUPDATE
 40
2461102.437673611
  9
$TDUUPDATE
 40
2458532.1544311
  9
$TDINDWG
 40
0.0
  9
$TDUSRTIMER
 40
0.0
  9
$USRTIMER
 70
1
  9
$ANGBASE
 50
0.0
  9
$ANGDIR
 70
0
  9
$PDMODE
 70
0
  9
$PDSIZE
 40
0.0
  9
$PLINEWID
 40
0.0
  9
$SPLFRAME
 70
0
  9
$SPLINETYPE
 70
6
  9
$SPLINESEGS
 70
8
  9
$HANDSEED
  5
39
  9
$SURFTAB1
 70
6
  9
$SURFTAB2
 70
6
  9
$SURFTYPE
 70
6
  9
$SURFU
 70
6
  9
$SURFV
 70
6
  9
$UCSBASE
  2

  9
$UCSNAME
  2

  9
$UCSORG
 10
0.0
 20
0.0
 30
0.0
  9
$UCSXDIR
 10
1.0
 20
0.0
 30
0.0
  9
$UCSYDIR
 10
0.0
 20
1.0
 30
0.0
  9
$UCSORTHOREF
  2

  9
$UCSORTHOVIEW
 70
0
  9
$UCSORGTOP
 10
0.0
 20
0.0
 30
0.0
  9
$UCSORGBOTTOM
 10
0.0
 20
0.0
 30
0.0
  9
$UCSORGLEFT
 10
0.0
 20
0.0
 30
0.0
  9
$UCSORGRIGHT
 10
0.0
 20
0.0
 30
0.0
  9
$UCSORGFRONT
 10
0.0
 20
0.0
 30
0.0
  9
$UCSORGBACK
 10
0.0
 20
0.0
 30
0.0
  9
$PUCSBASE
  2

  9
$PUCSNAME
  2

  9
$PUCSORG
 10
0.0
 20
0.0
 30
0.0
  9
$PUCSXDIR
 10
1.0
 20
0.0
 30
0.0
  9
$PUCSYDIR
 10
0.0
 20
1.0
 30
0.0
  9
$PUCSORTHOREF
  2

  9
$PUCSORTHOVIEW
 70
0
  9
$PUCSORGTOP
 10
0.0
 20
0.0
 30
0.0
  9
$PUCSORGBOTTOM
 10
0.0
 20
0.0
 30
0.0
  9
$PUCSORGLEFT
 10
0.0
 20
0.0
 30
0.0
  9
$PUCSORGRIGHT
 10
0.0
 20
0.0
 30
0.0
  9
$PUCSORGFRONT
 10
0.0
 20
0.0
 30
0.0
  9
$PUCSORGBACK
 10
0.0
 20
0.0
 30
0.0
  9
$USERI1
 70
0
  9
$USERI2
 70
0
  9
$USERI3
 70
0
  9
$USERI4
 70
0
  9
$USERI5
 70
0
  9
$USERR1
 40
0.0
  9
$USERR2
 40
0.0
  9
$USERR3
 40
0.0
  9
$USERR4
 40
0.0
  9
$USERR5
 40
0.0
  9
$WORLDVIEW
 70
1
  9
$SHADEDGE
 70
3
  9
$SHADEDIF
 70
70
  9
$TILEMODE
 70
1
  9
$MAXACTVP
 70
64
  9
$PINSBASE
 10
0.0
 20
0.0
 30
0.0
  9
$PLIMCHECK
 70
0
  9
$PEXTMIN
 10
1e+20
 20
1e+20
 30
1e+20
  9
$PEXTMAX
 10
-1e+20
 20
-1e+20
 30
-1e+20
  9
$PLIMMIN
 10
0.0
 20
0.0
  9
$PLIMMAX
 10
420.0
 20
297.0
  9
$UNITMODE
 70
0
  9
$VISRETAIN
 70
1
  9
$PLINEGEN
 70
0
  9
$PSLTSCALE
 70
1
  9
$TREEDEPTH
 70
3020
  9
$CMLSTYLE
  2
Standard
  9
$CMLJUST
 70
0
  9
$CMLSCALE
 40
20.0
  9
$PROXYGRAPHICS
 70
1
  9
$MEASUREMENT
 70
1
  9
$CELWEIGHT
370
-1
  9
$ENDCAPS
280
0
  9
$JOINSTYLE
280
0
  9
$LWDISPLAY
290
0
  9
$INSUNITS
 70
6
  9
$HYPERLINKBASE
  1

  9
$STYLESHEET
  1

  9
$XEDIT
290
1
  9
$CEPSNTYPE
380
0
  9
$PSTYLEMODE
290
1
  9
$FINGERPRINTGUID
  2
{3797AC85-4DCC-4460-A894-9954ED1ACE17}
  9
$VERSIONGUID
  2
{3CC214E9-B2A5-4ACA-BD40-88F1232E4964}
  9
$EXTNAMES
290
1
  9
$PSVPSCALE
 40
0.0
  9
$OLESTARTUP
290
0
  9
$SORTENTS
280
127
  9
$INDEXCTL
280
0
  9
$HIDETEXT
280
1
  9
$XCLIPFRAME
280
1
  9
$HALOGAP
280
0
  9
$OBSCOLOR
 70
257
  9
$OBSLTYPE
280
0
  9
$INTERSECTIONDISPLAY
280
0
  9
$INTERSECTIONCOLOR
 70
257
  9
$DIMASSOC
280
2
  9
$PROJECTNAME
  1

  9
$CAMERADISPLAY
290
0
  9
$LENSLENGTH
 40
50.0
  9
$CAMERAHEIGHT
 40
0.0
  9
$STEPSPERSEC
 40
24.0
  9
$STEPSIZE
 40
100.0
  9
$3DDWFPREC
 40
2.0
  9
$PSOLWIDTH
 40
0.005
  9
$PSOLHEIGHT
 40
0.08
  9
$LOFTANG1
 40
1.570796326795
  9
$LOFTANG2
 40
1.570796326795
  9
$LOFTMAG1
 40
0.0
  9
$LOFTMAG2
 40
0.0
  9
$LOFTPARAM
 70
7
  9
$LOFTNORMALS
280
1
  9
$LATITUDE
 40
37.795
  9
$LONGITUDE
 40
-122.394
  9
$NORTHDIRECTION
 40
0.0
  9
$TIMEZONE
 70
-8000
  9
$LIGHTGLYPHDISPLAY
280
1
  9
$TILEMODELIGHTSYNCH
280
1
  9
$CMATERIAL
347
20
  9
$SOLIDHIST
280
0
  9
$SHOWHIST
280
1
  9
$DWFFRAME
280
2
  9
$DGNFRAME
280
2
  9
$REALWORLDSCALE
290
1
  9
$INTERFERECOLOR
 62
256
  9
$CSHADOW
280
0
  9
$SHADOWPLANELOCATION
 40
0.0
  0
ENDSEC
  0
SECTION
  2
CLASSES
  0
CLASS
  1
ACDBDICTIONARYWDFLT
  2
AcDbDictionaryWithDefault
  3
ObjectDBX Classes
 90
0
 91
0
280
0
281
0
  0
CLASS
  1
SUN
  2
AcDbSun
  3
SCENEOE
 90
1153
 91
0
280
0
281
0
  0
CLASS
  1
VISUALSTYLE
  2
AcDbVisualStyle
  3
ObjectDBX Classes
 90
4095
 91
0
280
0
281
0
  0
CLASS
  1
MATERIAL
  2
AcDbMaterial
  3
ObjectDBX Classes
 90
1153
 91
0
280
0
281
0
  0
CLASS
  1
SCALE
  2
AcDbScale
  3
ObjectDBX Classes
 90
1153
 91
0
280
0
281
0
  0
CLASS
  1
TABLESTYLE
  2
AcDbTableStyle
  3
ObjectDBX Classes
 90
4095
 91
0
280
0
281
0
  0
CLASS
  1
MLEADERSTYLE
  2
AcDbMLeaderStyle
  3
ACDB_MLEADERSTYLE_CLASS
 90
4095
 91
0
280
0
281
0
  0
CLASS
  1
DICTIONARYVAR
  2
AcDbDictionaryVar
  3
ObjectDBX Classes
 90
0
 91
0
280
0
281
0
  0
CLASS
  1
CELLSTYLEMAP
  2
AcDbCellStyleMap
  3
ObjectDBX Classes
 90
1152
 91
0
280
0
281
0
  0
CLASS
  1
MENTALRAYRENDERSETTINGS
  2
AcDbMentalRayRenderSettings
  3
SCENEOE
 90
1024
 91
0
280
0
281
0
  0
CLASS
  1
ACDBDETAILVIEWSTYLE
  2
AcDbDetailViewStyle
  3
ObjectDBX Classes
 90
1025
 91
0
280
0
281
0
  0
CLASS
  1
ACDBSECTIONVIEWSTYLE
  2
AcDbSectionViewStyle
  3
ObjectDBX Classes
 90
1025
 91
0
280
0
281
0
  0
CLASS
  1
RASTERVARIABLES
  2
AcDbRasterVariables
  3
ISM
 90
0
 91
0
280
0
281
0
  0
CLASS
  1
ACDBPLACEHOLDER
  2
AcDbPlaceHolder
  3
ObjectDBX Classes
 90
0
 91
0
280
0
281
0
  0
CLASS
  1
LAYOUT
  2
AcDbLayout
  3
ObjectDBX Classes
 90
0
 91
0
280
0
281
0
  0
ENDSEC
  0
SECTION
  2
TABLES
  0
TABLE
  2
VPORT
  5
8
330
0
100
AcDbSymbolTable
 70
1
  0
VPORT
  5
23
330
8
100
AcDbSymbolTableRecord
100
AcDbViewportTableRecord
  2
*Active
 70
0
 10
0.0
 20
0.0
 11
1.0
 21
1.0
 12
0.0
 22
0.0
 13
0.0
 23
0.0
 14
0.5
 24
0.5
 15
0.5
 25
0.5
 16
0.0
 26
0.0
 36
1.0
 17
0.0
 27
0.0
 37
0.0
 40
1000.0
 41
1.34
 42
50.0
 43
0.0
 44
0.0
 50
0.0
 51
0.0
 71
0
 72
1000
 73
1
 74
3
 75
0
 76
0
 77
0
 78
0
281
0
 65
0
146
0.0
  0
ENDTAB
  0
TABLE
  2
LTYPE
  5
2
330
0
100
AcDbSymbolTable
 70
3
  0
LTYPE
  5
24
330
2
100
AcDbSymbolTableRecord
100
AcDbLinetypeTableRecord
  2
ByBlock
 70
0
  3

 72
65
 73
0
 40
0.0
  0
LTYPE
  5
25
330
2
100
AcDbSymbolTableRecord
100
AcDbLinetypeTableRecord
  2
ByLayer
 70
0
  3

 72
65
 73
0
 40
0.0
  0
LTYPE
  5
26
330
2
100
AcDbSymbolTableRecord
100
AcDbLinetypeTableRecord
  2
Continuous
 70
0
  3

 72
65
 73
0
 40
0.0
  0
ENDTAB
  0
TABLE
  2
LAYER
  5
1
330
0
100
AcDbSymbolTable
 70
2
  0
LAYER
  5
27
330
1
100
AcDbSymbolTableRecord
100
AcDbLayerTableRecord
  2
0
 70
0
 62
7
  6
Continuous
370
-3
390
13
347
21
  0
LAYER
  5
28
330
1
100
AcDbSymbolTableRecord
100
AcDbLayerTableRecord
  2
Defpoints
 70
0
 62
7
  6
Continuous
290
0
370
-3
390
13
347
21
  0
ENDTAB
  0
TABLE
  2
STYLE
  5
5
330
0
100
AcDbSymbolTable
 70
1
  0
STYLE
  5
29
330
5
100
AcDbSymbolTableRecord
100
AcDbTextStyleTableRecord
  2
Standard
 70
0
 40
0.0
 41
1.0
 50
0.0
 71
0
 42
2.5
  3
txt
  4

  0
ENDTAB
  0
TABLE
  2
VIEW
  5
7
330
0
100
AcDbSymbolTable
 70
0
  0
ENDTAB
  0
TABLE
  2
UCS
  5
6
330
0
100
AcDbSymbolTable
 70
0
  0
ENDTAB
  0
TABLE
  2
APPID
  5
3
330
0
100
AcDbSymbolTable
 70
3
  0
APPID
  5
2A
330
3
100
AcDbSymbolTableRecord
100
AcDbRegAppTableRecord
  2
ACAD
 70
0
  0
APPID
  5
36
330
3
100
AcDbSymbolTableRecord
100
AcDbRegAppTableRecord
  2
HATCHBACKGROUNDCOLOR
 70
0
  0
APPID
  5
37
330
3
100
AcDbSymbolTableRecord
100
AcDbRegAppTableRecord
  2
EZDXF
 70
0
  0
ENDTAB
  0
TABLE
  2
DIMSTYLE
  5
4
330
0
100
AcDbSymbolTable
 70
1
100
AcDbDimStyleTable
  0
DIMSTYLE
105
2B
330
4
100
AcDbSymbolTableRecord
100
AcDbDimStyleTableRecord
  2
Standard
 70
0
 40
1.0
 41
2.5
 42
0.625
 43
3.75
 44
1.25
 45
0.0
 46
0.0
 47
0.0
 48
0.0
 49
2.5
140
2.5
141
2.5
142
0.0
143
0.03937007874
144
1.0
145
0.0
146
1.0
147
0.625
148
0.0
 69
0
 70
0
 71
0
 72
0
 73
0
 74
0
 75
0
 76
0
 77
1
 78
8
 79
3
170
0
171
3
172
1
173
0
174
0
175
0
176
0
177
0
178
0
179
2
271
2
272
2
273
2
274
3
275
0
276
0
277
2
278
44
279
0
280
0
281
0
282
0
283
0
284
8
285
0
286
0
288
0
289
3
290
0
371
-2
372
-2
  0
ENDTAB
  0
TABLE
  2
BLOCK_RECORD
  5
9
330
0
100
AcDbSymbolTable
 70
2
  0
BLOCK_RECORD
  5
17
330
9
100
AcDbSymbolTableRecord
100
AcDbBlockTableRecord
  2
*Model_Space
340
1A
 70
0
280
1
281
0
  0
BLOCK_RECORD
  5
1B
330
9
100
AcDbSymbolTableRecord
100
AcDbBlockTableRecord
  2
*Paper_Space
340
1E
 70
0
280
1
281
0
  0
ENDTAB
  0
ENDSEC
  0
SECTION
  2
BLOCKS
  0
BLOCK
  5
18
330
17
100
AcDbEntity
  8
0
100
AcDbBlockBegin
  2
*Model_Space
 70
0
 10
0.0
 20
0.0
 30
0.0
  3
*Model_Space
  1

  0
ENDBLK
  5
19
330
17
100
AcDbEntity
  8
0
100
AcDbBlockEnd
  0
BLOCK
  5
1C
330
1B
100
AcDbEntity
  8
0
100
AcDbBlockBegin
  2
*Paper_Space
 70
0
 10
0.0
 20
0.0
 30
0.0
  3
*Paper_Space
  1

  0
ENDBLK
  5
1D
330
1B
100
AcDbEntity
  8
0
100
AcDbBlockEnd
  0
ENDSEC
  0
SECTION
  2
ENTITIES
  0
LWPOLYLINE
  5
2F
330
17
100
AcDbEntity
  8
0
100
AcDbPolyline
 90
350
 70
0
 10
0.0
 20
3.8640000000000003
 10
0.08595988538681948
 20
3.8722421637195876
 10
0.17191977077363896
 20
3.8807651605770457
 10
0.25787965616045844
 20
3.8895683341674108
 10
0.3438395415472779
 20
3.8986510281921
 10
0.4297994269340974
 20
3.908012586512093
 10
0.5157593123209169
 20
3.917652353201096
 10
0.6017191977077363
 20
3.9275696725986946
 10
0.6876790830945558
 20
3.937763889363479
 10
0.7736389684813754
 20
3.9482343485261495
 10
0.8595988538681948
 20
3.9589803955425857
 10
0.9455587392550142
 20
3.970001376346885
 10
1.0315186246418337
 20
3.981296637404364
 10
1.1174785100286533
 20
3.992865525764511
 10
1.2034383954154726
 20
4.004707389113897
 10
1.2893982808022921
 20
4.016821575829031
 10
1.3753581661891117
 20
4.029207435029162
 10
1.4613180515759312
 20
4.041864316629019
 10
1.5472779369627507
 20
4.054791571391492
 10
1.63323782234957
 20
4.06798855098023
 10
1.7191977077363896
 20
4.081454608012185
 10
1.8051575931232091
 20
4.095189096110068
 10
1.8911174785100284
 20
4.109191369954717
 10
1.977077363896848
 20
4.123460785337398
 10
2.0630372492836675
 20
4.1379966992120005
 10
2.148997134670487
 20
4.1527984697471405
 10
2.2349570200573066
 20
4.167865456378173
 10
2.320916905444126
 20
4.183197019859095
 10
2.406876790830945
 20
4.198792522314344
 10
2.492836676217765
 20
4.2146513272904835
 10
2.5787965616045843
 20
4.230772799807778
 10
2.664756446991404
 20
4.247156306411641
 10
2.7507163323782233
 20
4.263801215223969
 10
2.8366762177650426
 20
4.280706895994339
 10
2.9226361031518624
 20
4.297872720151077
 10
3.0085959885386817
 20
4.315298060852195
 10
3.0945558739255015
 20
4.332982293036182
 10
3.180515759312321
 20
4.35092479347265
 10
3.26647564469914
 20
4.369124940812841
 10
3.35243553008596
 20
4.387582115639967
 10
3.438395415472779
 20
4.406295700519406
 10
3.5243553008595985
 20
4.425265080048736
 10
3.6103151862464182
 20
4.444489640907592
 10
3.6962750716332375
 20
4.4639687719073695
 10
3.782234957020057
 20
4.483701864040751
 10
3.8681948424068766
 20
4.5036883105310475
 10
3.954154727793696
 20
4.52392750688137
 10
4.040114613180515
 20
4.544418850923613
 10
4.126074498567335
 20
4.565161742867242
 10
4.212034383954155
 20
4.584227325317199
 10
4.297994269340974
 20
4.5915377884417685
 10
4.383954154727793
 20
4.5988165252505775
 10
4.469914040114613
 20
4.606062945947418
 10
4.555873925501432
 20
4.6132764633546595
 10
4.641833810888252
 20
4.620456492960825
 10
4.7277936962750715
 20
4.627602452967955
 10
4.81375358166189
 20
4.634713764338749
 10
4.89971346704871
 20
4.641789850843489
 10
4.98567335243553
 20
4.648830139106727
 10
5.07163323782235
 20
4.655834058653746
 10
5.1575931232091685
 20
4.66280104195679
 10
5.243553008595988
 20
4.669730524481045
 10
5.329512893982808
 20
4.676621944730387
 10
5.415472779369627
 20
4.683474744292879
 10
5.501432664756447
 20
4.69028836788602
 10
5.587392550143266
 20
4.697062263401737
 10
5.673352435530085
 20
4.703795881951123
 10
5.759312320916905
 20
4.71048867790892
 10
5.845272206303725
 20
4.717140108957719
 10
5.931232091690544
 20
4.723749636131913
 10
6.017191977077363
 20
4.730316723861369
 10
6.103151862464183
 20
4.73684084001482
 10
6.189111747851003
 20
4.743321455942988
 10
6.275071633237822
 20
4.74975804652142
 10
6.361031518624642
 20
4.756150090193038
 10
6.446991404011461
 20
4.762497069010398
 10
6.53295128939828
 20
4.768798468677666
 10
6.6189111747851
 20
4.7750537785922855
 10
6.70487106017192
 20
4.781262491886354
 10
6.790830945558739
 20
4.787424105467695
 10
6.876790830945558
 20
4.793538120060621
 10
6.962750716332378
 20
4.799604040246392
 10
7.048710601719197
 20
4.805621374503363
 10
7.134670487106017
 20
4.811589635246801
 10
7.2206303724928365
 20
4.8175083388684055
 10
7.306590257879655
 20
4.82337700577549
 10
7.392550143266475
 20
4.829195160429844
 10
7.478510028653295
 20
4.834962331386264
 10
7.564469914040114
 20
4.84067805133076
 10
7.6504297994269335
 20
4.846341857118415
 10
7.736389684813753
 20
4.851953289810922
 10
7.822349570200573
 20
4.857511894713762
 10
7.908309455587392
 20
4.863017221413056
 10
7.994269340974212
 20
4.868468823812059
 10
8.08022922636103
 20
4.873866260167306
 10
8.166189111747851
 20
4.879209093124408
 10
8.25214899713467
 20
4.884496889753491
 10
8.338108882521489
 20
4.889729221584276
 10
8.42406876790831
 20
4.894905664640799
 10
8.510028653295128
 20
4.900025799475761
 10
8.595988538681947
 20
4.905089211204523
 10
8.681948424068768
 20
4.910095489538718
 10
8.767908309455587
 20
4.915044228819502
 10
8.853868194842406
 20
4.9199350280504195
 10
8.939828080229226
 20
4.9247674909299
 10
9.025787965616045
 20
4.9295412258833675
 10
9.111747851002864
 20
4.934255846094973
 10
9.197707736389685
 20
4.9389109695389335
 10
9.283667621776504
 20
4.9435062190104935
 10
9.369627507163322
 20
4.948041222156485
 10
9.455587392550143
 20
4.952515611505502
 10
9.541547277936962
 20
4.956929024497675
 10
9.62750716332378
 20
4.961281103514049
 10
9.713467048710601
 20
4.965571495905567
 10
9.79942693409742
 20
4.969799854021635
 10
9.885386819484241
 20
4.973965835238301
 10
9.97134670487106
 20
4.978069101986014
 10
10.057306590257879
 20
4.982109321776978
 10
10.1432664756447
 20
4.9860861672320915
 10
10.229226361031518
 20
4.989999316107479
 10
10.315186246418337
 20
4.9938484513206
 10
10.401146131805158
 20
4.997633260975942
 10
10.487106017191977
 20
5.001353438390293
 10
10.573065902578795
 20
5.005008682117594
 10
10.659025787965616
 20
5.008598695973364
 10
10.744985673352435
 20
5.012123189058702
 10
10.830945558739254
 20
5.015581875783851
 10
10.916905444126074
 20
5.01897447589135
 10
11.002865329512893
 20
5.022300714478737
 10
11.088825214899712
 20
5.025560322020824
 10
11.174785100286533
 20
5.0287530343915385
 10
11.260744985673352
 20
5.0318785928853265
 10
11.34670487106017
 20
5.034936744238113
 10
11.432664756446991
 20
5.037927240647825
 10
11.51862464183381
 20
5.040849839794472
 10
11.604584527220629
 20
5.043704304859779
 10
11.69054441260745
 20
5.046490404546379
 10
11.776504297994268
 20
5.049207913096551
 10
11.862464183381087
 20
5.051856610310518
 10
11.948424068767908
 20
5.054436281564283
 10
12.034383954154727
 20
5.056946717827028
 10
12.120343839541546
 20
5.059387715678047
 10
12.206303724928366
 20
5.061759077323227
 10
12.292263610315185
 20
5.064060610611084
 10
12.378223495702006
 20
5.066292129048323
 10
12.464183381088825
 20
5.068453451814954
 10
12.550143266475644
 20
5.070544403778946
 10
12.636103151862464
 20
5.072564815510414
 10
12.722063037249283
 20
5.074514523295351
 10
12.808022922636102
 20
5.07639336914889
 10
12.893982808022923
 20
5.0782012008281106
 10
12.979942693409741
 20
5.079937871844372
 10
13.06590257879656
 20
5.081603241475181
 10
13.151862464183381
 20
5.0831971747756
 10
13.2378223495702
 20
5.08471954258918
 10
13.323782234957019
 20
5.086170221558419
 10
13.40974212034384
 20
5.08754909413477
 10
13.495702005730658
 20
5.088856048588158
 10
13.581661891117477
 20
5.090090979016034
 10
13.667621776504298
 20
5.091253785351956
 10
13.753581661891117
 20
5.092344373373702
 10
13.839541547277936
 20
5.0933626547109006
 10
13.925501432664756
 20
5.094308546852191
 10
14.011461318051575
 20
5.095181973151912
 10
14.097421203438394
 20
5.095982862836313
 10
14.183381088825215
 20
5.096711151009282
 10
14.269340974212033
 20
5.097366778657614
 10
14.355300859598852
 20
5.097949692655786
 10
14.441260744985673
 20
5.098459845770262
 10
14.527220630372492
 20
5.098897196663326
 10
14.61318051575931
 20
5.099261709896423
 10
14.699140401146131
 20
5.099553355933039
 10
14.78510028653295
 20
5.099772111141089
 10
14.871060171919769
 20
5.099917957794834
 10
14.95702005730659
 20
5.099990884076315
 10
15.042979942693409
 20
5.099990884076315
 10
15.128939828080227
 20
5.099917957794834
 10
15.214899713467048
 20
5.099772111141089
 10
15.300859598853867
 20
5.099553355933039
 10
15.386819484240688
 20
5.099261709896423
 10
15.472779369627506
 20
5.098897196663326
 10
15.558739255014325
 20
5.098459845770262
 10
15.644699140401146
 20
5.097949692655786
 10
15.730659025787965
 20
5.097366778657614
 10
15.816618911174784
 20
5.096711151009282
 10
15.902578796561604
 20
5.095982862836313
 10
15.988538681948423
 20
5.095181973151912
 10
16.074498567335244
 20
5.094308546852191
 10
16.16045845272206
 20
5.0933626547109006
 10
16.24641833810888
 20
5.092344373373702
 10
16.332378223495702
 20
5.091253785351956
 10
16.41833810888252
 20
5.090090979016034
 10
16.50429799426934
 20
5.088856048588158
 10
16.59025787965616
 20
5.08754909413477
 10
16.676217765042978
 20
5.086170221558419
 10
16.7621776504298
 20
5.08471954258918
 10
16.84813753581662
 20
5.0831971747756
 10
16.934097421203436
 20
5.081603241475181
 10
17.020057306590257
 20
5.079937871844372
 10
17.106017191977077
 20
5.0782012008281106
 10
17.191977077363894
 20
5.0763933691488905
 10
17.277936962750715
 20
5.074514523295351
 10
17.363896848137536
 20
5.072564815510414
 10
17.449856733524353
 20
5.070544403778946
 10
17.535816618911173
 20
5.068453451814954
 10
17.621776504297994
 20
5.066292129048323
 10
17.70773638968481
 20
5.064060610611085
 10
17.793696275071632
 20
5.061759077323227
 10
17.879656160458453
 20
5.059387715678047
 10
17.96561604584527
 20
5.056946717827028
 10
18.05157593123209
 20
5.054436281564283
 10
18.13753581661891
 20
5.051856610310518
 10
18.223495702005728
 20
5.049207913096551
 10
18.30945558739255
 20
5.046490404546379
 10
18.39541547277937
 20
5.043704304859779
 10
18.481375358166186
 20
5.040849839794472
 10
18.567335243553007
 20
5.037927240647825
 10
18.653295128939828
 20
5.034936744238113
 10
18.739255014326645
 20
5.031878592885327
 10
18.825214899713465
 20
5.028753034391539
 10
18.911174785100286
 20
5.025560322020825
 10
18.997134670487103
 20
5.022300714478737
 10
19.083094555873924
 20
5.018974475891351
 10
19.169054441260744
 20
5.015581875783851
 10
19.25501432664756
 20
5.012123189058702
 10
19.340974212034382
 20
5.008598695973364
 10
19.426934097421203
 20
5.005008682117594
 10
19.512893982808023
 20
5.001353438390293
 10
19.59885386819484
 20
4.997633260975942
 10
19.68481375358166
 20
4.9938484513206
 10
19.770773638968482
 20
4.989999316107479
 10
19.8567335243553
 20
4.9860861672320915
 10
19.94269340974212
 20
4.982109321776978
 10
20.02865329512894
 20
4.978069101986014
 10
20.114613180515757
 20
4.973965835238301
 10
20.200573065902578
 20
4.969799854021635
 10
20.2865329512894
 20
4.965571495905567
 10
20.372492836676216
 20
4.961281103514049
 10
20.458452722063036
 20
4.956929024497675
 10
20.544412607449857
 20
4.952515611505502
 10
20.630372492836674
 20
4.948041222156485
 10
20.716332378223495
 20
4.943506219010494
 10
20.802292263610315
 20
4.9389109695389335
 10
20.888252148997132
 20
4.934255846094973
 10
20.974212034383953
 20
4.929541225883368
 10
21.060171919770774
 20
4.9247674909299
 10
21.14613180515759
 20
4.9199350280504195
 10
21.23209169054441
 20
4.915044228819502
 10
21.318051575931232
 20
4.910095489538718
 10
21.40401146131805
 20
4.905089211204523
 10
21.48997134670487
 20
4.900025799475761
 10
21.57593123209169
 20
4.894905664640799
 10
21.661891117478508
 20
4.889729221584277
 10
21.74785100286533
 20
4.884496889753491
 10
21.83381088825215
 20
4.879209093124408
 10
21.919770773638966
 20
4.873866260167306
 10
22.005730659025787
 20
4.8684688238120595
 10
22.091690544412607
 20
4.863017221413057
 10
22.177650429799424
 20
4.857511894713762
 10
22.263610315186245
 20
4.851953289810922
 10
22.349570200573066
 20
4.846341857118416
 10
22.435530085959883
 20
4.840678051330761
 10
22.521489971346703
 20
4.834962331386264
 10
22.607449856733524
 20
4.829195160429844
 10
22.69340974212034
 20
4.823377005775491
 10
22.77936962750716
 20
4.817508338868406
 10
22.865329512893982
 20
4.8115896352468015
 10
22.9512893982808
 20
4.805621374503363
 10
23.03724928366762
 20
4.799604040246393
 10
23.12320916905444
 20
4.793538120060621
 10
23.209169054441258
 20
4.787424105467695
 10
23.29512893982808
 20
4.781262491886354
 10
23.3810888252149
 20
4.7750537785922855
 10
23.467048710601716
 20
4.768798468677666
 10
23.553008595988537
 20
4.762497069010398
 10
23.638968481375358
 20
4.756150090193038
 10
23.724928366762175
 20
4.74975804652142
 10
23.810888252148995
 20
4.743321455942988
 10
23.896848137535816
 20
4.73684084001482
 10
23.982808022922633
 20
4.730316723861369
 10
24.068767908309454
 20
4.723491961810331
 10
24.154727793696274
 20
4.71627045812238
 10
24.24068767908309
 20
4.708801452108643
 10
24.326647564469912
 20
4.701128338171836
 10
24.412607449856733
 20
4.693275239755574
 10
24.49856733524355
 20
4.6852582501409845
 10
24.58452722063037
 20
4.677089176354733
 10
24.67048710601719
 20
4.66877721357061
 10
24.75644699140401
 20
4.660329825010278
 10
24.84240687679083
 20
4.651753255418961
 10
24.92836676217765
 20
4.643052853847947
 10
25.01432664756447
 20
4.634233288212511
 10
25.100286532951287
 20
4.6252986942622405
 10
25.186246418338108
 20
4.616252782697813
 10
25.27220630372493
 20
4.607098918441234
 10
25.358166189111746
 20
4.597840180728437
 10
25.444126074498566
 20
4.588479409605442
 10
25.530085959885387
 20
4.5790192425431915
 10
25.616045845272204
 20
4.569462143715672
 10
25.702005730659025
 20
4.559810427727932
 10
25.787965616045845
 20
4.550066279075837
 10
25.873925501432662
 20
4.540231768275069
 10
25.959885386819483
 20
4.530308865356769
 10
26.045845272206304
 20
4.520299451256645
 10
26.13180515759312
 20
4.510205327500918
 10
26.21776504297994
 20
4.500028224501968
 10
26.303724928366762
 20
4.4897698087089495
 10
26.38968481375358
 20
4.479431688807801
 10
26.4756446991404
 20
4.46901542112612
 10
26.56160458452722
 20
4.458522514368426
 10
26.647564469914037
 20
4.447954433783885
 10
26.733524355300858
 20
4.437312604850191
 10
26.81948424068768
 20
4.426598416542678
 10
26.905444126074496
 20
4.4158132242460635
 10
26.991404011461317
 20
4.404958352356765
 10
27.077363896848137
 20
4.394035096616142
 10
27.163323782234954
 20
4.383044726208731
 10
27.249283667621775
 20
4.371988485654414
 10
27.335243553008596
 20
4.360867596519229
 10
27.421203438395413
 20
4.349683258966001
 10
27.507163323782233
 20
4.338436653163008
 10
27.593123209169054
 20
4.327128940566453
 10
27.67908309455587
 20
4.315761265090404
 10
27.76504297994269
 20
4.304334754176083
 10
27.851002865329512
 20
4.292850519770939
 10
27.93696275071633
 20
4.2813096592265785
 10
28.02292263610315
 20
4.2697132561235955
 10
28.10888252148997
 20
4.258062381030341
 10
28.194842406876788
 20
4.2463580922019055
 10
28.28080229226361
 20
4.234601436224828
 10
28.36676217765043
 20
4.222793448612488
 10
28.452722063037246
 20
4.210935154355535
 10
28.538681948424067
 20
4.199027568431304
 10
28.624641833810887
 20
4.187071696275721
 10
28.710601719197705
 20
4.175068534220848
 10
28.796561604584525
 20
4.163019069900887
 10
28.882521489971346
 20
4.150924282629234
 10
28.968481375358163
 20
4.13878514374884
 10
29.054441260744984
 20
4.126602616958009
 10
29.140401146131804
 20
4.114377658613488
 10
29.22636103151862
 20
4.102111218012585
 10
29.312320916905442
 20
4.089804237655867
 10
29.398280802292263
 20
4.077457653491868
 10
29.48424068767908
 20
4.065072395145084
 10
29.5702005730659
 20
4.052649386128455
 10
29.65616045845272
 20
4.040189544041428
 10
29.742120343839538
 20
4.027693780754564
 10
29.82808022922636
 20
4.015163002581621
 10
29.91404011461318
 20
4.0025981104399575
 10
30.0
 20
3.9900000000000007
  0
TEXT
  5
30
330
17
100
AcDbEntity
  8
0
100
AcDbText
 10
0.0
 20
-5.0
 30
0.0
 40
2.0
  1
PROFILE VIEW
 11
0.0
 21
-5.0
 31
0.0
100
AcDbText
  0
LWPOLYLINE
  5
31
330
17
100
AcDbEntity
  8
0
100
AcDbPolyline
 90
500
 70
0
 10
60.0
 20
4.2
 10
59.95787046304721
 20
4.183132530120482
 10
59.91581942874389
 20
4.166265060240964
 10
59.873847240543505
 20
4.1493975903614455
 10
59.83195424557173
 20
4.132530120481928
 10
59.7901407946892
 20
4.11566265060241
 10
59.74840724255578
 20
4.098795180722892
 10
59.70675394769628
 20
4.081927710843374
 10
59.66518127256781
 20
4.065060240963856
 10
59.62368958362871
 20
4.048192771084337
 10
59.58227925140919
 20
4.031325301204819
 10
59.54095065058362
 20
4.014457831325301
 10
59.49970416004465
 20
3.9975903614457833
 10
59.45854016297917
 20
3.980722891566265
 10
59.417459046946064
 20
3.963855421686747
 10
59.376461203956055
 20
3.946987951807229
 10
59.33554703055339
 20
3.9301204819277107
 10
59.294716927899756
 20
3.9132530120481928
 10
59.25397130186021
 20
3.896385542168675
 10
59.213310563091405
 20
3.8795180722891565
 10
59.17273512713203
 20
3.8626506024096385
 10
59.13224541449567
 20
3.8457831325301206
 10
59.091841850766066
 20
3.8289156626506022
 10
59.051524866694905
 20
3.8120481927710843
 10
59.01129489830218
 20
3.7951807228915664
 10
58.9711523869793
 20
3.7783132530120485
 10
58.93109777959495
 20
3.76144578313253
 10
58.891131528603815
 20
3.744578313253012
 10
58.851254092158335
 20
3.7277108433734942
 10
58.811465934223484
 20
3.710843373493976
 10
58.771767524694795
 20
3.693975903614458
 10
58.732159339519654
 20
3.67710843373494
 10
58.69264186082207
 20
3.6602409638554216
 10
58.65321557703093
 20
3.6433734939759037
 10
58.61388098301197
 20
3.626506024096386
 10
58.574638580203576
 20
3.6096385542168674
 10
58.535488876756524
 20
3.5927710843373495
 10
58.4964323876778
 20
3.5759036144578316
 10
58.45746963497873
 20
3.559036144578313
 10
58.418601147827474
 20
3.5421686746987953
 10
58.379827462706146
 20
3.5253012048192773
 10
58.3411491235727
 20
3.508433734939759
 10
58.30256668202774
 20
3.491566265060241
 10
58.26408069748648
 20
3.474698795180723
 10
58.22569173735608
 20
3.4578313253012047
 10
58.18740037721851
 20
3.440963855421687
 10
58.14920720101921
 20
3.424096385542169
 10
58.111112801261754
 20
3.4072289156626505
 10
58.07311777920884
 20
3.3903614457831326
 10
58.03522274508968
 20
3.3734939759036147
 10
57.99742831831433
 20
3.3566265060240963
 10
57.95973512769495
 20
3.3397590361445784
 10
57.92214381167459
 20
3.3228915662650604
 10
57.884655018563556
 20
3.306024096385542
 10
57.84726940678385
 20
3.289156626506024
 10
57.80998764512199
 20
3.272289156626506
 10
57.772810412990545
 20
3.255421686746988
 10
57.735738400698814
 20
3.23855421686747
 10
57.69877230973305
 20
3.221686746987952
 10
57.66191285304669
 20
3.2048192771084336
 10
57.62516075536087
 20
3.1879518072289157
 10
57.588516753476064
 20
3.1710843373493978
 10
57.551981596594935
 20
3.1542168674698794
 10
57.515556046657245
 20
3.1373493975903615
 10
57.479240878687264
 20
3.1204819277108435
 10
57.44303688115428
 20
3.103614457831325
 10
57.406944856346854
 20
3.0867469879518072
 10
57.37096562076155
 20
3.0698795180722893
 10
57.33510000550673
 20
3.053012048192771
 10
57.29934885672235
 20
3.036144578313253
 10
57.263713036016306
 20
3.019277108433735
 10
57.228193420918515
 20
3.0024096385542167
 10
57.19279090535332
 20
2.985542168674699
 10
57.157506400131346
 20
2.968674698795181
 10
57.12234083346188
 20
2.9518072289156625
 10
57.087295151486686
 20
2.9349397590361446
 10
57.05237031883664
 20
2.9180722891566266
 10
57.01756731921218
 20
2.9012048192771083
 10
56.98288715598919
 20
2.8843373493975903
 10
56.94833085285143
 20
2.8674698795180724
 10
56.91389945445121
 20
2.850602409638554
 10
56.87959402709997
 20
2.833734939759036
 10
56.84541565949023
 20
2.816867469879518
 10
56.81136546345108
 20
2.8
 10
56.77744457473904
 20
2.783132530120482
 10
56.74365415386636
 20
2.766265060240964
 10
56.70999538696918
 20
2.7493975903614456
 10
56.676469486718034
 20
2.7325301204819277
 10
56.64307769327312
 20
2.7156626506024097
 10
56.60982127528746
 20
2.6987951807228914
 10
56.57670153096092
 20
2.6819277108433734
 10
56.5437197891483
 20
2.6650602409638555
 10
56.510877410525296
 20
2.6481927710843376
 10
56.47817578881604
 20
2.6313253012048192
 10
56.44561635208646
 20
2.6144578313253013
 10
56.413200564108095
 20
2.5975903614457834
 10
56.38092992579719
 20
2.580722891566265
 10
56.34880597673448
 20
2.563855421686747
 10
56.31683029677153
 20
2.546987951807229
 10
56.285004507729944
 20
2.5301204819277108
 10
56.25333027520041
 20
2.513253012048193
 10
56.22180931044909
 20
2.496385542168675
 10
56.190443372439724
 20
2.4795180722891565
 10
56.15923426998042
 20
2.4626506024096386
 10
56.12818386400513
 20
2.4457831325301207
 10
56.09729407000069
 20
2.4289156626506023
 10
56.06656686059148
 20
2.4120481927710844
 10
56.03600426829482
 20
2.3951807228915665
 10
56.00560838846192
 20
2.378313253012048
 10
55.97538138242026
 20
2.36144578313253
 10
55.9453254808355
 20
2.3445783132530122
 10
55.91544298731265
 20
2.327710843373494
 10
55.88573628225859
 20
2.310843373493976
 10
55.85620782703052
 20
2.293975903614458
 10
55.826860168397744
 20
2.2771084337349397
 10
55.79769594334759
 20
2.2602409638554217
 10
55.76871788426973
 20
2.243373493975904
 10
55.73992882455774
 20
2.2265060240963854
 10
55.71133170467133
 20
2.2096385542168675
 10
55.68292957870874
 20
2.1927710843373496
 10
55.65472562154476
 20
2.175903614457831
 10
55.626723136598024
 20
2.1590361445783133
 10
55.59892556429951
 20
2.1421686746987953
 10
55.57133649134487
 20
2.125301204819277
 10
55.54395966082501
 20
2.108433734939759
 10
55.51679898334365
 20
2.091566265060241
 10
55.48985854924736
 20
2.0746987951807228
 10
55.463142642113404
 20
2.057831325301205
 10
55.43665575366442
 20
2.040963855421687
 10
55.410402600307386
 20
2.0240963855421685
 10
55.38438814152839
 20
2.0072289156626506
 10
55.358617600416125
 20
1.9903614457831325
 10
55.33309648663706
 20
1.9734939759036145
 10
55.30783062224695
 20
1.9566265060240964
 10
55.28282617079882
 20
1.9397590361445782
 10
55.25808967030162
 20
1.9228915662650603
 10
55.23362807070052
 20
1.9060240963855422
 10
55.209448776697755
 20
1.8891566265060242
 10
55.1855596969194
 20
1.872289156626506
 10
55.161969300673135
 20
1.855421686746988
 10
55.138686683851056
 20
1.83855421686747
 10
55.11572164593525
 20
1.8216867469879519
 10
55.09308478059671
 20
1.8048192771084337
 10
55.07078758308976
 20
1.7879518072289158
 10
55.04884257860809
 20
1.7710843373493976
 10
55.02726347709216
 20
1.7542168674698795
 10
55.00606536182553
 20
1.7373493975903616
 10
54.985264921783084
 20
1.7204819277108434
 10
54.964880741498476
 20
1.7036144578313253
 10
54.9449336678544
 20
1.6867469879518073
 10
54.94075516797609
 20
1.6698795180722892
 10
54.94752621477176
 20
1.653012048192771
 10
54.95513300683081
 20
1.636144578313253
 10
54.96360689568207
 20
1.619277108433735
 10
54.9729852468772
 20
1.6024096385542168
 10
54.983313544036854
 20
1.5855421686746989
 10
54.99464863950929
 20
1.5686746987951807
 10
55.00706407916795
 20
1.5518072289156626
 10
55.020659531254594
 20
1.5349397590361447
 10
55.03557941609154
 20
1.5180722891566265
 10
55.05205646548205
 20
1.5012048192771084
 10
55.07055015785757
 20
1.4843373493975904
 10
55.09330276959711
 20
1.4674698795180723
 10
55.12158368083119
 20
1.4506024096385541
 10
55.150029499530774
 20
1.4337349397590362
 10
55.17864314453796
 20
1.416867469879518
 10
55.207427621829794
 20
1.4
 10
55.236386028204095
 20
1.383132530120482
 10
55.26552155516806
 20
1.3662650602409638
 10
55.29483749304368
 20
1.3493975903614457
 10
55.32433723530486
 20
1.3325301204819278
 10
55.354024283162275
 20
1.3156626506024096
 10
55.38390225041378
 20
1.2987951807228917
 10
55.413974868579096
 20
1.2819277108433735
 10
55.44424599233966
 20
1.2650602409638554
 10
55.47471960530594
 20
1.2481927710843375
 10
55.50539982613675
 20
1.2313253012048193
 10
55.53629091503706
 20
1.2144578313253012
 10
55.567397280663435
 20
1.1975903614457832
 10
55.598723487468774
 20
1.180722891566265
 10
55.63027426352086
 20
1.163855421686747
 10
55.66205450883285
 20
1.146987951807229
 10
55.694069304247165
 20
1.1301204819277109
 10
55.72632392091824
 20
1.1132530120481927
 10
55.75882383044458
 20
1.0963855421686748
 10
55.79157471570494
 20
1.0795180722891566
 10
55.82458248245961
 20
1.0626506024096385
 10
55.85785327178378
 20
1.0457831325301206
 10
55.89139347340714
 20
1.0289156626506024
 10
55.92520974004175
 20
1.0120481927710843
 10
55.95930900278928
 20
0.9951807228915662
 10
55.9936984877285
 20
0.9783132530120482
 10
56.02838573379563
 20
0.9614457831325302
 10
56.063378612082786
 20
0.9445783132530121
 10
56.09868534669448
 20
0.927710843373494
 10
56.1343145373187
 20
0.9108433734939759
 10
56.17027518368817
 20
0.8939759036144579
 10
56.20657671212876
 20
0.8771084337349397
 10
56.24322900441709
 20
0.8602409638554217
 10
56.28024242919755
 20
0.8433734939759037
 10
56.31762787624182
 20
0.8265060240963855
 10
56.355396793871726
 20
0.8096385542168675
 10
56.39356122990981
 20
0.7927710843373494
 10
56.43213387657289
 20
0.7759036144578313
 10
56.47112811978276
 20
0.7590361445783133
 10
56.51055809343713
 20
0.7421686746987952
 10
56.55043873926462
 20
0.7253012048192771
 10
56.590785872982536
 20
0.708433734939759
 10
56.631616257588135
 20
0.691566265060241
 10
56.67294768474649
 20
0.6746987951807228
 10
56.714799065396015
 20
0.6578313253012048
 10
56.75719053088035
 20
0.6409638554216868
 10
56.80014354614129
 20
0.6240963855421687
 10
56.843681036778705
 20
0.6072289156626506
 10
56.88782753211209
 20
0.5903614457831325
 10
56.932609326778106
 20
0.5734939759036145
 10
56.97805466388655
 20
0.5566265060240964
 10
57.024193943358036
 20
0.5397590361445783
 10
57.07105995980864
 20
0.5228915662650603
 10
57.11868817527063
 20
0.5060240963855421
 10
57.1671170331949
 20
0.4891566265060241
 10
57.21638832163974
 20
0.47228915662650606
 10
57.26654759540379
 20
0.45542168674698796
 10
57.31764466923528
 20
0.43855421686746987
 10
57.36973419731559
 20
0.42168674698795183
 10
57.42287635821246
 20
0.40481927710843374
 10
57.47713766975893
 20
0.38795180722891565
 10
57.53259196531288
 20
0.3710843373493976
 10
57.58932157226898
 20
0.3542168674698795
 10
57.64741874652184
 20
0.3373493975903614
 10
57.70698743428955
 20
0.3204819277108434
 10
57.76814545751853
 20
0.3036144578313253
 10
57.831027254416426
 20
0.28674698795180725
 10
57.89578735785247
 20
0.26987951807228916
 10
57.962604870020876
 20
0.25301204819277107
 10
58.03168930604139
 20
0.23614457831325303
 10
58.10328835606438
 20
0.21927710843373494
 10
58.17769839693587
 20
0.20240963855421687
 10
58.25527904671856
 20
0.1855421686746988
 10
58.336473842373245
 20
0.1686746987951807
 10
58.42184051838935
 20
0.15180722891566265
 10
58.51209697167902
 20
0.13493975903614458
 10
58.60819416081987
 20
0.11807228915662651
 10
58.71143817910623
 20
0.10120481927710843
 10
58.82370937326092
 20
0.08433734939759036
 10
58.947893678926235
 20
0.06746987951807229
 10
59.08884919846793
 20
0.05060240963855422
 10
59.25604848583951
 20
0.033734939759036145
 10
59.47394683946312
 20
0.016867469879518072
 10
60.0
 20
0.0
 10
60.0
 20
0.0
 10
60.52605316053688
 20
0.016867469879518072
 10
60.74395151416049
 20
0.033734939759036145
 10
60.91115080153207
 20
0.05060240963855422
 10
61.052106321073765
 20
0.06746987951807229
 10
61.17629062673908
 20
0.08433734939759036
 10
61.28856182089377
 20
0.10120481927710843
 10
61.39180583918013
 20
0.11807228915662651
 10
61.48790302832098
 20
0.13493975903614458
 10
61.57815948161065
 20
0.15180722891566265
 10
61.663526157626755
 20
0.1686746987951807
 10
61.74472095328144
 20
0.1855421686746988
 10
61.82230160306413
 20
0.20240963855421687
 10
61.89671164393562
 20
0.21927710843373494
 10
61.96831069395861
 20
0.23614457831325303
 10
62.037395129979124
 20
0.25301204819277107
 10
62.10421264214753
 20
0.26987951807228916
 10
62.168972745583574
 20
0.28674698795180725
 10
62.23185454248147
 20
0.3036144578313253
 10
62.29301256571045
 20
0.3204819277108434
 10
62.35258125347816
 20
0.3373493975903614
 10
62.41067842773102
 20
0.3542168674698795
 10
62.46740803468712
 20
0.3710843373493976
 10
62.52286233024107
 20
0.38795180722891565
 10
62.57712364178754
 20
0.40481927710843374
 10
62.63026580268441
 20
0.42168674698795183
 10
62.68235533076472
 20
0.43855421686746987
 10
62.73345240459621
 20
0.45542168674698796
 10
62.78361167836026
 20
0.47228915662650606
 10
62.8328829668051
 20
0.4891566265060241
 10
62.88131182472937
 20
0.5060240963855421
 10
62.92894004019136
 20
0.5228915662650603
 10
62.975806056641964
 20
0.5397590361445783
 10
63.02194533611345
 20
0.5566265060240964
 10
63.067390673221894
 20
0.5734939759036145
 10
63.11217246788791
 20
0.5903614457831325
 10
63.156318963221295
 20
0.6072289156626506
 10
63.19985645385871
 20
0.6240963855421687
 10
63.24280946911965
 20
0.6409638554216868
 10
63.285200934603985
 20
0.6578313253012048
 10
63.32705231525351
 20
0.6746987951807228
 10
63.368383742411865
 20
0.691566265060241
 10
63.409214127017464
 20
0.708433734939759
 10
63.44956126073538
 20
0.7253012048192771
 10
63.48944190656287
 20
0.7421686746987952
 10
63.52887188021724
 20
0.7590361445783133
 10
63.56786612342711
 20
0.7759036144578313
 10
63.60643877009019
 20
0.7927710843373494
 10
63.644603206128274
 20
0.8096385542168675
 10
63.68237212375818
 20
0.8265060240963855
 10
63.71975757080245
 20
0.8433734939759037
 10
63.75677099558291
 20
0.8602409638554217
 10
63.79342328787124
 20
0.8771084337349397
 10
63.82972481631183
 20
0.8939759036144579
 10
63.8656854626813
 20
0.9108433734939759
 10
63.90131465330552
 20
0.927710843373494
 10
63.936621387917214
 20
0.9445783132530121
 10
63.97161426620437
 20
0.9614457831325302
 10
64.0063015122715
 20
0.9783132530120482
 10
64.04069099721072
 20
0.9951807228915662
 10
64.07479025995825
 20
1.0120481927710843
 10
64.10860652659287
 20
1.0289156626506024
 10
64.14214672821622
 20
1.0457831325301206
 10
64.17541751754038
 20
1.0626506024096385
 10
64.20842528429506
 20
1.0795180722891566
 10
64.24117616955543
 20
1.0963855421686748
 10
64.27367607908177
 20
1.1132530120481927
 10
64.30593069575283
 20
1.1301204819277109
 10
64.33794549116715
 20
1.146987951807229
 10
64.36972573647914
 20
1.163855421686747
 10
64.40127651253123
 20
1.180722891566265
 10
64.43260271933656
 20
1.1975903614457832
 10
64.46370908496294
 20
1.2144578313253012
 10
64.49460017386325
 20
1.2313253012048193
 10
64.52528039469406
 20
1.2481927710843375
 10
64.55575400766034
 20
1.2650602409638554
 10
64.5860251314209
 20
1.2819277108433735
 10
64.61609774958622
 20
1.2987951807228917
 10
64.64597571683773
 20
1.3156626506024096
 10
64.67566276469515
 20
1.3325301204819278
 10
64.70516250695631
 20
1.3493975903614457
 10
64.73447844483195
 20
1.3662650602409638
 10
64.7636139717959
 20
1.383132530120482
 10
64.7925723781702
 20
1.4
 10
64.82135685546204
 20
1.416867469879518
 10
64.84997050046923
 20
1.4337349397590362
 10
64.8784163191688
 20
1.4506024096385541
 10
64.90669723040288
 20
1.4674698795180723
 10
64.92944984214243
 20
1.4843373493975904
 10
64.94794353451795
 20
1.5012048192771084
 10
64.96442058390846
 20
1.5180722891566265
 10
64.9793404687454
 20
1.5349397590361447
 10
64.99293592083205
 20
1.5518072289156626
 10
65.0053513604907
 20
1.5686746987951807
 10
65.01668645596315
 20
1.5855421686746989
 10
65.0270147531228
 20
1.6024096385542168
 10
65.03639310431794
 20
1.619277108433735
 10
65.0448669931692
 20
1.636144578313253
 10
65.05247378522824
 20
1.653012048192771
 10
65.05924483202391
 20
1.6698795180722892
 10
65.0550663321456
 20
1.6867469879518073
 10
65.03511925850152
 20
1.7036144578313253
 10
65.01473507821692
 20
1.7204819277108434
 10
64.99393463817447
 20
1.7373493975903616
 10
64.97273652290784
 20
1.7542168674698795
 10
64.95115742139191
 20
1.7710843373493976
 10
64.92921241691023
 20
1.7879518072289158
 10
64.90691521940329
 20
1.8048192771084337
 10
64.88427835406475
 20
1.8216867469879519
 10
64.86131331614894
 20
1.83855421686747
 10
64.83803069932686
 20
1.855421686746988
 10
64.8144403030806
 20
1.872289156626506
 10
64.79055122330224
 20
1.8891566265060242
 10
64.76637192929948
 20
1.9060240963855422
 10
64.74191032969838
 20
1.9228915662650603
 10
64.71717382920117
 20
1.9397590361445782
 10
64.69216937775306
 20
1.9566265060240964
 10
64.66690351336294
 20
1.9734939759036145
 10
64.64138239958388
 20
1.9903614457831325
 10
64.61561185847161
 20
2.0072289156626506
 10
64.58959739969262
 20
2.0240963855421685
 10
64.56334424633557
 20
2.040963855421687
 10
64.53685735788659
 20
2.057831325301205
 10
64.51014145075264
 20
2.0746987951807228
 10
64.48320101665635
 20
2.091566265060241
 10
64.45604033917499
 20
2.108433734939759
 10
64.42866350865512
 20
2.125301204819277
 10
64.40107443570048
 20
2.1421686746987953
 10
64.37327686340197
 20
2.1590361445783133
 10
64.34527437845524
 20
2.175903614457831
 10
64.31707042129126
 20
2.1927710843373496
 10
64.28866829532866
 20
2.2096385542168675
 10
64.26007117544226
 20
2.2265060240963854
 10
64.23128211573027
 20
2.243373493975904
 10
64.20230405665241
 20
2.2602409638554217
 10
64.17313983160226
 20
2.2771084337349397
 10
64.14379217296948
 20
2.293975903614458
 10
64.11426371774141
 20
2.310843373493976
 10
64.08455701268734
 20
2.327710843373494
 10
64.0546745191645
 20
2.3445783132530122
 10
64.02461861757973
 20
2.36144578313253
 10
63.99439161153808
 20
2.378313253012048
 10
63.96399573170518
 20
2.3951807228915665
 10
63.93343313940852
 20
2.4120481927710844
 10
63.90270592999931
 20
2.4289156626506023
 10
63.87181613599487
 20
2.4457831325301207
 10
63.84076573001958
 20
2.4626506024096386
 10
63.809556627560276
 20
2.4795180722891565
 10
63.77819068955091
 20
2.496385542168675
 10
63.74666972479959
 20
2.513253012048193
 10
63.714995492270056
 20
2.5301204819277108
 10
63.68316970322847
 20
2.546987951807229
 10
63.65119402326552
 20
2.563855421686747
 10
63.61907007420281
 20
2.580722891566265
 10
63.586799435891905
 20
2.5975903614457834
 10
63.55438364791354
 20
2.6144578313253013
 10
63.52182421118396
 20
2.6313253012048192
 10
63.489122589474704
 20
2.6481927710843376
 10
63.4562802108517
 20
2.6650602409638555
 10
63.42329846903908
 20
2.6819277108433734
 10
63.39017872471254
 20
2.6987951807228914
 10
63.35692230672688
 20
2.7156626506024097
 10
63.323530513281966
 20
2.7325301204819277
 10
63.29000461303082
 20
2.7493975903614456
 10
63.25634584613364
 20
2.766265060240964
 10
63.22255542526096
 20
2.783132530120482
 10
63.18863453654892
 20
2.8
 10
63.15458434050977
 20
2.816867469879518
 10
63.12040597290003
 20
2.833734939759036
 10
63.08610054554879
 20
2.850602409638554
 10
63.05166914714857
 20
2.8674698795180724
 10
63.01711284401081
 20
2.8843373493975903
 10
62.98243268078782
 20
2.9012048192771083
 10
62.94762968116336
 20
2.9180722891566266
 10
62.912704848513314
 20
2.9349397590361446
 10
62.87765916653812
 20
2.9518072289156625
 10
62.842493599868654
 20
2.968674698795181
 10
62.80720909464668
 20
2.985542168674699
 10
62.771806579081485
 20
3.0024096385542167
 10
62.736286963983694
 20
3.019277108433735
 10
62.70065114327765
 20
3.036144578313253
 10
62.66489999449327
 20
3.053012048192771
 10
62.62903437923845
 20
3.0698795180722893
 10
62.593055143653146
 20
3.0867469879518072
 10
62.55696311884572
 20
3.103614457831325
 10
62.520759121312736
 20
3.1204819277108435
 10
62.484443953342755
 20
3.1373493975903615
 10
62.448018403405065
 20
3.1542168674698794
 10
62.411483246523936
 20
3.1710843373493978
 10
62.37483924463913
 20
3.1879518072289157
 10
62.33808714695331
 20
3.2048192771084336
 10
62.30122769026695
 20
3.221686746987952
 10
62.264261599301186
 20
3.23855421686747
 10
62.227189587009455
 20
3.255421686746988
 10
62.19001235487801
 20
3.272289156626506
 10
62.15273059321615
 20
3.289156626506024
 10
62.115344981436444
 20
3.306024096385542
 10
62.07785618832541
 20
3.3228915662650604
 10
62.04026487230505
 20
3.3397590361445784
 10
62.00257168168567
 20
3.3566265060240963
 10
61.96477725491032
 20
3.3734939759036147
 10
61.92688222079116
 20
3.3903614457831326
 10
61.888887198738246
 20
3.4072289156626505
 10
61.85079279898079
 20
3.424096385542169
 10
61.81259962278149
 20
3.440963855421687
 10
61.77430826264392
 20
3.4578313253012047
 10
61.73591930251352
 20
3.474698795180723
 10
61.69743331797226
 20
3.491566265060241
 10
61.6588508764273
 20
3.508433734939759
 10
61.620172537293854
 20
3.5253012048192773
 10
61.581398852172526
 20
3.5421686746987953
 10
61.54253036502127
 20
3.559036144578313
 10
61.5035676123222
 20
3.5759036144578316
 10
61.464511123243476
 20
3.5927710843373495
 10
61.425361419796424
 20
3.6096385542168674
 10
61.38611901698803
 20
3.626506024096386
 10
61.34678442296907
 20
3.6433734939759037
 10
61.30735813917793
 20
3.6602409638554216
 10
61.267840660480346
 20
3.67710843373494
 10
61.228232475305205
 20
3.693975903614458
 10
61.188534065776516
 20
3.710843373493976
 10
61.148745907841665
 20
3.7277108433734942
 10
61.108868471396185
 20
3.744578313253012
 10
61.06890222040505
 20
3.76144578313253
 10
61.0288476130207
 20
3.7783132530120485
 10
60.98870510169782
 20
3.7951807228915664
 10
60.948475133305095
 20
3.8120481927710843
 10
60.908158149233934
 20
3.8289156626506022
 10
60.86775458550433
 20
3.8457831325301206
 10
60.82726487286797
 20
3.8626506024096385
 10
60.786689436908595
 20
3.8795180722891565
 10
60.74602869813979
 20
3.896385542168675
 10
60.705283072100244
 20
3.9132530120481928
 10
60.66445296944661
 20
3.9301204819277107
 10
60.623538796043945
 20
3.946987951807229
 10
60.582540953053936
 20
3.963855421686747
 10
60.54145983702083
 20
3.980722891566265
 10
60.50029583995535
 20
3.9975903614457833
 10
60.45904934941638
 20
4.014457831325301
 10
60.41772074859081
 20
4.031325301204819
 10
60.37631041637129
 20
4.048192771084337
 10
60.33481872743219
 20
4.065060240963856
 10
60.29324605230372
 20
4.081927710843374
 10
60.25159275744422
 20
4.098795180722892
 10
60.2098592053108
 20
4.11566265060241
 10
60.16804575442827
 20
4.132530120481928
 10
60.126152759456495
 20
4.1493975903614455
 10
60.08418057125611
 20
4.166265060240964
 10
60.04212953695279
 20
4.183132530120482
 10
60.0
 20
4.2
  0
TEXT
  5
32
330
17
100
AcDbEntity
  8
0
100
AcDbText
 10
60.0
 20
-5.0
 30
0.0
 40
2.0
  1
BODY PLAN
 11
60.0
 21
-5.0
 31
0.0
100
AcDbText
  0
LWPOLYLINE
  5
33
330
17
100
AcDbEntity
  8
0
100
AcDbPolyline
 90
600
 70
0
 10
0.0
 20
20.5
 10
0.021105527638190957
 20
20.65279078832799
 10
0.042211055276381915
 20
20.766017583685738
 10
0.06331658291457287
 20
20.867930094068488
 10
0.08442211055276383
 20
20.963117342050033
 10
0.10552763819095477
 20
21.053587889062552
 10
0.12663316582914574
 20
21.14045981435092
 10
0.1477386934673367
 20
21.224439972840088
 10
0.16884422110552766
 20
21.306012601403125
 10
0.1899497487437186
 20
21.385528405069767
 10
0.21105527638190955
 20
21.463251985394148
 10
0.2321608040201005
 20
21.53938934359389
 10
0.2532663316582915
 20
21.614104890875808
 10
0.2743718592964824
 20
21.6875325138121
 10
0.2954773869346734
 20
21.759783071392324
 10
0.31658291457286436
 20
21.83094964767567
 10
0.3376884422110553
 20
21.90111133697292
 10
0.3587939698492462
 20
21.970336037680713
 10
0.3798994974874372
 20
22.038682557445476
 10
0.4010050251256282
 20
22.10620222822111
 10
0.4221105527638191
 20
22.17294016508863
 10
0.44321608040201005
 20
22.238936261274226
 10
0.464321608040201
 20
22.304225984557938
 10
0.485427135678392
 20
22.368841021924673
 10
0.506532663316583
 20
22.43280980670206
 10
0.5276381909547738
 20
22.496157953598747
 10
0.5487437185929648
 20
22.55890862076524
 10
0.5698492462311558
 20
22.62108281344754
 10
0.5909547738693468
 20
22.682699640463618
 10
0.6120603015075377
 20
22.74377653225049
 10
0.6331658291457287
 20
22.804329427362383
 10
0.6542713567839197
 20
22.864372932880784
 10
0.6753768844221106
 20
22.923920463106764
 10
0.6964824120603015
 20
22.982984360060392
 10
0.7175879396984924
 20
23.041575998650796
 10
0.7386934673366835
 20
23.099705878858998
 10
0.7597989949748744
 20
23.157383706861225
 10
0.7809045226130653
 20
23.214618466688954
 10
0.8020100502512564
 20
23.271418483754626
 10
0.8231155778894473
 20
23.327791481355515
 10
0.8442211055276382
 20
23.383744631091513
 10
0.8653266331658291
 20
23.43928459798769
 10
0.8864321608040201
 20
23.494417580993016
 10
0.9075376884422112
 20
23.54914934942761
 10
0.928643216080402
 20
23.603485275868426
 10
0.9497487437185931
 20
23.657430365894285
 10
0.970854271356784
 20
23.710989285053195
 10
0.9919597989949749
 20
23.76416638336608
 10
1.013065326633166
 20
23.81696571763951
 10
1.0341708542713568
 20
23.86939107182496
 10
1.0552763819095476
 20
23.92144597563196
 10
1.0763819095477387
 20
23.973133721576872
 10
1.0974874371859296
 20
24.024457380626917
 10
1.1185929648241206
 20
24.075419816580016
 10
1.1396984924623117
 20
24.126023699304653
 10
1.1608040201005025
 20
24.176271516949566
 10
1.1819095477386936
 20
24.226165587220837
 10
1.2030150753768845
 20
24.275708067813067
 10
1.2241206030150753
 20
24.324900966071887
 10
1.2452261306532664
 20
24.373746147956844
 10
1.2663316582914574
 20
24.42224534636638
 10
1.2874371859296483
 20
24.4704001688803
 10
1.3085427135678394
 20
24.51821210496948
 10
1.3296482412060302
 20
24.565682532717496
 10
1.3507537688442213
 20
24.612812725094663
 10
1.3718592964824121
 20
24.65960385582074
 10
1.392964824120603
 20
24.706057004849452
 10
1.414070351758794
 20
24.75217316350454
 10
1.4351758793969849
 20
24.797953239294515
 10
1.456281407035176
 20
24.84339806043069
 10
1.477386934673367
 20
24.888508380070938
 10
1.4984924623115579
 20
24.933284880309547
 10
1.5195979899497487
 20
24.97772817593184
 10
1.5407035175879398
 20
25.021838817950563
 10
1.5618090452261306
 20
25.065617296939617
 10
1.5829145728643217
 20
25.10906404617941
 10
1.6040201005025128
 20
25.152179444626924
 10
1.6251256281407036
 20
25.194963819722485
 10
1.6462311557788947
 20
25.237417450044315
 10
1.6673366834170855
 20
25.279540567820987
 10
1.6884422110552764
 20
25.321333361311225
 10
1.7095477386934674
 20
25.36279597705959
 10
1.7306532663316583
 20
25.40392852203611
 10
1.7517587939698491
 20
25.4447310656672
 10
1.7728643216080402
 20
25.48520364176464
 10
1.7939698492462313
 20
25.525346250359018
 10
1.8150753768844223
 20
25.565158859443404
 10
1.8361809045226132
 20
25.604641406632737
 10
1.857286432160804
 20
25.643793800743936
 10
1.8783919597989953
 20
25.682615923301437
 10
1.8994974874371862
 20
25.721107629972487
 10
1.920603015075377
 20
25.759268751936283
 10
1.941708542713568
 20
25.797099097190703
 10
1.962814070351759
 20
25.834598451800186
 10
1.9839195979899498
 20
25.871766581087975
 10
2.0050251256281406
 20
25.908603230775892
 10
2.026130653266332
 20
25.945108128074438
 10
2.0472361809045228
 20
25.98128098272589
 10
2.0683417085427136
 20
26.017121488003003
 10
2.0894472361809044
 20
26.052629321665503
 10
2.1105527638190953
 20
26.087804146876742
 10
2.1316582914572866
 20
26.12264561308246
 10
2.1527638190954774
 20
26.157153356853637
 10
2.1738693467336683
 20
26.191327002695235
 10
2.194974874371859
 20
26.22516616382257
 10
2.2160804020100504
 20
26.258670442906876
 10
2.2371859296482413
 20
26.29183943279159
 10
2.2582914572864325
 20
26.32467271718079
 10
2.2793969849246234
 20
26.357169871301092
 10
2.3005025125628142
 20
26.389330462538314
 10
2.321608040201005
 20
26.421154051050028
 10
2.342713567839196
 20
26.452640190355194
 10
2.3638190954773872
 20
26.483788427901857
 10
2.384924623115578
 20
26.514598305613983
 10
2.406030150753769
 20
26.545069360418314
 10
2.4271356783919598
 20
26.575201124752155
 10
2.4482412060301506
 20
26.604993127052946
 10
2.469346733668342
 20
26.63444489223039
 10
2.4904522613065327
 20
26.663555942121942
 10
2.5115577889447236
 20
26.692325795932273
 10
2.532663316582915
 20
26.720753970657512
 10
2.5537688442211057
 20
26.748839981494797
 10
2.5748743718592966
 20
26.776583342237828
 10
2.595979899497488
 20
26.803983565658918
 10
2.6170854271356787
 20
26.831040163878146
 10
2.6381909547738696
 20
26.857752648720123
 10
2.6592964824120604
 20
26.88412053205884
 10
2.6804020100502512
 20
26.91014332615107
 10
2.7015075376884425
 20
26.935820543958787
 10
2.7226130653266334
 20
26.96115169946104
 10
2.7437185929648242
 20
26.986136307955608
 10
2.764824120603015
 20
27.010773886350886
 10
2.785929648241206
 20
27.035063953448383
 10
2.8070351758793968
 20
27.059006030216086
 10
2.828140703517588
 20
27.082599640053118
 10
2.849246231155779
 20
27.105844309045942
 10
2.8703517587939698
 20
27.12873956621644
 10
2.891457286432161
 20
27.151284943762118
 10
2.912562814070352
 20
27.17347997728878
 10
2.933668341708543
 20
27.19532420603582
 10
2.954773869346734
 20
27.216817173094498
 10
2.975879396984925
 20
27.237958425619347
 10
2.9969849246231157
 20
27.258747515032955
 10
3.0180904522613066
 20
27.2791839972244
 10
3.0391959798994974
 20
27.299267432741427
 10
3.0603015075376887
 20
27.318997386976683
 10
3.0814070351758795
 20
27.3383734303481
 10
3.1025125628140704
 20
27.357395138473677
 10
3.1236180904522612
 20
27.37606209234078
 10
3.144723618090452
 20
27.394373878470134
 10
3.1658291457286434
 20
27.412330089074697
 10
3.1869346733668342
 20
27.429930322213536
 10
3.2080402010050255
 20
27.44717418194082
 10
3.2291457286432164
 20
27.464061278450124
 10
3.250251256281407
 20
27.480591228214138
 10
3.271356783919598
 20
27.496763654119913
 10
3.2924623115577893
 20
27.512578185599764
 10
3.31356783919598
 20
27.528034458757936
 10
3.334673366834171
 20
27.54313211649315
 10
3.355778894472362
 20
27.55787080861714
 10
3.3768844221105527
 20
27.572250191969253
 10
3.397989949748744
 20
27.58626993052725
 10
3.419095477386935
 20
27.59992969551434
 10
3.4402010050251257
 20
27.6132291655026
 10
3.4613065326633166
 20
27.6261680265128
 10
3.4824120603015074
 20
27.638745972110783
 10
3.5035175879396983
 20
27.650962703500383
 10
3.5246231155778895
 20
27.662817929613063
 10
3.5457286432160804
 20
27.674311367194232
 10
3.5668341708542717
 20
27.685442740886394
 10
3.5879396984924625
 20
27.696211783309163
 10
3.6090452261306534
 20
27.706618235136148
 10
3.6301507537688447
 20
27.716661845168883
 10
3.6512562814070355
 20
27.72634237040774
 10
3.6723618090452264
 20
27.73565957611994
 10
3.693467336683417
 20
27.744613235904712
 10
3.714572864321608
 20
27.75320313175561
 10
3.735678391959799
 20
27.761429054120047
 10
3.7567839195979906
 20
27.76929080195614
 10
3.777889447236181
 20
27.77678818278681
 10
3.7989949748743723
 20
27.78392101275125
 10
3.8201005025125627
 20
27.790689116653773
 10
3.841206030150754
 20
27.79709232801008
 10
3.862311557788945
 20
27.803130489090936
 10
3.883417085427136
 20
27.808803450963374
 10
3.9045226130653266
 20
27.814111073529368
 10
3.925628140703518
 20
27.819053225562037
 10
3.9467336683417082
 20
27.823629784739406
 10
3.9678391959798995
 20
27.827840637675763
 10
3.9889447236180904
 20
27.831685679950564
 10
4.010050251256281
 20
27.835164816135013
 10
4.0311557788944725
 20
27.83827795981623
 10
4.052261306532664
 20
27.84102503361909
 10
4.073366834170855
 20
27.843405969225707
 10
4.0944723618090455
 20
27.84542070739263
 10
4.115577889447237
 20
27.847069197965695
 10
4.136683417085427
 20
27.84835139989257
 10
4.1577889447236185
 20
27.84926728123304
 10
4.178894472361809
 20
27.849816819166968
 10
4.2
 20
27.85
 10
4.2
 20
25.75
 10
4.282914572864322
 20
25.75
 10
4.365829145728644
 20
25.75
 10
4.448743718592965
 20
25.75
 10
4.531658291457286
 20
25.75
 10
4.614572864321609
 20
25.75
 10
4.69748743718593
 20
25.75
 10
4.780402010050252
 20
25.75
 10
4.863316582914574
 20
25.75
 10
4.946231155778895
 20
25.75
 10
5.029145728643217
 20
25.75
 10
5.112060301507538
 20
25.75
 10
5.19497487437186
 20
25.75
 10
5.2778894472361815
 20
25.75
 10
5.3608040201005025
 20
25.75
 10
5.443718592964824
 20
25.75
 10
5.526633165829146
 20
25.75
 10
5.609547738693467
 20
25.75
 10
5.692462311557788
 20
25.75
 10
5.775376884422111
 20
25.75
 10
5.858291457286432
 20
25.75
 10
5.941206030150753
 20
25.75
 10
6.024120603015076
 20
25.75
 10
6.107035175879398
 20
25.75
 10
6.189949748743718
 20
25.75
 10
6.27286432160804
 20
25.75
 10
6.355778894472363
 20
25.75
 10
6.438693467336683
 20
25.75
 10
6.521608040201005
 20
25.75
 10
6.604522613065328
 20
25.75
 10
6.687437185929649
 20
25.75
 10
6.77035175879397
 20
25.75
 10
6.853266331658292
 20
25.75
 10
6.9361809045226135
 20
25.75
 10
7.0190954773869345
 20
25.75
 10
7.102010050251256
 20
25.75
 10
7.184924623115578
 20
25.75
 10
7.267839195979899
 20
25.75
 10
7.350753768844221
 20
25.75
 10
7.433668341708543
 20
25.75
 10
7.516582914572864
 20
25.75
 10
7.599497487437186
 20
25.75
 10
7.682412060301507
 20
25.75
 10
7.765326633165829
 20
25.75
 10
7.848241206030151
 20
25.75
 10
7.931155778894473
 20
25.75
 10
8.014070351758795
 20
25.75
 10
8.096984924623115
 20
25.75
 10
8.179899497487437
 20
25.75
 10
8.262814070351759
 20
25.75
 10
8.34572864321608
 20
25.75
 10
8.428643216080403
 20
25.75
 10
8.511557788944724
 20
25.75
 10
8.594472361809045
 20
25.75
 10
8.677386934673365
 20
25.75
 10
8.760301507537688
 20
25.75
 10
8.84321608040201
 20
25.75
 10
8.926130653266332
 20
25.75
 10
9.009045226130654
 20
25.75
 10
9.091959798994974
 20
25.75
 10
9.174874371859296
 20
25.75
 10
9.257788944723618
 20
25.75
 10
9.34070351758794
 20
25.75
 10
9.423618090452262
 20
25.75
 10
9.506532663316584
 20
25.75
 10
9.589447236180904
 20
25.75
 10
9.672361809045226
 20
25.75
 10
9.755276381909546
 20
25.75
 10
9.838190954773868
 20
25.75
 10
9.921105527638192
 20
25.75
 10
10.004020100502514
 20
25.75
 10
10.086934673366835
 20
25.75
 10
10.169849246231156
 20
25.75
 10
10.252763819095476
 20
25.75
 10
10.335678391959798
 20
25.75
 10
10.418592964824121
 20
25.75
 10
10.501507537688443
 20
25.75
 10
10.584422110552765
 20
25.75
 10
10.667336683417085
 20
25.75
 10
10.750251256281405
 20
25.75
 10
10.833165829145727
 20
25.75
 10
10.91608040201005
 20
25.75
 10
10.998994974874371
 20
25.75
 10
11.081909547738695
 20
25.75
 10
11.164824120603015
 20
25.75
 10
11.247738693467337
 20
25.75
 10
11.330653266331657
 20
25.75
 10
11.413567839195979
 20
25.75
 10
11.4964824120603
 20
25.75
 10
11.579396984924625
 20
25.75
 10
11.662311557788945
 20
25.75
 10
11.745226130653267
 20
25.75
 10
11.828140703517589
 20
25.75
 10
11.911055276381909
 20
25.75
 10
11.99396984924623
 20
25.75
 10
12.076884422110552
 20
25.75
 10
12.159798994974874
 20
25.75
 10
12.242713567839196
 20
25.75
 10
12.325628140703518
 20
25.75
 10
12.408542713567838
 20
25.75
 10
12.49145728643216
 20
25.75
 10
12.574371859296482
 20
25.75
 10
12.657286432160802
 20
25.75
 10
12.740201005025126
 20
25.75
 10
12.823115577889448
 20
25.75
 10
12.906030150753768
 20
25.75
 10
12.98894472361809
 20
25.75
 10
13.071859296482412
 20
25.75
 10
13.154773869346732
 20
25.75
 10
13.237688442211054
 20
25.75
 10
13.320603015075378
 20
25.75
 10
13.403517587939698
 20
25.75
 10
13.48643216080402
 20
25.75
 10
13.569346733668342
 20
25.75
 10
13.652261306532662
 20
25.75
 10
13.735175879396984
 20
25.75
 10
13.818090452261306
 20
25.75
 10
13.90100502512563
 20
25.75
 10
13.98391959798995
 20
25.75
 10
14.066834170854271
 20
25.75
 10
14.149748743718593
 20
25.75
 10
14.232663316582913
 20
25.75
 10
14.315577889447235
 20
25.75
 10
14.398492462311557
 20
25.75
 10
14.481407035175879
 20
25.75
 10
14.564321608040201
 20
25.75
 10
14.647236180904523
 20
25.75
 10
14.730150753768843
 20
25.75
 10
14.813065326633165
 20
25.75
 10
14.895979899497487
 20
25.75
 10
14.978894472361809
 20
25.75
 10
15.06180904522613
 20
25.75
 10
15.144723618090453
 20
25.75
 10
15.227638190954771
 20
25.75
 10
15.310552763819096
 20
25.75
 10
15.393467336683415
 20
25.75
 10
15.476381909547737
 20
25.75
 10
15.559296482412059
 20
25.75
 10
15.642211055276382
 20
25.75
 10
15.725125628140704
 20
25.75
 10
15.808040201005022
 20
25.75
 10
15.890954773869348
 20
25.75
 10
15.973869346733666
 20
25.75
 10
16.05678391959799
 20
25.75
 10
16.139698492462312
 20
25.75
 10
16.222613065326634
 20
25.75
 10
16.305527638190956
 20
25.75
 10
16.388442211055274
 20
25.75
 10
16.4713567839196
 20
25.75
 10
16.554271356783918
 20
25.75
 10
16.63718592964824
 20
25.75
 10
16.72010050251256
 20
25.75
 10
16.80301507537688
 20
25.75
 10
16.885929648241206
 20
25.75
 10
16.968844221105527
 20
25.75
 10
17.05175879396985
 20
25.75
 10
17.13467336683417
 20
25.75
 10
17.217587939698493
 20
25.75
 10
17.300502512562815
 20
25.75
 10
17.383417085427133
 20
25.75
 10
17.46633165829146
 20
25.75
 10
17.549246231155777
 20
25.75
 10
17.6321608040201
 20
25.75
 10
17.71507537688442
 20
25.75
 10
17.79798994974874
 20
25.75
 10
17.880904522613065
 20
25.75
 10
17.963819095477383
 20
25.75
 10
18.04673366834171
 20
25.75
 10
18.129648241206027
 20
25.75
 10
18.212562814070353
 20
25.75
 10
18.295477386934675
 20
25.75
 10
18.378391959798993
 20
25.75
 10
18.46130653266332
 20
25.75
 10
18.544221105527637
 20
25.75
 10
18.62713567839196
 20
25.75
 10
18.71005025125628
 20
25.75
 10
18.792964824120602
 20
25.75
 10
18.875879396984924
 20
25.75
 10
18.958793969849243
 20
25.75
 10
19.041708542713568
 20
25.75
 10
19.124623115577887
 20
25.75
 10
19.20753768844221
 20
25.75
 10
19.290452261306534
 20
25.75
 10
19.373366834170856
 20
25.75
 10
19.456281407035178
 20
25.75
 10
19.539195979899496
 20
25.75
 10
19.622110552763818
 20
25.75
 10
19.70502512562814
 20
25.75
 10
19.787939698492462
 20
25.75
 10
19.870854271356784
 20
25.75
 10
19.953768844221106
 20
25.75
 10
20.036683417085424
 20
25.75
 10
20.119597989949746
 20
25.75
 10
20.202512562814068
 20
25.75
 10
20.28542713567839
 20
25.75
 10
20.36834170854271
 20
25.75
 10
20.451256281407034
 20
25.75
 10
20.534170854271355
 20
25.75
 10
20.617085427135677
 20
25.75
 10
20.7
 20
25.75
 10
20.7
 20
25.75
 10
20.746733668341705
 20
25.749649344253175
 10
20.793467336683417
 20
25.749008195774234
 10
20.840201005025126
 20
25.748177939291605
 10
20.88693467336683
 20
25.747194754025408
 10
20.933668341708543
 20
25.746079549567
 10
20.98040201005025
 20
25.744846434069437
 10
21.027135678391957
 20
25.743505764686752
 10
21.07386934673367
 20
25.742065566193876
 10
21.120603015075375
 20
25.74053229483575
 10
21.167336683417084
 20
25.738911291654084
 10
21.214070351758792
 20
25.737207071029225
 10
21.2608040201005
 20
25.73542351433283
 10
21.30753768844221
 20
25.733564005422263
 10
21.35427135678392
 20
25.73163152868553
 10
21.401005025125627
 20
25.72962874198447
 10
21.447738693467333
 20
25.727558032203255
 10
21.494472361809045
 20
25.72542155839944
 10
21.541206030150754
 20
25.72322128590433
 10
21.58793969849246
 20
25.72095901367681
 10
21.63467336683417
 20
25.71863639653601
 10
21.681407035175877
 20
25.716254963443447
 10
21.728140703517585
 20
25.713816132694113
 10
21.774874371859298
 20
25.71132122465765
 10
21.821608040201003
 20
25.708771472555497
 10
21.86834170854271
 20
25.706168031646982
 10
21.91507537688442
 20
25.703511987114144
 10
21.96180904522613
 20
25.7008043608733
 10
22.008542713567838
 20
25.69804611749403
 10
22.055276381909547
 20
25.695238169370707
 10
22.102010050251256
 20
25.692381381263676
 10
22.14874371859296
 20
25.689476574305537
 10
22.195477386934673
 20
25.686524529551
 10
22.242211055276382
 20
25.683525991135
 10
22.288944723618087
 20
25.680481669092988
 10
22.3356783919598
 20
25.677392241888505
 10
22.382412060301505
 20
25.674258358685982
 10
22.429145728643213
 20
25.671080641400817
 10
22.475879396984926
 20
25.667859686554113
 10
22.52261306532663
 20
25.66459606695529
 10
22.56934673366834
 20
25.661290333232664
 10
22.61608040201005
 20
25.65794301522912
 10
22.662814070351757
 20
25.654554623277896
 10
22.709547738693466
 20
25.651125649371316
 10
22.756281407035175
 20
25.647656568233813
 10
22.803015075376884
 20
25.64414783830903
 10
22.849748743718592
 20
25.640599902669727
 10
22.8964824120603
 20
25.63701318985801
 10
22.94321608040201
 20
25.633388114662633
 10
22.989949748743715
 20
25.629725078839314
 10
23.036683417085428
 20
25.626024471779303
 10
23.083417085427136
 20
25.622286671130897
 10
23.13015075376884
 20
25.618512043378093
 10
23.176884422110554
 20
25.614700944380054
 10
23.22361809045226
 20
25.61085371987481
 10
23.270351758793968
 20
25.60697070595012
 10
23.31708542713568
 20
25.603052229484234
 10
23.363819095477385
 20
25.59909860855898
 10
23.410552763819094
 20
25.595110152847354
 10
23.457286432160803
 20
25.59108716397764
 10
23.504020100502512
 20
25.587029935875773
 10
23.55075376884422
 20
25.582938755087717
 10
23.59748743718593
 20
25.578813901083223
 10
23.644221105527638
 20
25.574655646542343
 10
23.690954773869343
 20
25.57046425762603
 10
23.737688442211056
 20
25.566239994231797
 10
23.784422110552764
 20
25.561983110235616
 10
23.83115577889447
 20
25.55769385372091
 10
23.877889447236182
 20
25.553372467195523
 10
23.924623115577887
 20
25.549019187797512
 10
23.971356783919596
 20
25.54463424749044
 10
24.01809045226131
 20
25.540217873248857
 10
24.064824120603014
 20
25.535770287234634
 10
24.111557788944722
 20
25.53129170696466
 10
24.15829145728643
 20
25.5267823454705
 10
24.20502512562814
 20
25.522242411450453
 10
24.25175879396985
 20
25.517672109414498
 10
24.298492462311557
 20
25.513071639822538
 10
24.345226130653266
 20
25.508441199216342
 10
24.391959798994975
 20
25.503780980345553
 10
24.43869346733668
 20
25.49909117228807
 10
24.485427135678393
 20
25.494371960565186
 10
24.532160804020098
 20
25.489623527251695
 10
24.57889447236181
 20
25.4848460510813
 10
24.62562814070352
 20
25.480039707547576
 10
24.672361809045224
 20
25.4752046690007
 10
24.719095477386933
 20
25.470341104740164
 10
24.76582914572864
 20
25.465449181103757
 10
24.81256281407035
 20
25.4605290615529
 10
24.859296482412063
 20
25.455580906754612
 10
24.906030150753768
 20
25.45060487466024
 10
24.952763819095477
 20
25.44560112058109
 10
24.999497487437182
 20
25.440569797261187
 10
25.046231155778894
 20
25.435511054947213
 10
25.092964824120603
 20
25.430425041455848
 10
25.139698492462312
 20
25.425311902238555
 10
25.18643216080402
 20
25.420171780443997
 10
25.233165829145726
 20
25.415004816978183
 10
25.279899497487435
 20
25.409811150562405
 10
25.326633165829147
 20
25.404590917789115
 10
25.373366834170852
 20
25.39934425317584
 10
25.420100502512565
 20
25.39407128921718
 10
25.46683417085427
 20
25.388772156435003
 10
25.51356783919598
 20
25.383446983426932
 10
25.560301507537687
 20
25.378095896913152
 10
25.607035175879396
 20
25.372719021781663
 10
25.653768844221105
 20
25.367316481132008
 10
25.700502512562814
 20
25.36188839631755
 10
25.747236180904522
 20
25.356434886986385
 10
25.79396984924623
 20
25.350956071120883
 10
25.840703517587936
 20
25.345452065076017
 10
25.88743718592965
 20
25.339922983616404
 10
25.934170854271354
 20
25.334368939952224
 10
25.980904522613066
 20
25.328790045773996
 10
26.027638190954775
 20
25.323186411286272
 10
26.07437185929648
 20
25.317558145240294
 10
26.12110552763819
 20
25.31190535496567
 10
26.167839195979898
 20
25.306228146401068
 10
26.214572864321607
 20
25.30052662412401
 10
26.26130653266332
 20
25.294800891379765
 10
26.308040201005024
 20
25.289051050109407
 10
26.354773869346733
 20
25.28327720097704
 10
26.40150753768844
 20
25.27747944339624
 10
26.44824120603015
 20
25.271657875555718
 10
26.49497487437186
 20
25.2658125944443
 10
26.541708542713568
 20
25.259943695875137
 10
26.588442211055277
 20
25.254051274509283
 10
26.635175879396982
 20
25.248135423878598
 10
26.68190954773869
 20
25.24219623640802
 10
26.728643216080403
 20
25.23623380343722
 10
26.77537688442211
 20
25.230248215241698
 10
26.82211055276382
 20
25.224239561053263
 10
26.868844221105526
 20
25.21820792908001
 10
26.915577889447235
 20
25.212153406525722
 10
26.962311557788944
 20
25.206076079608813
 10
27.009045226130652
 20
25.199976033580732
 10
27.05577889447236
 20
25.193853352743893
 10
27.10251256281407
 20
25.187708120469186
 10
27.14924623115578
 20
25.181540419212965
 10
27.195979899497488
 20
25.175350330533682
 10
27.242713567839193
 20
25.169137935108047
 10
27.289447236180905
 20
25.162903312746806
 10
27.336180904522614
 20
25.156646542410122
 10
27.382914572864323
 20
25.150367702222592
 10
27.42964824120603
 20
25.14406686948785
 10
27.476381909547737
 20
25.137744120702873
 10
27.523115577889445
 20
25.131399531571905
 10
27.569849246231158
 20
25.125033177020047
 10
27.616582914572863
 20
25.118645131206538
 10
27.663316582914575
 20
25.112235467537722
 10
27.71005025125628
 20
25.105804258679683
 10
27.75678391959799
 20
25.099351576570616
 10
27.803517587939698
 20
25.0928774924329
 10
27.850251256281407
 20
25.08638207678489
 10
27.896984924623116
 20
25.07986539945243
 10
27.943718592964824
 20
25.073327529580123
 10
27.990452261306533
 20
25.06676853564234
 10
28.037185929648242
 20
25.06018848545397
 10
28.083919597989947
 20
25.05358744618094
 10
28.13065326633166
 20
25.04696548435051
 10
28.177386934673365
 20
25.04032266586131
 10
28.224120603015077
 20
25.0336590559932
 10
28.270854271356786
 20
25.026974719416884
 10
28.31758793969849
 20
25.020269720203324
 10
28.3643216080402
 20
25.01354412183295
 10
28.41105527638191
 20
25.006797987204692
 10
28.457788944723617
 20
25.00003137864478
 10
28.50452261306533
 20
24.9932443579154
 10
28.551256281407035
 20
24.986436986223154
 10
28.597989949748744
 20
24.97960932422732
 10
28.644723618090453
 20
24.97276143204797
 10
28.69145728643216
 20
24.96589336927393
 10
28.73819095477387
 20
24.95900519497053
 10
28.78492462311558
 20
24.95209696768724
 10
28.831658291457288
 20
24.94516874546513
 10
28.878391959798996
 20
24.938220585844185
 10
28.9251256281407
 20
24.93125254587049
 10
28.971859296482414
 20
24.924264682103225
 10
29.01859296482412
 20
24.917257050621572
 10
29.06532663316583
 20
24.910229707031476
 10
29.11206030150754
 20
24.903182706472236
 10
29.158793969849246
 20
24.89611610362302
 10
29.205527638190954
 20
24.889029952709212
 10
29.252261306532663
 20
24.881924307508665
 10
29.298994974874372
 20
24.874799221357826
 10
29.345728643216084
 20
24.867654747157726
 10
29.39246231155779
 20
24.860490937379886
 10
29.439195979899498
 20
24.853307844072095
 10
29.485929648241203
 20
24.846105518864082
 10
29.532663316582916
 20
24.838884012973075
 10
29.579396984924625
 20
24.83164337720928
 10
29.626130653266333
 20
24.82438366198123
 10
29.672864321608042
 20
24.81710491730106
 10
29.719597989949747
 20
24.809807192789663
 10
29.766331658291456
 20
24.80249053768178
 10
29.813065326633165
 20
24.795155000830967
 10
29.859798994974874
 20
24.7878006307145
 10
29.906532663316586
 20
24.78042747543818
 10
29.95326633165829
 20
24.77303558274104
 10
30.0
 20
24.765625
  0
LWPOLYLINE
  5
34
330
17
100
AcDbEntity
  8
0
100
AcDbPolyline
 90
600
 70
0
 10
0.0
 20
20.5
 10
0.021105527638190957
 20
20.34720921167201
 10
0.042211055276381915
 20
20.233982416314262
 10
0.06331658291457287
 20
20.132069905931512
 10
0.08442211055276383
 20
20.036882657949967
 10
0.10552763819095477
 20
19.946412110937448
 10
0.12663316582914574
 20
19.85954018564908
 10
0.1477386934673367
 20
19.775560027159912
 10
0.16884422110552766
 20
19.693987398596875
 10
0.1899497487437186
 20
19.614471594930233
 10
0.21105527638190955
 20
19.536748014605852
 10
0.2321608040201005
 20
19.46061065640611
 10
0.2532663316582915
 20
19.385895109124192
 10
0.2743718592964824
 20
19.3124674861879
 10
0.2954773869346734
 20
19.240216928607676
 10
0.31658291457286436
 20
19.16905035232433
 10
0.3376884422110553
 20
19.09888866302708
 10
0.3587939698492462
 20
19.029663962319287
 10
0.3798994974874372
 20
18.961317442554524
 10
0.4010050251256282
 20
18.89379777177889
 10
0.4221105527638191
 20
18.82705983491137
 10
0.44321608040201005
 20
18.761063738725774
 10
0.464321608040201
 20
18.695774015442062
 10
0.485427135678392
 20
18.631158978075327
 10
0.506532663316583
 20
18.56719019329794
 10
0.5276381909547738
 20
18.503842046401253
 10
0.5487437185929648
 20
18.44109137923476
 10
0.5698492462311558
 20
18.37891718655246
 10
0.5909547738693468
 20
18.317300359536382
 10
0.6120603015075377
 20
18.25622346774951
 10
0.6331658291457287
 20
18.195670572637617
 10
0.6542713567839197
 20
18.135627067119216
 10
0.6753768844221106
 20
18.076079536893236
 10
0.6964824120603015
 20
18.017015639939608
 10
0.7175879396984924
 20
17.958424001349204
 10
0.7386934673366835
 20
17.900294121141002
 10
0.7597989949748744
 20
17.842616293138775
 10
0.7809045226130653
 20
17.785381533311046
 10
0.8020100502512564
 20
17.728581516245374
 10
0.8231155778894473
 20
17.672208518644485
 10
0.8442211055276382
 20
17.616255368908487
 10
0.8653266331658291
 20
17.56071540201231
 10
0.8864321608040201
 20
17.505582419006984
 10
0.9075376884422112
 20
17.45085065057239
 10
0.928643216080402
 20
17.396514724131574
 10
0.9497487437185931
 20
17.342569634105715
 10
0.970854271356784
 20
17.289010714946805
 10
0.9919597989949749
 20
17.23583361663392
 10
1.013065326633166
 20
17.18303428236049
 10
1.0341708542713568
 20
17.13060892817504
 10
1.0552763819095476
 20
17.07855402436804
 10
1.0763819095477387
 20
17.026866278423128
 10
1.0974874371859296
 20
16.975542619373083
 10
1.1185929648241206
 20
16.924580183419984
 10
1.1396984924623117
 20
16.873976300695347
 10
1.1608040201005025
 20
16.823728483050434
 10
1.1819095477386936
 20
16.773834412779163
 10
1.2030150753768845
 20
16.724291932186933
 10
1.2241206030150753
 20
16.675099033928113
 10
1.2452261306532664
 20
16.626253852043156
 10
1.2663316582914574
 20
16.57775465363362
 10
1.2874371859296483
 20
16.5295998311197
 10
1.3085427135678394
 20
16.48178789503052
 10
1.3296482412060302
 20
16.434317467282504
 10
1.3507537688442213
 20
16.387187274905337
 10
1.3718592964824121
 20
16.34039614417926
 10
1.392964824120603
 20
16.293942995150548
 10
1.414070351758794
 20
16.24782683649546
 10
1.4351758793969849
 20
16.202046760705485
 10
1.456281407035176
 20
16.15660193956931
 10
1.477386934673367
 20
16.111491619929062
 10
1.4984924623115579
 20
16.066715119690453
 10
1.5195979899497487
 20
16.02227182406816
 10
1.5407035175879398
 20
15.978161182049437
 10
1.5618090452261306
 20
15.934382703060383
 10
1.5829145728643217
 20
15.890935953820591
 10
1.6040201005025128
 20
15.847820555373076
 10
1.6251256281407036
 20
15.805036180277515
 10
1.6462311557788947
 20
15.762582549955685
 10
1.6673366834170855
 20
15.72045943217901
 10
1.6884422110552764
 20
15.678666638688775
 10
1.7095477386934674
 20
15.63720402294041
 10
1.7306532663316583
 20
15.596071477963887
 10
1.7517587939698491
 20
15.5552689343328
 10
1.7728643216080402
 20
15.514796358235358
 10
1.7939698492462313
 20
15.474653749640982
 10
1.8150753768844223
 20
15.434841140556596
 10
1.8361809045226132
 20
15.395358593367263
 10
1.857286432160804
 20
15.356206199256064
 10
1.8783919597989953
 20
15.317384076698563
 10
1.8994974874371862
 20
15.278892370027513
 10
1.920603015075377
 20
15.240731248063717
 10
1.941708542713568
 20
15.202900902809295
 10
1.962814070351759
 20
15.165401548199814
 10
1.9839195979899498
 20
15.128233418912025
 10
2.0050251256281406
 20
15.091396769224108
 10
2.026130653266332
 20
15.054891871925564
 10
2.0472361809045228
 20
15.018719017274108
 10
2.0683417085427136
 20
14.982878511996997
 10
2.0894472361809044
 20
14.947370678334497
 10
2.1105527638190953
 20
14.912195853123258
 10
2.1316582914572866
 20
14.877354386917538
 10
2.1527638190954774
 20
14.842846643146363
 10
2.1738693467336683
 20
14.808672997304765
 10
2.194974874371859
 20
14.774833836177429
 10
2.2160804020100504
 20
14.741329557093122
 10
2.2371859296482413
 20
14.70816056720841
 10
2.2582914572864325
 20
14.675327282819213
 10
2.2793969849246234
 20
14.642830128698908
 10
2.3005025125628142
 20
14.610669537461686
 10
2.321608040201005
 20
14.578845948949972
 10
2.342713567839196
 20
14.547359809644806
 10
2.3638190954773872
 20
14.516211572098143
 10
2.384924623115578
 20
14.485401694386017
 10
2.406030150753769
 20
14.454930639581686
 10
2.4271356783919598
 20
14.424798875247845
 10
2.4482412060301506
 20
14.395006872947054
 10
2.469346733668342
 20
14.365555107769609
 10
2.4904522613065327
 20
14.336444057878058
 10
2.5115577889447236
 20
14.307674204067727
 10
2.532663316582915
 20
14.27924602934249
 10
2.5537688442211057
 20
14.251160018505203
 10
2.5748743718592966
 20
14.223416657762172
 10
2.595979899497488
 20
14.196016434341082
 10
2.6170854271356787
 20
14.168959836121854
 10
2.6381909547738696
 20
14.142247351279876
 10
2.6592964824120604
 20
14.11587946794116
 10
2.6804020100502512
 20
14.089856673848931
 10
2.7015075376884425
 20
14.064179456041213
 10
2.7226130653266334
 20
14.038848300538957
 10
2.7437185929648242
 20
14.013863692044392
 10
2.764824120603015
 20
13.989226113649114
 10
2.785929648241206
 20
13.964936046551617
 10
2.8070351758793968
 20
13.940993969783914
 10
2.828140703517588
 20
13.917400359946882
 10
2.849246231155779
 20
13.894155690954058
 10
2.8703517587939698
 20
13.871260433783563
 10
2.891457286432161
 20
13.848715056237882
 10
2.912562814070352
 20
13.826520022711222
 10
2.933668341708543
 20
13.804675793964181
 10
2.954773869346734
 20
13.7831828269055
 10
2.975879396984925
 20
13.762041574380653
 10
2.9969849246231157
 20
13.741252484967045
 10
3.0180904522613066
 20
13.720816002775601
 10
3.0391959798994974
 20
13.700732567258573
 10
3.0603015075376887
 20
13.681002613023319
 10
3.0814070351758795
 20
13.6616265696519
 10
3.1025125628140704
 20
13.642604861526321
 10
3.1236180904522612
 20
13.623937907659219
 10
3.144723618090452
 20
13.605626121529866
 10
3.1658291457286434
 20
13.587669910925303
 10
3.1869346733668342
 20
13.570069677786462
 10
3.2080402010050255
 20
13.55282581805918
 10
3.2291457286432164
 20
13.535938721549876
 10
3.250251256281407
 20
13.519408771785862
 10
3.271356783919598
 20
13.503236345880087
 10
3.2924623115577893
 20
13.487421814400236
 10
3.31356783919598
 20
13.471965541242064
 10
3.334673366834171
 20
13.456867883506849
 10
3.355778894472362
 20
13.442129191382861
 10
3.3768844221105527
 20
13.427749808030747
 10
3.397989949748744
 20
13.413730069472749
 10
3.419095477386935
 20
13.40007030448566
 10
3.4402010050251257
 20
13.386770834497401
 10
3.4613065326633166
 20
13.3738319734872
 10
3.4824120603015074
 20
13.361254027889219
 10
3.5035175879396983
 20
13.349037296499617
 10
3.5246231155778895
 20
13.337182070386937
 10
3.5457286432160804
 20
13.325688632805768
 10
3.5668341708542717
 20
13.314557259113604
 10
3.5879396984924625
 20
13.303788216690837
 10
3.6090452261306534
 20
13.293381764863852
 10
3.6301507537688447
 20
13.283338154831117
 10
3.6512562814070355
 20
13.273657629592261
 10
3.6723618090452264
 20
13.26434042388006
 10
3.693467336683417
 20
13.255386764095288
 10
3.714572864321608
 20
13.246796868244392
 10
3.735678391959799
 20
13.238570945879953
 10
3.7567839195979906
 20
13.230709198043861
 10
3.777889447236181
 20
13.223211817213192
 10
3.7989949748743723
 20
13.216078987248752
 10
3.8201005025125627
 20
13.209310883346227
 10
3.841206030150754
 20
13.202907671989921
 10
3.862311557788945
 20
13.196869510909064
 10
3.883417085427136
 20
13.191196549036626
 10
3.9045226130653266
 20
13.185888926470632
 10
3.925628140703518
 20
13.180946774437965
 10
3.9467336683417082
 20
13.176370215260594
 10
3.9678391959798995
 20
13.172159362324239
 10
3.9889447236180904
 20
13.168314320049436
 10
4.010050251256281
 20
13.164835183864986
 10
4.0311557788944725
 20
13.161722040183768
 10
4.052261306532664
 20
13.158974966380912
 10
4.073366834170855
 20
13.156594030774295
 10
4.0944723618090455
 20
13.15457929260737
 10
4.115577889447237
 20
13.152930802034305
 10
4.136683417085427
 20
13.15164860010743
 10
4.1577889447236185
 20
13.15073271876696
 10
4.178894472361809
 20
13.150183180833032
 10
4.2
 20
13.15
 10
4.2
 20
15.25
 10
4.282914572864322
 20
15.25
 10
4.365829145728644
 20
15.25
 10
4.448743718592965
 20
15.25
 10
4.531658291457286
 20
15.25
 10
4.614572864321609
 20
15.25
 10
4.69748743718593
 20
15.25
 10
4.780402010050252
 20
15.25
 10
4.863316582914574
 20
15.25
 10
4.946231155778895
 20
15.25
 10
5.029145728643217
 20
15.25
 10
5.112060301507538
 20
15.25
 10
5.19497487437186
 20
15.25
 10
5.2778894472361815
 20
15.25
 10
5.3608040201005025
 20
15.25
 10
5.443718592964824
 20
15.25
 10
5.526633165829146
 20
15.25
 10
5.609547738693467
 20
15.25
 10
5.692462311557788
 20
15.25
 10
5.775376884422111
 20
15.25
 10
5.858291457286432
 20
15.25
 10
5.941206030150753
 20
15.25
 10
6.024120603015076
 20
15.25
 10
6.107035175879398
 20
15.25
 10
6.189949748743718
 20
15.25
 10
6.27286432160804
 20
15.25
 10
6.355778894472363
 20
15.25
 10
6.438693467336683
 20
15.25
 10
6.521608040201005
 20
15.25
 10
6.604522613065328
 20
15.25
 10
6.687437185929649
 20
15.25
 10
6.77035175879397
 20
15.25
 10
6.853266331658292
 20
15.25
 10
6.9361809045226135
 20
15.25
 10
7.0190954773869345
 20
15.25
 10
7.102010050251256
 20
15.25
 10
7.184924623115578
 20
15.25
 10
7.267839195979899
 20
15.25
 10
7.350753768844221
 20
15.25
 10
7.433668341708543
 20
15.25
 10
7.516582914572864
 20
15.25
 10
7.599497487437186
 20
15.25
 10
7.682412060301507
 20
15.25
 10
7.765326633165829
 20
15.25
 10
7.848241206030151
 20
15.25
 10
7.931155778894473
 20
15.25
 10
8.014070351758795
 20
15.25
 10
8.096984924623115
 20
15.25
 10
8.179899497487437
 20
15.25
 10
8.262814070351759
 20
15.25
 10
8.34572864321608
 20
15.25
 10
8.428643216080403
 20
15.25
 10
8.511557788944724
 20
15.25
 10
8.594472361809045
 20
15.25
 10
8.677386934673365
 20
15.25
 10
8.760301507537688
 20
15.25
 10
8.84321608040201
 20
15.25
 10
8.926130653266332
 20
15.25
 10
9.009045226130654
 20
15.25
 10
9.091959798994974
 20
15.25
 10
9.174874371859296
 20
15.25
 10
9.257788944723618
 20
15.25
 10
9.34070351758794
 20
15.25
 10
9.423618090452262
 20
15.25
 10
9.506532663316584
 20
15.25
 10
9.589447236180904
 20
15.25
 10
9.672361809045226
 20
15.25
 10
9.755276381909546
 20
15.25
 10
9.838190954773868
 20
15.25
 10
9.921105527638192
 20
15.25
 10
10.004020100502514
 20
15.25
 10
10.086934673366835
 20
15.25
 10
10.169849246231156
 20
15.25
 10
10.252763819095476
 20
15.25
 10
10.335678391959798
 20
15.25
 10
10.418592964824121
 20
15.25
 10
10.501507537688443
 20
15.25
 10
10.584422110552765
 20
15.25
 10
10.667336683417085
 20
15.25
 10
10.750251256281405
 20
15.25
 10
10.833165829145727
 20
15.25
 10
10.91608040201005
 20
15.25
 10
10.998994974874371
 20
15.25
 10
11.081909547738695
 20
15.25
 10
11.164824120603015
 20
15.25
 10
11.247738693467337
 20
15.25
 10
11.330653266331657
 20
15.25
 10
11.413567839195979
 20
15.25
 10
11.4964824120603
 20
15.25
 10
11.579396984924625
 20
15.25
 10
11.662311557788945
 20
15.25
 10
11.745226130653267
 20
15.25
 10
11.828140703517589
 20
15.25
 10
11.911055276381909
 20
15.25
 10
11.99396984924623
 20
15.25
 10
12.076884422110552
 20
15.25
 10
12.159798994974874
 20
15.25
 10
12.242713567839196
 20
15.25
 10
12.325628140703518
 20
15.25
 10
12.408542713567838
 20
15.25
 10
12.49145728643216
 20
15.25
 10
12.574371859296482
 20
15.25
 10
12.657286432160802
 20
15.25
 10
12.740201005025126
 20
15.25
 10
12.823115577889448
 20
15.25
 10
12.906030150753768
 20
15.25
 10
12.98894472361809
 20
15.25
 10
13.071859296482412
 20
15.25
 10
13.154773869346732
 20
15.25
 10
13.237688442211054
 20
15.25
 10
13.320603015075378
 20
15.25
 10
13.403517587939698
 20
15.25
 10
13.48643216080402
 20
15.25
 10
13.569346733668342
 20
15.25
 10
13.652261306532662
 20
15.25
 10
13.735175879396984
 20
15.25
 10
13.818090452261306
 20
15.25
 10
13.90100502512563
 20
15.25
 10
13.98391959798995
 20
15.25
 10
14.066834170854271
 20
15.25
 10
14.149748743718593
 20
15.25
 10
14.232663316582913
 20
15.25
 10
14.315577889447235
 20
15.25
 10
14.398492462311557
 20
15.25
 10
14.481407035175879
 20
15.25
 10
14.564321608040201
 20
15.25
 10
14.647236180904523
 20
15.25
 10
14.730150753768843
 20
15.25
 10
14.813065326633165
 20
15.25
 10
14.895979899497487
 20
15.25
 10
14.978894472361809
 20
15.25
 10
15.06180904522613
 20
15.25
 10
15.144723618090453
 20
15.25
 10
15.227638190954771
 20
15.25
 10
15.310552763819096
 20
15.25
 10
15.393467336683415
 20
15.25
 10
15.476381909547737
 20
15.25
 10
15.559296482412059
 20
15.25
 10
15.642211055276382
 20
15.25
 10
15.725125628140704
 20
15.25
 10
15.808040201005022
 20
15.25
 10
15.890954773869348
 20
15.25
 10
15.973869346733666
 20
15.25
 10
16.05678391959799
 20
15.25
 10
16.139698492462312
 20
15.25
 10
16.222613065326634
 20
15.25
 10
16.305527638190956
 20
15.25
 10
16.388442211055274
 20
15.25
 10
16.4713567839196
 20
15.25
 10
16.554271356783918
 20
15.25
 10
16.63718592964824
 20
15.25
 10
16.72010050251256
 20
15.25
 10
16.80301507537688
 20
15.25
 10
16.885929648241206
 20
15.25
 10
16.968844221105527
 20
15.25
 10
17.05175879396985
 20
15.25
 10
17.13467336683417
 20
15.25
 10
17.217587939698493
 20
15.25
 10
17.300502512562815
 20
15.25
 10
17.383417085427133
 20
15.25
 10
17.46633165829146
 20
15.25
 10
17.549246231155777
 20
15.25
 10
17.6321608040201
 20
15.25
 10
17.71507537688442
 20
15.25
 10
17.79798994974874
 20
15.25
 10
17.880904522613065
 20
15.25
 10
17.963819095477383
 20
15.25
 10
18.04673366834171
 20
15.25
 10
18.129648241206027
 20
15.25
 10
18.212562814070353
 20
15.25
 10
18.295477386934675
 20
15.25
 10
18.378391959798993
 20
15.25
 10
18.46130653266332
 20
15.25
 10
18.544221105527637
 20
15.25
 10
18.62713567839196
 20
15.25
 10
18.71005025125628
 20
15.25
 10
18.792964824120602
 20
15.25
 10
18.875879396984924
 20
15.25
 10
18.958793969849243
 20
15.25
 10
19.041708542713568
 20
15.25
 10
19.124623115577887
 20
15.25
 10
19.20753768844221
 20
15.25
 10
19.290452261306534
 20
15.25
 10
19.373366834170856
 20
15.25
 10
19.456281407035178
 20
15.25
 10
19.539195979899496
 20
15.25
 10
19.622110552763818
 20
15.25
 10
19.70502512562814
 20
15.25
 10
19.787939698492462
 20
15.25
 10
19.870854271356784
 20
15.25
 10
19.953768844221106
 20
15.25
 10
20.036683417085424
 20
15.25
 10
20.119597989949746
 20
15.25
 10
20.202512562814068
 20
15.25
 10
20.28542713567839
 20
15.25
 10
20.36834170854271
 20
15.25
 10
20.451256281407034
 20
15.25
 10
20.534170854271355
 20
15.25
 10
20.617085427135677
 20
15.25
 10
20.7
 20
15.25
 10
20.7
 20
15.25
 10
20.746733668341705
 20
15.250350655746825
 10
20.793467336683417
 20
15.250991804225766
 10
20.840201005025126
 20
15.251822060708395
 10
20.88693467336683
 20
15.252805245974592
 10
20.933668341708543
 20
15.253920450433
 10
20.98040201005025
 20
15.255153565930563
 10
21.027135678391957
 20
15.256494235313246
 10
21.07386934673367
 20
15.257934433806124
 10
21.120603015075375
 20
15.259467705164251
 10
21.167336683417084
 20
15.261088708345916
 10
21.214070351758792
 20
15.262792928970773
 10
21.2608040201005
 20
15.26457648566717
 10
21.30753768844221
 20
15.266435994577737
 10
21.35427135678392
 20
15.26836847131447
 10
21.401005025125627
 20
15.27037125801553
 10
21.447738693467333
 20
15.272441967796746
 10
21.494472361809045
 20
15.27457844160056
 10
21.541206030150754
 20
15.27677871409567
 10
21.58793969849246
 20
15.279040986323189
 10
21.63467336683417
 20
15.28136360346399
 10
21.681407035175877
 20
15.283745036556553
 10
21.728140703517585
 20
15.286183867305887
 10
21.774874371859298
 20
15.288678775342351
 10
21.821608040201003
 20
15.2912285274445
 10
21.86834170854271
 20
15.29383196835302
 10
21.91507537688442
 20
15.296488012885856
 10
21.96180904522613
 20
15.299195639126701
 10
22.008542713567838
 20
15.301953882505972
 10
22.055276381909547
 20
15.304761830629293
 10
22.102010050251256
 20
15.307618618736324
 10
22.14874371859296
 20
15.310523425694463
 10
22.195477386934673
 20
15.313475470448997
 10
22.242211055276382
 20
15.316474008864999
 10
22.288944723618087
 20
15.319518330907012
 10
22.3356783919598
 20
15.322607758111495
 10
22.382412060301505
 20
15.325741641314018
 10
22.429145728643213
 20
15.328919358599183
 10
22.475879396984926
 20
15.332140313445887
 10
22.52261306532663
 20
15.335403933044708
 10
22.56934673366834
 20
15.338709666767336
 10
22.61608040201005
 20
15.342056984770881
 10
22.662814070351757
 20
15.345445376722106
 10
22.709547738693466
 20
15.348874350628684
 10
22.756281407035175
 20
15.352343431766188
 10
22.803015075376884
 20
15.35585216169097
 10
22.849748743718592
 20
15.359400097330273
 10
22.8964824120603
 20
15.36298681014199
 10
22.94321608040201
 20
15.366611885337367
 10
22.989949748743715
 20
15.370274921160687
 10
23.036683417085428
 20
15.373975528220699
 10
23.083417085427136
 20
15.377713328869103
 10
23.13015075376884
 20
15.381487956621907
 10
23.176884422110554
 20
15.385299055619944
 10
23.22361809045226
 20
15.389146280125189
 10
23.270351758793968
 20
15.393029294049882
 10
23.31708542713568
 20
15.396947770515768
 10
23.363819095477385
 20
15.400901391441021
 10
23.410552763819094
 20
15.404889847152644
 10
23.457286432160803
 20
15.408912836022362
 10
23.504020100502512
 20
15.412970064124227
 10
23.55075376884422
 20
15.417061244912281
 10
23.59748743718593
 20
15.421186098916777
 10
23.644221105527638
 20
15.425344353457657
 10
23.690954773869343
 20
15.429535742373972
 10
23.737688442211056
 20
15.433760005768203
 10
23.784422110552764
 20
15.438016889764382
 10
23.83115577889447
 20
15.44230614627909
 10
23.877889447236182
 20
15.446627532804477
 10
23.924623115577887
 20
15.450980812202488
 10
23.971356783919596
 20
15.455365752509561
 10
24.01809045226131
 20
15.459782126751143
 10
24.064824120603014
 20
15.464229712765366
 10
24.111557788944722
 20
15.468708293035341
 10
24.15829145728643
 20
15.473217654529499
 10
24.20502512562814
 20
15.477757588549547
 10
24.25175879396985
 20
15.482327890585502
 10
24.298492462311557
 20
15.486928360177462
 10
24.345226130653266
 20
15.491558800783658
 10
24.391959798994975
 20
15.496219019654449
 10
24.43869346733668
 20
15.500908827711928
 10
24.485427135678393
 20
15.505628039434814
 10
24.532160804020098
 20
15.510376472748307
 10
24.57889447236181
 20
15.515153948918702
 10
24.62562814070352
 20
15.519960292452422
 10
24.672361809045224
 20
15.5247953309993
 10
24.719095477386933
 20
15.529658895259834
 10
24.76582914572864
 20
15.534550818896243
 10
24.81256281407035
 20
15.5394709384471
 10
24.859296482412063
 20
15.544419093245386
 10
24.906030150753768
 20
15.54939512533976
 10
24.952763819095477
 20
15.554398879418908
 10
24.999497487437182
 20
15.559430202738813
 10
25.046231155778894
 20
15.564488945052787
 10
25.092964824120603
 20
15.569574958544152
 10
25.139698492462312
 20
15.574688097761447
 10
25.18643216080402
 20
15.579828219556003
 10
25.233165829145726
 20
15.584995183021817
 10
25.279899497487435
 20
15.590188849437597
 10
25.326633165829147
 20
15.595409082210887
 10
25.373366834170852
 20
15.600655746824161
 10
25.420100502512565
 20
15.605928710782822
 10
25.46683417085427
 20
15.611227843564997
 10
25.51356783919598
 20
15.616553016573068
 10
25.560301507537687
 20
15.621904103086848
 10
25.607035175879396
 20
15.627280978218337
 10
25.653768844221105
 20
15.632683518867992
 10
25.700502512562814
 20
15.63811160368245
 10
25.747236180904522
 20
15.643565113013615
 10
25.79396984924623
 20
15.649043928879115
 10
25.840703517587936
 20
15.654547934923983
 10
25.88743718592965
 20
15.660077016383596
 10
25.934170854271354
 20
15.665631060047776
 10
25.980904522613066
 20
15.671209954226004
 10
26.027638190954775
 20
15.67681358871373
 10
26.07437185929648
 20
15.682441854759706
 10
26.12110552763819
 20
15.68809464503433
 10
26.167839195979898
 20
15.693771853598932
 10
26.214572864321607
 20
15.699473375875991
 10
26.26130653266332
 20
15.705199108620235
 10
26.308040201005024
 20
15.710948949890593
 10
26.354773869346733
 20
15.716722799022959
 10
26.40150753768844
 20
15.722520556603762
 10
26.44824120603015
 20
15.728342124444282
 10
26.49497487437186
 20
15.7341874055557
 10
26.541708542713568
 20
15.740056304124863
 10
26.588442211055277
 20
15.745948725490717
 10
26.635175879396982
 20
15.751864576121402
 10
26.68190954773869
 20
15.757803763591982
 10
26.728643216080403
 20
15.76376619656278
 10
26.77537688442211
 20
15.769751784758302
 10
26.82211055276382
 20
15.775760438946737
 10
26.868844221105526
 20
15.781792070919993
 10
26.915577889447235
 20
15.78784659347428
 10
26.962311557788944
 20
15.793923920391187
 10
27.009045226130652
 20
15.80002396641927
 10
27.05577889447236
 20
15.806146647256105
 10
27.10251256281407
 20
15.812291879530814
 10
27.14924623115578
 20
15.818459580787033
 10
27.195979899497488
 20
15.824649669466316
 10
27.242713567839193
 20
15.830862064891953
 10
27.289447236180905
 20
15.837096687253194
 10
27.336180904522614
 20
15.843353457589876
 10
27.382914572864323
 20
15.849632297777408
 10
27.42964824120603
 20
15.85593313051215
 10
27.476381909547737
 20
15.862255879297127
 10
27.523115577889445
 20
15.868600468428095
 10
27.569849246231158
 20
15.874966822979953
 10
27.616582914572863
 20
15.881354868793462
 10
27.663316582914575
 20
15.887764532462278
 10
27.71005025125628
 20
15.894195741320319
 10
27.75678391959799
 20
15.900648423429384
 10
27.803517587939698
 20
15.907122507567099
 10
27.850251256281407
 20
15.91361792321511
 10
27.896984924623116
 20
15.920134600547572
 10
27.943718592964824
 20
15.926672470419877
 10
27.990452261306533
 20
15.933231464357661
 10
28.037185929648242
 20
15.93981151454603
 10
28.083919597989947
 20
15.946412553819059
 10
28.13065326633166
 20
15.953034515649492
 10
28.177386934673365
 20
15.95967733413869
 10
28.224120603015077
 20
15.966340944006799
 10
28.270854271356786
 20
15.973025280583116
 10
28.31758793969849
 20
15.979730279796676
 10
28.3643216080402
 20
15.986455878167048
 10
28.41105527638191
 20
15.993202012795308
 10
28.457788944723617
 20
15.999968621355219
 10
28.50452261306533
 20
16.0067556420846
 10
28.551256281407035
 20
16.013563013776846
 10
28.597989949748744
 20
16.02039067577268
 10
28.644723618090453
 20
16.02723856795203
 10
28.69145728643216
 20
16.03410663072607
 10
28.73819095477387
 20
16.04099480502947
 10
28.78492462311558
 20
16.04790303231276
 10
28.831658291457288
 20
16.05483125453487
 10
28.878391959798996
 20
16.061779414155815
 10
28.9251256281407
 20
16.06874745412951
 10
28.971859296482414
 20
16.075735317896775
 10
29.01859296482412
 20
16.082742949378428
 10
29.06532663316583
 20
16.089770292968524
 10
29.11206030150754
 20
16.096817293527764
 10
29.158793969849246
 20
16.10388389637698
 10
29.205527638190954
 20
16.110970047290788
 10
29.252261306532663
 20
16.118075692491335
 10
29.298994974874372
 20
16.125200778642174
 10
29.345728643216084
 20
16.132345252842274
 10
29.39246231155779
 20
16.139509062620114
 10
29.439195979899498
 20
16.146692155927905
 10
29.485929648241203
 20
16.153894481135918
 10
29.532663316582916
 20
16.161115987026925
 10
29.579396984924625
 20
16.16835662279072
 10
29.626130653266333
 20
16.17561633801877
 10
29.672864321608042
 20
16.18289508269894
 10
29.719597989949747
 20
16.190192807210337
 10
29.766331658291456
 20
16.19750946231822
 10
29.813065326633165
 20
16.204844999169033
 10
29.859798994974874
 20
16.2121993692855
 10
29.906532663316586
 20
16.21957252456182
 10
29.95326633165829
 20
16.22696441725896
 10
30.0
 20
16.234375
  0
TEXT
  5
35
330
17
100
AcDbEntity
  8
0
100
AcDbText
 10
0.0
 20
31.0
 30
0.0
 40
2.0
  1
TOP VIEW
 11
0.0
 21
31.0
 31
0.0
100
AcDbText
  0
ENDSEC
  0
SECTION
  2
OBJECTS
  0
DICTIONARY
  5
A
330
0
100
AcDbDictionary
281
1
  3
ACAD_COLOR
350
B
  3
ACAD_GROUP
350
C
  3
ACAD_LAYOUT
350
D
  3
ACAD_MATERIAL
350
E
  3
ACAD_MLEADERSTYLE
350
F
  3
ACAD_MLINESTYLE
350
10
  3
ACAD_PLOTSETTINGS
350
11
  3
ACAD_PLOTSTYLENAME
350
12
  3
ACAD_SCALELIST
350
14
  3
ACAD_TABLESTYLE
350
15
  3
ACAD_VISUALSTYLE
350
16
  3
EZDXF_META
350
2D
  0
DICTIONARY
  5
B
330
A
100
AcDbDictionary
281
1
  0
DICTIONARY
  5
C
330
A
100
AcDbDictionary
281
1
  0
DICTIONARY
  5
D
330
A
100
AcDbDictionary
281
1
  3
Model
350
1A
  3
Layout1
350
1E
  0
DICTIONARY
  5
E
330
A
100
AcDbDictionary
281
1
  3
ByBlock
350
1F
  3
ByLayer
350
20
  3
Global
350
21
  0
DICTIONARY
  5
F
330
A
100
AcDbDictionary
281
1
  3
Standard
350
2C
  0
DICTIONARY
  5
10
330
A
100
AcDbDictionary
281
1
  3
Standard
350
22
  0
DICTIONARY
  5
11
330
A
100
AcDbDictionary
281
1
  0
ACDBDICTIONARYWDFLT
  5
12
330
A
100
AcDbDictionary
281
1
  3
Normal
350
13
100
AcDbDictionaryWithDefault
340
13
  0
ACDBPLACEHOLDER
  5
13
330
12
  0
DICTIONARY
  5
14
330
A
100
AcDbDictionary
281
1
  0
DICTIONARY
  5
15
330
A
100
AcDbDictionary
281
1
  0
DICTIONARY
  5
16
330
A
100
AcDbDictionary
281
1
  0
LAYOUT
  5
1A
330
D
100
AcDbPlotSettings
  1

  4
A3
  6

 40
7.5
 41
20.0
 42
7.5
 43
20.0
 44
420.0
 45
297.0
 46
0.0
 47
0.0
 48
0.0
 49
0.0
140
0.0
141
0.0
142
1.0
143
1.0
 70
1024
 72
1
 73
0
 74
5
  7

 75
16
 76
0
 77
2
 78
300
147
1.0
148
0.0
149
0.0
100
AcDbLayout
  1
Model
 70
1
 71
0
 10
0.0
 20
0.0
 11
420.0
 21
297.0
 12
0.0
 22
0.0
 32
0.0
 14
1e+20
 24
1e+20
 34
1e+20
 15
-1e+20
 25
-1e+20
 35
-1e+20
146
0.0
 13
0.0
 23
0.0
 33
0.0
 16
1.0
 26
0.0
 36
0.0
 17
0.0
 27
1.0
 37
0.0
 76
1
330
17
  0
LAYOUT
  5
1E
330
D
100
AcDbPlotSettings
  1

  4
A3
  6

 40
7.5
 41
20.0
 42
7.5
 43
20.0
 44
420.0
 45
297.0
 46
0.0
 47
0.0
 48
0.0
 49
0.0
140
0.0
141
0.0
142
1.0
143
1.0
 70
0
 72
1
 73
0
 74
5
  7

 75
16
 76
0
 77
2
 78
300
147
1.0
148
0.0
149
0.0
100
AcDbLayout
  1
Layout1
 70
1
 71
1
 10
0.0
 20
0.0
 11
420.0
 21
297.0
 12
0.0
 22
0.0
 32
0.0
 14
1e+20
 24
1e+20
 34
1e+20
 15
-1e+20
 25
-1e+20
 35
-1e+20
146
0.0
 13
0.0
 23
0.0
 33
0.0
 16
1.0
 26
0.0
 36
0.0
 17
0.0
 27
1.0
 37
0.0
 76
1
330
1B
  0
MATERIAL
  5
1F
102
{ACAD_REACTORS
330
E
102
}
330
E
100
AcDbMaterial
  1
ByBlock
  2

 70
0
 40
1.0
 71
1
 41
1.0
 91
-1023410177
 42
1.0
 72
1
  3

 73
1
 74
1
 75
1
 44
0.5
 73
0
 45
1.0
 46
1.0
 77
1
  4

 78
1
 79
1
170
1
 48
1.0
171
1
  6

172
1
173
1
174
1
140
1.0
141
1.0
175
1
  7

176
1
177
1
178
1
143
1.0
179
1
  8

270
1
271
1
272
1
145
1.0
146
1.0
273
1
  9

274
1
275
1
276
1
 42
1.0
 72
1
  3

 73
1
 74
1
 75
1
 94
63
  0
MATERIAL
  5
20
102
{ACAD_REACTORS
330
E
102
}
330
E
100
AcDbMaterial
  1
ByLayer
  2

 70
0
 40
1.0
 71
1
 41
1.0
 91
-1023410177
 42
1.0
 72
1
  3

 73
1
 74
1
 75
1
 44
0.5
 73
0
 45
1.0
 46
1.0
 77
1
  4

 78
1
 79
1
170
1
 48
1.0
171
1
  6

172
1
173
1
174
1
140
1.0
141
1.0
175
1
  7

176
1
177
1
178
1
143
1.0
179
1
  8

270
1
271
1
272
1
145
1.0
146
1.0
273
1
  9

274
1
275
1
276
1
 42
1.0
 72
1
  3

 73
1
 74
1
 75
1
 94
63
  0
MATERIAL
  5
21
102
{ACAD_REACTORS
330
E
102
}
330
E
100
AcDbMaterial
  1
Global
  2

 70
0
 40
1.0
 71
1
 41
1.0
 91
-1023410177
 42
1.0
 72
1
  3

 73
1
 74
1
 75
1
 44
0.5
 73
0
 45
1.0
 46
1.0
 77
1
  4

 78
1
 79
1
170
1
 48
1.0
171
1
  6

172
1
173
1
174
1
140
1.0
141
1.0
175
1
  7

176
1
177
1
178
1
143
1.0
179
1
  8

270
1
271
1
272
1
145
1.0
146
1.0
273
1
  9

274
1
275
1
276
1
 42
1.0
 72
1
  3

 73
1
 74
1
 75
1
 94
63
  0
MLINESTYLE
  5
22
102
{ACAD_REACTORS
330
10
102
}
330
10
100
AcDbMlineStyle
  2
Standard
 70
0
  3

 62
256
 51
90.0
 52
90.0
 71
2
 49
0.5
 62
256
  6
BYLAYER
 49
-0.5
 62
256
  6
BYLAYER
  0
MLEADERSTYLE
  5
2C
102
{ACAD_REACTORS
330
F
102
}
330
F
100
AcDbMLeaderStyle
179
2
170
2
171
1
172
0
 90
2
 40
0.0
 41
0.0
173
1
 91
-1056964608
 92
-2
290
1
 42
2.0
291
1
 43
8.0
  3
Standard
 44
4.0
300

342
29
174
1
175
1
176
0
178
1
 93
-1056964608
 45
4.0
292
0
297
0
 46
4.0
 94
-1056964608
 47
1.0
 49
1.0
140
1.0
294
1
141
0.0
177
0
142
1.0
295
0
296
0
143
3.75
271
0
272
9
273
9
  0
DICTIONARY
  5
2D
330
A
100
AcDbDictionary
280
1
281
1
  3
CREATED_BY_EZDXF
350
2E
  3
WRITTEN_BY_EZDXF
350
38
  0
DICTIONARYVAR
  5
2E
330
2D
100
DictionaryVariables
280
0
  1
1.4.3 @ 2026-03-02T05:00:15.781661+00:00
  0
DICTIONARYVAR
  5
38
330
2D
100
DictionaryVariables
280
0
  1
1.4.3 @ 2026-03-02T05:00:15.800289+00:00
  0
ENDSEC
  0
EOF
